<svg width="210" height="79" viewBox="0 0 210 79" fill="none" xmlns="http://www.w3.org/2000/svg">
<path d="M0 0H210L154.632 79H0V0Z" fill="#3CB371"/>
<path d="M63.3815 59C61.9955 59 60.6921 58.4487 59.712 57.4503C58.732 56.452 58.1908 55.1242 58.1908 53.7124C58.1908 52.3005 58.7287 50.9727 59.7087 49.9777C60.6888 48.9794 61.9922 48.4281 63.3815 48.4281C64.7674 48.4281 66.0709 48.976 67.051 49.9744C69.0738 52.035 69.0738 55.3897 67.051 57.4537C66.0676 58.4521 64.7641 59 63.3815 59Z" fill="white" fill-opacity="0.96"/>
<path d="M35.1907 30.8173C33.8048 30.8173 32.5013 30.266 31.5179 29.2676C30.5412 28.2693 30 26.9415 30 25.5297C30 24.1178 30.5379 22.79 31.5179 21.795C32.498 20.7967 33.8048 20.2454 35.1907 20.2454C36.5766 20.2454 37.8801 20.7933 38.8569 21.7917C39.8369 22.79 40.3781 24.1178 40.3781 25.5297C40.3781 26.9415 39.8369 28.2693 38.8569 29.2676C37.8801 30.266 36.5766 30.8173 35.1907 30.8173Z" fill="white" fill-opacity="0.96"/>
<path d="M63.1472 30.6626C61.7613 30.6626 60.4578 30.1114 59.4778 29.113C57.4549 27.0524 57.4549 23.6976 59.4745 21.637C60.4545 20.6387 61.758 20.0874 63.1472 20.0874C64.5332 20.0874 65.8366 20.6387 66.8167 21.637C68.8395 23.6976 68.8395 27.0524 66.8167 29.1164C65.8366 30.1114 64.5332 30.6626 63.1472 30.6626Z" fill="white" fill-opacity="0.96"/>
<path d="M35.326 59C33.94 59 32.6366 58.4487 31.6532 57.4503C30.6732 56.452 30.1353 55.1242 30.1353 53.7124C30.1353 52.3005 30.6765 50.9727 31.6565 49.9744C31.8611 49.7626 32.0921 49.571 32.3858 49.3693C32.4749 49.3054 32.5574 49.255 32.6399 49.2046C32.8313 49.0937 33.0227 48.9895 33.2009 48.9054C33.2966 48.8617 33.3989 48.8147 33.5045 48.7743C33.6925 48.7037 33.9004 48.6399 34.138 48.5827C34.1842 48.5693 34.2271 48.5592 34.27 48.5457C34.2964 48.539 34.3228 48.5289 34.3492 48.5222L35.5042 48.4415C35.6494 48.4483 35.8078 48.4684 35.9761 48.4886L36.0421 48.4987C36.0817 48.502 36.1345 48.5088 36.1873 48.5121L36.2334 48.5155L36.2862 48.5256H36.3324C36.4182 48.5289 36.5007 48.5289 36.5832 48.5289C38.5731 48.5289 40.5398 47.665 41.9752 46.1591C43.4041 44.6599 44.1927 42.643 44.1366 40.6261V40.5656L44.1267 40.5017C44.1168 40.4446 44.1135 40.3874 44.1102 40.3303C44.1069 40.263 44.1003 40.1958 44.0904 40.1286L44.0772 40.0109C44.0673 39.9101 44.0541 39.8092 44.0475 39.7084L44.1366 38.5285C44.1432 38.4983 44.1531 38.4714 44.1597 38.4445L44.1795 38.3705C44.2323 38.1453 44.2884 37.9234 44.3742 37.7049C44.4171 37.5806 44.4567 37.4898 44.5029 37.3957C44.5953 37.1906 44.691 37.0024 44.8032 36.8108C44.8527 36.7268 44.8989 36.6427 44.955 36.562C45.1662 36.2494 45.3543 36.0141 45.5523 35.8124C46.5324 34.8141 47.8358 34.2661 49.225 34.2661C50.611 34.2661 51.9144 34.8141 52.8978 35.8124C54.9173 37.873 54.9173 41.2278 52.8945 43.2884C52.6899 43.4968 52.4589 43.6884 52.1619 43.8934C52.0761 43.954 51.9936 44.0044 51.9111 44.0514C51.7231 44.1657 51.535 44.2666 51.3502 44.354C51.2479 44.401 51.1489 44.4481 51.0499 44.4851C50.8519 44.559 50.6407 44.6229 50.4196 44.6767L50.2942 44.7136C50.2645 44.7204 50.2381 44.7305 50.2117 44.7372L49.0469 44.8212C48.9116 44.8145 48.7664 44.7977 48.6146 44.7775L48.5123 44.7641C48.476 44.7573 48.4232 44.754 48.3671 44.7506L48.3275 44.7473L48.2681 44.7372H48.2219C48.1361 44.7338 48.0536 44.7338 47.9678 44.7338C45.978 44.7338 44.0112 45.5977 42.5758 47.1003C41.1437 48.5995 40.3583 50.6164 40.4144 52.6367V52.6972L40.4243 52.7577C40.4342 52.8148 40.4375 52.872 40.4408 52.9291C40.4441 52.9964 40.4507 53.0636 40.4606 53.1308C40.4639 53.1712 40.4705 53.2451 40.4804 53.3157C40.4903 53.3964 40.5002 53.4737 40.5002 53.5577V53.588L40.4177 54.7208C40.4111 54.7443 40.3748 54.8754 40.3649 54.9158C40.3088 55.1612 40.2461 55.3763 40.1735 55.5713C40.1339 55.6788 40.0943 55.7729 40.0481 55.8704C39.959 56.0721 39.86 56.2637 39.7478 56.4587C39.6983 56.5394 39.6422 56.6335 39.5828 56.7242C39.3914 57.01 39.2 57.2486 38.9921 57.4604C38.0154 58.4521 36.7119 59 35.326 59Z" fill="white" fill-opacity="0.96"/>
<path d="M49.3405 59C47.9546 59 46.6478 58.4487 45.6678 57.4503C44.6877 56.452 44.1498 55.1242 44.1465 53.7124C44.1465 52.3005 44.6844 50.9761 45.6645 49.9777C45.8658 49.7727 46.0902 49.5844 46.4004 49.366C46.4763 49.3122 46.5588 49.2617 46.6478 49.2113C46.8392 49.0937 47.0207 48.9962 47.2121 48.9088C47.3144 48.8617 47.4134 48.8147 47.5124 48.7777C47.7038 48.7071 47.915 48.6432 48.1361 48.5928C48.1361 48.5928 48.3176 48.539 48.3407 48.5323L49.5154 48.4449C49.654 48.4516 49.8025 48.4718 49.9609 48.492L50.0467 48.502C50.1028 48.5088 50.1523 48.5121 50.2018 48.5121C50.2216 48.5121 50.2414 48.5121 50.2579 48.5155L50.2942 48.5189L50.3437 48.5222C50.4295 48.5256 50.5153 48.5256 50.6011 48.5256C52.5876 48.5256 54.551 47.6617 55.9832 46.1591C57.412 44.6599 58.2007 42.643 58.1446 40.6261L58.138 40.3807L58.1149 40.3538C58.1149 40.3471 58.1149 40.337 58.1116 40.3269C58.1083 40.2698 58.105 40.2126 58.0984 40.1521L58.0786 39.984C58.0687 39.8899 58.0555 39.7992 58.0522 39.705L58.1314 38.5621C58.138 38.5352 58.1776 38.3941 58.1875 38.3504C58.2535 38.0781 58.3129 37.8764 58.3789 37.6982C58.4152 37.5907 58.4614 37.4932 58.5076 37.3923C58.5901 37.2074 58.6891 37.0192 58.8079 36.8142L58.831 36.7772C58.8706 36.7066 58.9102 36.6394 58.9564 36.5721C59.1676 36.2561 59.359 36.0208 59.557 35.8158C60.537 34.8174 61.8438 34.2661 63.2297 34.2661C64.6157 34.2661 65.9191 34.8141 66.8992 35.8124C68.922 37.873 68.922 41.2278 66.8992 43.2917C66.7045 43.4901 66.4702 43.6817 66.1633 43.8968C66.1039 43.9371 66.0478 43.9708 65.9917 44.0077L65.8993 44.0649C65.7244 44.1691 65.5363 44.2699 65.3515 44.3573C65.2492 44.4044 65.1502 44.4515 65.0479 44.4884C64.8664 44.559 64.6652 44.6162 64.4144 44.68C64.3649 44.6935 64.322 44.7069 64.2824 44.717C64.2527 44.7237 64.2263 44.7338 64.1999 44.7405L63.0449 44.8212C62.8766 44.8145 62.6918 44.7876 62.5169 44.7641C62.4575 44.7573 62.4113 44.754 62.3651 44.7506C62.3486 44.7506 62.3288 44.7506 62.3123 44.7473L62.2134 44.7372C62.1276 44.7338 62.0418 44.7338 61.956 44.7338C59.9661 44.7338 58.006 45.5977 56.5706 47.1003C55.1417 48.5995 54.3531 50.6164 54.4125 52.6367V52.6972L54.4224 52.7543C54.4323 52.8148 54.4355 52.8753 54.4388 52.9359C54.4421 52.9964 54.4487 53.0602 54.4553 53.1174C54.4586 53.1678 54.4653 53.2317 54.4719 53.2922C54.4817 53.3829 54.4916 53.4703 54.4949 53.5611L54.4092 54.7208C54.4026 54.7477 54.3597 54.9023 54.3597 54.9023C54.3036 55.1477 54.2409 55.3628 54.1683 55.5645C54.1353 55.6587 54.0924 55.7528 54.0495 55.8469L54.0363 55.8805C53.9505 56.0688 53.8548 56.257 53.7459 56.4385C53.6931 56.5293 53.6403 56.6167 53.5842 56.7007C53.3796 56.9999 53.1882 57.2419 52.9836 57.4503C52.0233 58.4521 50.7232 59 49.3405 59Z" fill="white" fill-opacity="0.96"/>
<path d="M35.3293 44.7305C33.9434 44.7305 32.6399 44.1826 31.6599 43.1842C30.6798 42.1858 30.1386 40.858 30.1386 39.4429C30.1386 38.031 30.6765 36.7066 31.6566 35.7082C31.8578 35.5032 32.0921 35.3116 32.3924 35.0998C32.4716 35.046 32.5607 34.9922 32.6465 34.9385C32.8247 34.8309 33.0095 34.73 33.2042 34.6393C33.3032 34.5922 33.4055 34.5452 33.5111 34.5082C33.7025 34.4376 33.9137 34.3737 34.1315 34.3233L34.2635 34.2863C34.2866 34.2796 34.3097 34.2695 34.336 34.2662L35.5108 34.1788C35.6626 34.1855 35.8276 34.209 36.0025 34.2325L36.0388 34.2359C36.0982 34.2426 36.1444 34.246 36.1939 34.246C36.2104 34.246 36.2269 34.246 36.2434 34.2494L36.2929 34.2594L36.3391 34.2628C36.4249 34.2662 36.5107 34.2662 36.5965 34.2662C38.583 34.2662 40.5464 33.4056 41.9786 31.8997C43.4074 30.4004 44.1961 28.3836 44.1367 26.3633V26.3062L44.1268 26.249C44.1136 26.1851 44.1136 26.1213 44.1103 26.054C44.107 26.0003 44.1037 25.9465 44.0971 25.8927L44.0806 25.7313C44.0674 25.6339 44.0575 25.5364 44.0542 25.4389L44.1334 24.3296L44.14 24.3027V24.2792C44.1466 24.2523 44.1895 24.1077 44.1895 24.1077C44.2555 23.822 44.3149 23.617 44.3809 23.4354C44.4172 23.3346 44.4634 23.2371 44.5096 23.1329C44.5954 22.9447 44.6944 22.7497 44.8065 22.5547L44.823 22.5245C44.8692 22.4472 44.9121 22.3732 44.9616 22.2959C45.1662 21.9934 45.3576 21.7547 45.5523 21.553C46.5324 20.5513 47.8391 20 49.2251 20C50.611 20 51.9145 20.5479 52.8945 21.5463C54.9174 23.6069 54.9141 26.9616 52.8912 29.0222C52.6899 29.2273 52.4524 29.4256 52.162 29.6273C52.0828 29.6845 52.0135 29.7248 51.9442 29.7685L51.9046 29.792C51.7132 29.9063 51.5251 30.0072 51.3502 30.0912C51.2446 30.1416 51.1489 30.1853 51.0466 30.2223C50.8519 30.2962 50.644 30.3567 50.413 30.4139C50.3635 30.4273 50.3206 30.4408 50.2744 30.4509C50.248 30.4576 50.2216 30.4677 50.1919 30.4744L49.0403 30.5551C48.8951 30.5484 48.74 30.5282 48.575 30.508L48.5057 30.4979C48.4529 30.4912 48.4034 30.4878 48.3572 30.4845C48.3374 30.4845 48.3176 30.4845 48.3011 30.4811L48.2615 30.4778L48.212 30.4744C48.1262 30.471 48.0404 30.4677 47.9546 30.4677C45.9681 30.4677 44.0047 31.3316 42.5725 32.8342C41.1437 34.3334 40.355 36.3536 40.4111 38.3705V38.431L40.4243 38.4882C40.4375 38.5487 40.4375 38.6092 40.4441 38.6697C40.4474 38.7302 40.454 38.7941 40.4606 38.8546C40.4639 38.905 40.4738 38.9655 40.4804 39.0294C40.4903 39.1168 40.5002 39.2042 40.5035 39.2916L40.421 40.4446C40.4144 40.4748 40.4045 40.5051 40.3946 40.5353L40.3649 40.6395C40.3088 40.8984 40.2461 41.1135 40.1768 41.3018C40.1405 41.4026 40.091 41.5034 40.0448 41.611C39.959 41.7993 39.8633 41.9875 39.7511 42.1791C39.6983 42.2699 39.6488 42.3573 39.5927 42.4379C39.3783 42.7539 39.1968 42.9825 38.9955 43.1842C38.0121 44.1792 36.712 44.7305 35.3293 44.7305Z" fill="white" fill-opacity="0.96"/>
<path d="M81.973 20.158H84.0618V26.1885L88.3979 20.158H90.3712V29.4155H88.2923V23.3985L83.9562 29.4155H81.9697V20.158H81.973Z" fill="white"/>
<path d="M100.97 20.158V29.4155H98.8683V25.6204H94.7402V29.4155H92.6382V20.158H94.7402V23.8086H98.8683V20.158H100.97Z" fill="white"/>
<path d="M110.814 25.4086C111.108 25.7885 111.256 26.2557 111.256 26.8104C111.256 27.6306 110.952 28.2693 110.342 28.7298C109.731 29.1869 108.86 29.4189 107.725 29.4189H103.244V20.158H107.478C108.534 20.158 109.355 20.3664 109.946 20.7799C110.533 21.1933 110.827 21.785 110.827 22.5514C110.827 23.0085 110.715 23.4119 110.49 23.7615C110.266 24.1111 109.949 24.3867 109.543 24.5884C110.094 24.7565 110.517 25.0321 110.814 25.4086ZM105.333 23.9934H107.293C107.752 23.9934 108.098 23.8993 108.332 23.7077C108.567 23.5195 108.682 23.2371 108.682 22.8673C108.682 22.5043 108.563 22.2287 108.326 22.0337C108.088 21.8387 107.745 21.7413 107.293 21.7413H105.333V23.9934ZM109.124 26.6389C109.124 25.8725 108.629 25.4893 107.643 25.4893H105.333V27.8289H107.643C108.633 27.8289 109.124 27.4323 109.124 26.6389Z" fill="white"/>
<path d="M119.955 27.6978V29.4189H112.916V20.158H119.786V21.8791H115.008V23.8892H119.229V25.5565H115.008V27.6978H119.955Z" fill="white"/>
<path d="M123.413 28.9617C122.664 28.5516 122.076 27.9835 121.647 27.2541C121.218 26.5247 121.004 25.7044 121.004 24.7868C121.004 23.8691 121.218 23.0489 121.647 22.3194C122.076 21.59 122.664 21.0219 123.413 20.6118C124.162 20.2051 125.003 20 125.94 20C126.729 20 127.439 20.1412 128.076 20.4235C128.712 20.7059 129.247 21.1127 129.679 21.6404L128.33 22.9111C127.716 22.1883 126.954 21.8253 126.043 21.8253C125.478 21.8253 124.977 21.9497 124.538 22.2018C124.099 22.4539 123.753 22.8035 123.505 23.2539C123.258 23.7044 123.136 24.2153 123.136 24.7868C123.136 25.3616 123.258 25.8725 123.505 26.3196C123.753 26.77 124.096 27.1196 124.538 27.3717C124.98 27.6239 125.482 27.7482 126.043 27.7482C126.95 27.7482 127.713 27.3818 128.33 26.649L129.679 27.9197C129.247 28.4575 128.709 28.8676 128.069 29.15C127.429 29.4323 126.713 29.5735 125.927 29.5735C125 29.5769 124.162 29.3718 123.413 28.9617Z" fill="white"/>
<path d="M137.912 21.906H135.005V29.4189H132.926V21.906H130.029V20.158H137.909V21.906H137.912Z" fill="white"/>
<path d="M85.494 40.1454H84.0387V43.8767H81.9499V34.6158H84.0387V38.3605H85.5435L87.9326 34.6158H90.1534L87.1802 39.0865L90.2458 43.8733H87.8567L85.494 40.1454Z" fill="white"/>
<path d="M97.2052 41.89H92.9847L92.1795 43.8733H90.0247L94.0769 34.6158H96.1559L100.221 43.8733H98.0137L97.2052 41.89ZM96.5419 40.2631L95.0999 36.7167L93.6579 40.2631H96.5419Z" fill="white"/>
<path d="M109.708 34.6158V43.8733H107.62V36.3637H103.518V43.8767H101.426V34.6158H109.708Z" fill="white"/>
<path d="M111.969 34.6158H114.061V40.6463L118.397 34.6158H120.37V43.8733H118.291V37.8562L113.955 43.8733H111.969V34.6158Z" fill="white"/>
<path d="M129.574 36.3637H126.666V43.8767H124.588V36.3637H121.69V34.6191H129.57V36.3637H129.574Z" fill="white"/>
<path d="M136.599 41.89H132.379L131.573 43.8733H129.419L133.471 34.6158H135.55L139.615 43.8733H137.408L136.599 41.89ZM135.936 40.2631L134.494 36.7167L133.052 40.2631H135.936Z" fill="white"/>
<path d="M149 34.6158V43.8733H146.921V36.3637H143.806L143.74 38.2932C143.697 39.6076 143.592 40.6732 143.43 41.4866C143.265 42.3035 142.991 42.9287 142.605 43.3657C142.219 43.8027 141.681 44.0212 140.988 44.0212C140.701 44.0212 140.354 43.9741 139.948 43.8767L140.077 42.0648C140.189 42.1018 140.315 42.1186 140.453 42.1186C140.955 42.1186 141.305 41.8161 141.506 41.211C141.707 40.6059 141.829 39.6613 141.882 38.3739L142.011 34.6191H149V34.6158Z" fill="white"/>
<path d="M81.973 49.0601H89.3086V50.7677H84.0618V52.6737H86.5796C87.6785 52.6737 88.5166 52.909 89.0908 53.3762C89.665 53.8435 89.9554 54.5191 89.9554 55.3998C89.9554 56.3242 89.6353 57.0436 88.9951 57.5545C88.3549 58.0655 87.4508 58.321 86.2826 58.321H81.973V49.0601ZM86.1671 56.7343C86.705 56.7343 87.1142 56.6268 87.4013 56.4116C87.6884 56.1965 87.8303 55.8805 87.8303 55.4671C87.8303 54.6569 87.2759 54.2502 86.1671 54.2502H84.0651V56.7377H86.1671V56.7343Z" fill="white"/>
<path d="M97.6342 56.3377H93.4136L92.6085 58.321H90.4536L94.5059 49.0634H96.5848L100.647 58.321H98.4394L97.6342 56.3377ZM96.9709 54.7107L95.5289 51.1677L94.0868 54.7107H96.9709Z" fill="white"/>
<path d="M110.19 49.0601V58.321H108.088V54.5258H103.96V58.321H101.855V49.0601H103.96V52.7106H108.088V49.0601H110.19Z" fill="white"/>
<path d="M115.981 54.5897H114.526V58.321H112.437V49.0601H114.526V52.8048H116.031L118.42 49.0601H120.641L117.668 53.5308L120.733 58.3176H118.344L115.981 54.5897Z" fill="white"/>
</svg>
