<svg width="48" height="49" viewBox="0 0 48 49" fill="none" xmlns="http://www.w3.org/2000/svg">
<path d="M41.545 48.5375C39.8201 48.5375 38.1979 47.8514 36.9782 46.6089C35.7585 45.3664 35.0849 43.7139 35.0849 41.9568C35.0849 40.1997 35.7543 38.5472 36.9741 37.3089C38.1938 36.0664 39.816 35.3802 41.545 35.3802C43.2699 35.3802 44.8921 36.0622 46.1119 37.3047C48.6294 39.8692 48.6294 44.0444 46.1119 46.6131C44.888 47.8556 43.2658 48.5375 41.545 48.5375Z" fill="#3CB371"/>
<path d="M6.4601 13.4627C4.73521 13.4627 3.113 12.7766 1.88916 11.534C0.673526 10.2915 0 8.63902 0 6.88193C0 5.12484 0.669419 3.47234 1.88916 2.23401C3.1089 0.991492 4.73521 0.305389 6.4601 0.305389C8.18498 0.305389 9.80719 0.987308 11.0228 2.22982C12.2426 3.47234 12.9161 5.12484 12.9161 6.88193C12.9161 8.63902 12.2426 10.2915 11.0228 11.534C9.80719 12.7766 8.18498 13.4627 6.4601 13.4627Z" fill="#3CB371"/>
<path d="M41.2535 13.2702C39.5286 13.2702 37.9064 12.5841 36.6866 11.3416C34.1691 8.77708 34.1691 4.6019 36.6825 2.03738C37.9023 0.794867 39.5245 0.108765 41.2535 0.108765C42.9783 0.108765 44.6005 0.794867 45.8203 2.03738C48.3378 4.6019 48.3378 8.77708 45.8203 11.3458C44.6005 12.5841 42.9783 13.2702 41.2535 13.2702Z" fill="#3CB371"/>
<path d="M6.62846 48.5375C4.90358 48.5375 3.28137 47.8514 2.05752 46.6089C0.837784 45.3664 0.168365 43.7139 0.168365 41.9568C0.168365 40.1997 0.841891 38.5472 2.06163 37.3047C2.31626 37.0411 2.60374 36.8027 2.96925 36.5517C3.08013 36.4722 3.1828 36.4094 3.28548 36.3467C3.52367 36.2086 3.76187 36.0789 3.98364 35.9743C4.10274 35.9199 4.23005 35.8614 4.36147 35.8112C4.59556 35.7233 4.8543 35.6438 5.14999 35.5727C5.20749 35.556 5.26088 35.5434 5.31427 35.5267C5.34712 35.5183 5.37998 35.5058 5.41283 35.4974L6.85023 35.397C7.03094 35.4054 7.22807 35.4305 7.43752 35.4556L7.51965 35.4681C7.56893 35.4723 7.63464 35.4807 7.70035 35.4849L7.75785 35.489L7.82356 35.5016H7.88106C7.98783 35.5058 8.09051 35.5058 8.19318 35.5058C10.6696 35.5058 13.1173 34.4306 14.9038 32.5564C16.6821 30.6905 17.6636 28.1804 17.5938 25.6702V25.5949L17.5815 25.5155C17.5691 25.4443 17.565 25.3732 17.5609 25.3021C17.5568 25.2184 17.5486 25.1348 17.5363 25.0511L17.5199 24.9047C17.5075 24.7792 17.4911 24.6536 17.4829 24.5281L17.5938 23.0597C17.602 23.0221 17.6143 22.9886 17.6225 22.9551L17.6472 22.8631C17.7129 22.5828 17.7827 22.3067 17.8895 22.0347C17.9429 21.88 17.9922 21.767 18.0497 21.6499C18.1646 21.3947 18.2837 21.1604 18.4234 20.9219C18.485 20.8173 18.5425 20.7127 18.6123 20.6123C18.8751 20.2233 19.1092 19.9304 19.3556 19.6794C20.5754 18.4369 22.1976 17.755 23.9266 17.755C25.6515 17.755 27.2737 18.4369 28.4975 19.6794C31.0109 22.2439 31.0109 26.4191 28.4934 28.9836C28.2388 29.243 27.9513 29.4815 27.5817 29.7367C27.4749 29.812 27.3722 29.8747 27.2696 29.9333C27.0355 30.0755 26.8014 30.201 26.5714 30.3098C26.4441 30.3684 26.3209 30.4269 26.1977 30.473C25.9513 30.565 25.6884 30.6445 25.4133 30.7114L25.2572 30.7574C25.2202 30.7658 25.1874 30.7784 25.1545 30.7867L23.7048 30.8913C23.5364 30.8829 23.3557 30.862 23.1668 30.8369L23.0395 30.8202C22.9943 30.8118 22.9286 30.8076 22.8588 30.8035L22.8095 30.7993L22.7356 30.7867H22.6781C22.5713 30.7825 22.4686 30.7825 22.3619 30.7825C19.8854 30.7825 17.4377 31.8577 15.6512 33.7278C13.8689 35.5936 12.8914 38.1038 12.9612 40.6181V40.6934L12.9736 40.7687C12.9859 40.8398 12.99 40.9109 12.9941 40.982C12.9982 41.0657 13.0064 41.1494 13.0187 41.233C13.0229 41.2833 13.0311 41.3753 13.0434 41.4631C13.0557 41.5635 13.068 41.6598 13.068 41.7644V41.802L12.9654 43.2119C12.9571 43.2412 12.912 43.4043 12.8996 43.4545C12.8298 43.7599 12.7518 44.0277 12.6614 44.2703C12.6122 44.4042 12.5629 44.5213 12.5054 44.6426C12.3945 44.8937 12.2713 45.1321 12.1317 45.3748C12.0701 45.4752 12.0002 45.5923 11.9263 45.7053C11.6881 46.0609 11.4499 46.3579 11.1912 46.6215C9.97556 47.8556 8.35335 48.5375 6.62846 48.5375Z" fill="#3CB371"/>
<path d="M24.0703 48.5375C22.3454 48.5375 20.7191 47.8514 19.4994 46.6089C18.2796 45.3664 17.6102 43.7139 17.6061 41.9568C17.6061 40.1997 18.2755 38.5514 19.4953 37.3089C19.7458 37.0537 20.0251 36.8194 20.4111 36.5475C20.5056 36.4805 20.6082 36.4178 20.7191 36.355C20.9573 36.2086 21.1832 36.0873 21.4214 35.9785C21.5487 35.9199 21.6719 35.8614 21.7951 35.8154C22.0333 35.7275 22.2961 35.648 22.5713 35.5853C22.5713 35.5853 22.7972 35.5183 22.8259 35.51L24.288 35.4012C24.4605 35.4096 24.6453 35.4347 24.8424 35.4598L24.9492 35.4723C25.019 35.4807 25.0806 35.4849 25.1422 35.4849C25.1668 35.4849 25.1915 35.4849 25.212 35.489L25.2572 35.4932L25.3188 35.4974C25.4256 35.5016 25.5324 35.5016 25.6391 35.5016C28.1115 35.5016 30.5551 34.4264 32.3374 32.5564C34.1157 30.6905 35.0972 28.1804 35.0274 25.6702L35.0192 25.3648L34.9905 25.3314C34.9905 25.323 34.9905 25.3105 34.9864 25.2979C34.9823 25.2268 34.9781 25.1557 34.9699 25.0804L34.9453 24.8712C34.933 24.7541 34.9165 24.6411 34.9124 24.524L35.011 23.1016C35.0192 23.0681 35.0685 22.8924 35.0808 22.838C35.163 22.4991 35.2369 22.2481 35.319 22.0264C35.3642 21.8925 35.4217 21.7712 35.4792 21.6457C35.5819 21.4156 35.7051 21.1813 35.8529 20.9261L35.8817 20.8801C35.9309 20.7922 35.9802 20.7086 36.0377 20.6249C36.3006 20.2316 36.5388 19.9388 36.7852 19.6836C38.0049 18.4411 39.6312 17.755 41.3561 17.755C43.081 17.755 44.7032 18.4369 45.9229 19.6794C48.4405 22.2439 48.4405 26.4191 45.9229 28.9878C45.6806 29.2346 45.3891 29.4731 45.0071 29.7408C44.9332 29.791 44.8634 29.8329 44.7936 29.8789L44.6786 29.95C44.4609 30.0797 44.2268 30.2052 43.9968 30.314C43.8695 30.3726 43.7463 30.4311 43.619 30.4771C43.3931 30.565 43.1426 30.6361 42.8305 30.7156C42.7689 30.7323 42.7155 30.7491 42.6662 30.7616C42.6292 30.77 42.5964 30.7825 42.5635 30.7909L41.1261 30.8913C40.9167 30.8829 40.6867 30.8495 40.469 30.8202C40.3951 30.8118 40.3376 30.8076 40.2801 30.8035C40.2596 30.8035 40.2349 30.8035 40.2144 30.7993L40.0912 30.7867C39.9844 30.7825 39.8776 30.7825 39.7709 30.7825C37.2944 30.7825 34.8549 31.8577 33.0685 33.7278C31.2902 35.5936 30.3086 38.1038 30.3826 40.6181V40.6934L30.3949 40.7645C30.4072 40.8398 30.4113 40.9151 30.4154 40.9904C30.4195 41.0657 30.4277 41.1452 30.436 41.2163C30.4401 41.2791 30.4483 41.3586 30.4565 41.4339C30.4688 41.5468 30.4811 41.6556 30.4852 41.7685L30.3785 43.2119C30.3702 43.2453 30.3169 43.4378 30.3169 43.4378C30.247 43.7432 30.169 44.0109 30.0787 44.2619C30.0376 44.3791 29.9842 44.4962 29.9308 44.6134L29.9144 44.6552C29.8076 44.8895 29.6885 45.1238 29.553 45.3497C29.4873 45.4626 29.4216 45.5714 29.3517 45.676C29.0971 46.0483 28.8589 46.3495 28.6043 46.6089C27.4092 47.8556 25.7911 48.5375 24.0703 48.5375Z" fill="#3CB371"/>
<path d="M6.63261 30.7784C4.90773 30.7784 3.28552 30.0965 2.06578 28.8539C0.846042 27.6114 0.172516 25.9589 0.172516 24.1976C0.172516 22.4406 0.841935 20.7922 2.06167 19.5497C2.31219 19.2945 2.60378 19.0561 2.9775 18.7925C3.07607 18.7256 3.18695 18.6586 3.29373 18.5917C3.5155 18.4578 3.74549 18.3323 3.98779 18.2194C4.111 18.1608 4.23831 18.1022 4.36973 18.0562C4.60793 17.9683 4.87077 17.8889 5.14182 17.8261L5.3061 17.7801C5.33484 17.7717 5.36359 17.7592 5.39645 17.755L6.85849 17.6462C7.04741 17.6546 7.25275 17.6839 7.47041 17.7131L7.51559 17.7173C7.58951 17.7257 7.64701 17.7299 7.70861 17.7299C7.72915 17.7299 7.74968 17.7299 7.77021 17.7341L7.83182 17.7466L7.88931 17.7508C7.99609 17.755 8.10287 17.755 8.20965 17.755C10.682 17.755 13.1256 16.684 14.9079 14.8098C16.6862 12.9439 17.6678 10.4338 17.5938 7.91946V7.84834L17.5815 7.77722C17.5651 7.69773 17.5651 7.61824 17.561 7.53457C17.5569 7.46764 17.5528 7.4007 17.5446 7.33376L17.524 7.13295C17.5076 7.01163 17.4953 6.89031 17.4912 6.76898L17.5897 5.38841L17.5979 5.35494V5.32566C17.6062 5.29219 17.6595 5.1123 17.6595 5.1123C17.7417 4.7567 17.8156 4.5015 17.8977 4.27559C17.9429 4.15008 18.0004 4.02876 18.0579 3.89907C18.1647 3.66479 18.2879 3.42214 18.4275 3.1795L18.4481 3.14185C18.5056 3.04562 18.5589 2.95359 18.6206 2.85736C18.8752 2.48084 19.1134 2.18381 19.3557 1.9328C20.5754 0.686102 22.2017 0 23.9266 0C25.6515 0 27.2737 0.681918 28.4935 1.92443C31.011 4.48895 31.0069 8.66413 28.4893 11.2286C28.2388 11.4838 27.9431 11.7307 27.5817 11.9817C27.4832 12.0528 27.3969 12.103 27.3107 12.1574L27.2614 12.1867C27.0232 12.3289 26.7891 12.4544 26.5714 12.559C26.44 12.6218 26.3209 12.6762 26.1936 12.7222C25.9513 12.8142 25.6926 12.8895 25.4051 12.9606C25.3435 12.9774 25.2901 12.9941 25.2326 13.0067C25.1997 13.015 25.1669 13.0276 25.1299 13.0359L23.6966 13.1363C23.5159 13.128 23.3229 13.1029 23.1176 13.0778L23.0313 13.0652C22.9656 13.0569 22.904 13.0527 22.8465 13.0485C22.8219 13.0485 22.7972 13.0485 22.7767 13.0443L22.7274 13.0401L22.6658 13.0359C22.559 13.0318 22.4523 13.0276 22.3455 13.0276C19.8731 13.0276 17.4296 14.1027 15.6472 15.9728C13.8689 17.8387 12.8874 20.353 12.9572 22.8631V22.9384L12.9736 23.0095C12.99 23.0848 12.99 23.1601 12.9983 23.2354C13.0024 23.3107 13.0106 23.3902 13.0188 23.4655C13.0229 23.5283 13.0352 23.6036 13.0434 23.6831C13.0557 23.7918 13.0681 23.9006 13.0722 24.0094L12.9695 25.4443C12.9613 25.482 12.949 25.5197 12.9367 25.5573L12.8997 25.687C12.8299 26.0091 12.7518 26.2769 12.6656 26.5112C12.6204 26.6367 12.5588 26.7622 12.5013 26.896C12.3945 27.1303 12.2754 27.3646 12.1358 27.6031C12.0701 27.716 12.0085 27.8248 11.9387 27.9252C11.6717 28.3184 11.4459 28.6029 11.1953 28.8539C9.97149 30.0923 8.35339 30.7784 6.63261 30.7784Z" fill="#3CB371"/>
</svg>
