<svg width="23" height="23" viewBox="0 0 23 23" fill="none" xmlns="http://www.w3.org/2000/svg">
<path d="M12.8426 19H10.1574V8.25877H12.8426V19ZM10 5.47915C10 5.04897 10.1327 4.6949 10.3981 4.41694C10.6698 4.13898 11.037 4 11.5 4C11.9568 4 12.321 4.13898 12.5926 4.41694C12.8642 4.6949 13 5.04897 13 5.47915C13 5.91595 12.8611 6.27333 12.5833 6.55129C12.3117 6.82925 11.9506 6.96823 11.5 6.96823C11.0494 6.96823 10.6852 6.82925 10.4074 6.55129C10.1358 6.27333 10 5.91595 10 5.47915Z" fill="#E5E5E5"/>
<circle cx="11.5" cy="11.5" r="10.5" stroke="#E5E5E5" stroke-width="2"/>
</svg>
