<svg width="45" height="45" viewBox="0 0 45 45" fill="none" xmlns="http://www.w3.org/2000/svg">
<g clip-path="url(#clip0)">
<path d="M35.8525 26.4183V6.50048C35.8525 5.6243 35.1397 4.91159 34.2636 4.91159H7.05287C6.68909 4.91159 6.39413 5.20646 6.39413 5.57033C6.39413 5.9342 6.68909 6.22907 7.05287 6.22907H34.2635C34.4132 6.22907 34.535 6.3508 34.535 6.50048V26.4183C34.535 26.568 34.4132 26.6898 34.2635 26.6898H1.58897C1.4393 26.6898 1.31748 26.568 1.31748 26.4183V6.50048C1.31748 6.3508 1.4393 6.22907 1.58897 6.22907H4.24547C4.60925 6.22907 4.90421 5.9342 4.90421 5.57033C4.90421 5.20646 4.60925 4.91159 4.24547 4.91159H1.58897C0.712881 4.91159 0 5.62438 0 6.50048V26.4183C0 27.2946 0.712881 28.0073 1.58897 28.0073H34.2635C35.1397 28.0072 35.8525 27.2944 35.8525 26.4183Z" fill="#CCCCCC"/>
<path d="M3.29381 10.0903C2.93003 10.0903 2.63507 10.3852 2.63507 10.749V22.1698C2.63507 22.5337 2.93003 22.8286 3.29381 22.8286C4.33312 22.8286 5.17871 23.6742 5.17871 24.7135C5.17871 25.0773 5.47367 25.3722 5.83745 25.3722H30.0151C30.3789 25.3722 30.6738 25.0773 30.6738 24.7135C30.6738 23.6742 31.5194 22.8286 32.5588 22.8286C32.9225 22.8286 33.2175 22.5337 33.2175 22.1698V10.749C33.2175 10.3852 32.9225 10.0903 32.5588 10.0903C31.5194 10.0903 30.6738 9.24471 30.6738 8.2054C30.6738 7.84154 30.3789 7.54666 30.0151 7.54666H5.83745C5.47367 7.54666 5.17871 7.84154 5.17871 8.2054C5.17871 9.24471 4.33312 10.0903 3.29381 10.0903V10.0903ZM6.42817 8.86414H29.4245C29.6844 10.1025 30.6617 11.0799 31.9001 11.3398V21.5793C30.6617 21.8392 29.6844 22.8165 29.4245 24.0549H6.42817C6.16827 22.8165 5.19093 21.8392 3.95255 21.5793V11.3398C5.19093 11.0798 6.16827 10.1025 6.42817 8.86414V8.86414Z" fill="#CCCCCC"/>
<path d="M43.411 16.9927H37.8288C37.465 16.9927 37.1701 17.2876 37.1701 17.6514C37.1701 18.0153 37.465 18.3102 37.8288 18.3102H43.411C43.5607 18.3102 43.6825 18.432 43.6825 18.5817V30.4822C43.6825 30.8461 43.9775 31.141 44.3412 31.141C44.705 31.141 45 30.8461 45 30.4822V18.5817C45 17.7055 44.2871 16.9927 43.411 16.9927Z" fill="#CCCCCC"/>
<path d="M44.3413 32.6309C43.9775 32.6309 43.6825 32.9258 43.6825 33.2896V38.4994C43.6825 38.6491 43.5607 38.7708 43.411 38.7708H10.7364C10.5867 38.7708 10.465 38.6491 10.465 38.4994V29.9835C10.465 29.6197 10.17 29.3248 9.80623 29.3248C9.44245 29.3248 9.14749 29.6197 9.14749 29.9835V38.4994C9.14749 39.3756 9.86028 40.0883 10.7364 40.0883H43.411C44.2872 40.0883 45 39.3755 45 38.4994V33.2896C45 32.9259 44.7051 32.6309 44.3413 32.6309Z" fill="#CCCCCC"/>
<path d="M12.4412 29.3247C12.0774 29.3247 11.7825 29.6196 11.7825 29.9834V34.251C11.7825 34.6148 12.0774 34.9097 12.4412 34.9097C13.4805 34.9097 14.3261 35.7553 14.3261 36.7945C14.3261 37.1584 14.6211 37.4533 14.9849 37.4533H39.1625C39.5263 37.4533 39.8212 37.1584 39.8212 36.7945C39.8212 35.7553 40.6668 34.9097 41.7062 34.9097C42.0699 34.9097 42.3649 34.6148 42.3649 34.251V22.8302C42.3649 22.4663 42.0699 22.1715 41.7062 22.1715C40.6668 22.1715 39.8212 21.3259 39.8212 20.2865C39.8212 19.9226 39.5263 19.6277 39.1625 19.6277H37.8288C37.465 19.6277 37.17 19.9226 37.17 20.2865C37.17 20.6503 37.465 20.9452 37.8288 20.9452H38.5719C38.8318 22.1836 39.8091 23.161 41.0475 23.4209V33.6604C39.8092 33.9202 38.8319 34.8977 38.5719 36.1359H15.5756C15.3156 34.8977 14.3382 33.9202 13.1 33.6604V29.9835C13.1 29.6197 12.8051 29.3247 12.4412 29.3247V29.3247Z" fill="#CCCCCC"/>
<path d="M27.0737 34.6763C29.8336 34.6763 32.2676 32.8178 32.9927 30.1567C33.0883 29.8057 32.8814 29.4435 32.5302 29.3479C32.1791 29.2524 31.8171 29.4594 31.7215 29.8104C31.1521 31.8996 29.2409 33.3588 27.0736 33.3588C24.9063 33.3588 22.995 31.8996 22.4256 29.8104C22.33 29.4594 21.9677 29.2524 21.6169 29.3479C21.2658 29.4435 21.0588 29.8057 21.1544 30.1567C21.8798 32.8178 24.3138 34.6763 27.0737 34.6763V34.6763Z" fill="#CCCCCC"/>
<path d="M37.6938 10.6494H38.7386C39.7969 10.6494 40.6579 11.5105 40.6579 12.5688V13.7557L40.2998 13.4198C40.0344 13.171 39.6175 13.1845 39.3687 13.4499C39.1199 13.7153 39.1333 14.1323 39.3987 14.3811L40.8662 15.7568C40.9928 15.8757 41.1548 15.935 41.3167 15.935C41.4786 15.935 41.6406 15.8756 41.7672 15.7568L43.2346 14.3811C43.5001 14.1323 43.5135 13.7154 43.2647 13.4499C43.0159 13.1846 42.5989 13.171 42.3336 13.4198L41.9754 13.7557V12.5688C41.9754 10.784 40.5234 9.33195 38.7386 9.33195H37.6937C37.3299 9.33195 37.0349 9.62683 37.0349 9.99069C37.0349 10.3546 37.33 10.6494 37.6938 10.6494Z" fill="#CCCCCC"/>
<path d="M7.4606 35.1371H6.41584C5.35755 35.1371 4.49648 34.276 4.49648 33.2176V32.0308L4.85464 32.3666C4.98173 32.4857 5.14362 32.5448 5.30508 32.5448C5.48077 32.5448 5.65611 32.4749 5.78575 32.3366C6.03457 32.0712 6.02112 31.6542 5.75569 31.4054L4.28827 30.0297C4.03488 29.7921 3.64061 29.7921 3.38722 30.0297L1.9198 31.4054C1.65437 31.6542 1.64092 32.0711 1.88974 32.3366C2.13856 32.6019 2.55542 32.6154 2.82085 32.3667L3.179 32.0309V33.2177C3.179 35.0025 4.63105 36.4547 6.41584 36.4547H7.46051C7.82429 36.4547 8.11925 36.1598 8.11925 35.7959C8.11934 35.4319 7.82438 35.1371 7.4606 35.1371V35.1371Z" fill="#CCCCCC"/>
<path d="M17.9261 22.5956C14.5426 22.5956 11.7901 19.843 11.7901 16.4595C11.7901 13.0759 14.5427 10.3233 17.9261 10.3233C20.1064 10.3233 22.1413 11.4972 23.2368 13.3867C23.4195 13.7016 23.3121 14.105 22.9972 14.2876C22.6823 14.4702 22.2789 14.3628 22.0963 14.0479C21.2357 12.5636 19.6378 11.6416 17.9261 11.6416C15.2697 11.6416 13.1084 13.8028 13.1084 16.4594C13.1084 19.116 15.2697 21.2771 17.9261 21.2771C20.5807 21.2771 22.7407 19.1189 22.7439 16.4651L22.7432 16.4441C22.7392 16.08 23.0309 15.7816 23.395 15.7775C23.7578 15.7702 24.0574 16.0652 24.0616 16.4292C24.0619 16.4348 24.0622 16.447 24.0622 16.4593C24.0622 19.843 21.3097 22.5956 17.9261 22.5956V22.5956Z" fill="#CCCCCC"/>
</g>
<defs>
<clipPath id="clip0">
<rect width="45" height="45" fill="white"/>
</clipPath>
</defs>
</svg>
