<svg width="800" height="188" viewBox="0 0 800 188" fill="none" xmlns="http://www.w3.org/2000/svg">
<path d="M555.385 0H569.349L491.549 187.518H477.585L555.385 0Z" fill="#E5E5E5" fill-opacity="0.14"/>
<path d="M866.584 0H880.548L802.748 187.518H788.784L866.584 0Z" fill="#E5E5E5" fill-opacity="0.14"/>
<path d="M244.185 0H258.149L180.349 187.518H166.385L244.185 0Z" fill="#E5E5E5" fill-opacity="0.14"/>
<path d="M710.984 0H724.948L647.149 187.518H633.184L710.984 0Z" fill="#E5E5E5" fill-opacity="0.14"/>
<path d="M88.5855 0H102.55L24.7497 187.518H10.7856L88.5855 0Z" fill="#E5E5E5" fill-opacity="0.14"/>
<path d="M399.785 0H413.749L335.949 187.518H321.985L399.785 0Z" fill="#E5E5E5" fill-opacity="0.14"/>
<path d="M633.184 0H647.148L569.349 187.518H555.385L633.184 0Z" fill="#E5E5E5" fill-opacity="0.14"/>
<path d="M10.7857 0H24.7498L-53.0501 187.518H-67.0142L10.7857 0Z" fill="#E5E5E5" fill-opacity="0.14"/>
<path d="M321.985 0H335.949L258.149 187.518H244.185L321.985 0Z" fill="#E5E5E5" fill-opacity="0.14"/>
<path d="M788.784 0H802.748L724.948 187.518H710.984L788.784 0Z" fill="#E5E5E5" fill-opacity="0.14"/>
<path d="M166.385 0H180.349L102.55 187.518H88.5855L166.385 0Z" fill="#E5E5E5" fill-opacity="0.14"/>
<path d="M477.585 0H491.549L413.749 187.518H399.785L477.585 0Z" fill="#E5E5E5" fill-opacity="0.14"/>
<path d="M581.318 0H595.282L517.482 187.518H503.518L581.318 0Z" fill="#E5E5E5" fill-opacity="0.14"/>
<path d="M270.118 0H284.083L206.283 187.518H192.319L270.118 0Z" fill="#E5E5E5" fill-opacity="0.14"/>
<path d="M736.917 0H750.881L673.082 187.518H659.118L736.917 0Z" fill="#E5E5E5" fill-opacity="0.14"/>
<path d="M114.519 0H128.483L50.683 187.518H36.7189L114.519 0Z" fill="#E5E5E5" fill-opacity="0.14"/>
<path d="M425.718 0H439.682L361.882 187.518H347.918L425.718 0Z" fill="#E5E5E5" fill-opacity="0.14"/>
<path d="M659.118 0H673.082L595.282 187.518H581.318L659.118 0Z" fill="#E5E5E5" fill-opacity="0.14"/>
<path d="M36.7189 0H50.683L-27.1169 187.518H-41.0809L36.7189 0Z" fill="#E5E5E5" fill-opacity="0.14"/>
<path d="M347.918 0H361.882L284.082 187.518H270.118L347.918 0Z" fill="#E5E5E5" fill-opacity="0.14"/>
<path d="M814.717 0H828.681L750.882 187.518H736.917L814.717 0Z" fill="#E5E5E5" fill-opacity="0.14"/>
<path d="M192.319 0H206.283L128.483 187.518H114.519L192.319 0Z" fill="#E5E5E5" fill-opacity="0.14"/>
<path d="M503.518 0H517.482L439.682 187.518H425.718L503.518 0Z" fill="#E5E5E5" fill-opacity="0.14"/>
<path d="M607.251 0H621.215L543.415 187.518H529.451L607.251 0Z" fill="#E5E5E5" fill-opacity="0.14"/>
<path d="M296.052 0H310.016L232.216 187.518H218.252L296.052 0Z" fill="#E5E5E5" fill-opacity="0.14"/>
<path d="M762.851 0H776.815L699.015 187.518H685.051L762.851 0Z" fill="#E5E5E5" fill-opacity="0.14"/>
<path d="M140.452 0H154.416L76.6163 187.518H62.6522L140.452 0Z" fill="#E5E5E5" fill-opacity="0.14"/>
<path d="M451.651 0H465.615L387.816 187.518H373.851L451.651 0Z" fill="#E5E5E5" fill-opacity="0.14"/>
<path d="M685.051 0H699.015L621.215 187.518H607.251L685.051 0Z" fill="#E5E5E5" fill-opacity="0.14"/>
<path d="M62.6523 0H76.6163L-1.18351 187.518H-15.1476L62.6523 0Z" fill="#E5E5E5" fill-opacity="0.14"/>
<path d="M373.852 0H387.816L310.016 187.518H296.052L373.852 0Z" fill="#E5E5E5" fill-opacity="0.14"/>
<path d="M840.651 0H854.615L776.815 187.518H762.851L840.651 0Z" fill="#E5E5E5" fill-opacity="0.14"/>
<path d="M218.252 0H232.216L154.416 187.518H140.452L218.252 0Z" fill="#E5E5E5" fill-opacity="0.14"/>
<path d="M529.451 0H543.415L465.616 187.518H451.651L529.451 0Z" fill="#E5E5E5" fill-opacity="0.14"/>
</svg>
