<svg width="831" height="153" viewBox="0 0 831 153" fill="none" xmlns="http://www.w3.org/2000/svg">
<path d="M655.714 69.5364L652.132 71.4115C651.468 71.7583 651.209 72.5861 651.557 73.2498L656.753 83.1786C657.1 83.843 657.927 84.1011 658.591 83.7543L662.172 81.8792C662.84 81.5317 663.1 80.7046 662.746 80.0409L657.553 70.1114C657.205 69.4477 656.378 69.1889 655.714 69.5364Z" fill="#F8F8F8"/>
<path d="M672.505 62.2371L672.291 62.3499C673.339 61.8002 673.746 60.4928 673.199 59.4429C672.652 58.3937 671.344 57.9848 670.29 58.5338L664.174 61.7369C664.307 60.1527 664.334 57.7213 663.527 56.1725C662.246 53.7191 660.185 53.0594 659.228 53.3623C658.27 53.6651 657.873 54.4689 658.007 55.3407C658.141 56.2131 659.322 57.3805 659.412 57.9728C659.548 58.8833 658.738 60.6236 658.136 63.9287C657.599 66.8817 659.129 69.237 659.129 69.237L660.905 72.6249L662.673 76.0127L663.5 77.5889C663.84 78.2426 664.654 78.4974 665.308 78.1552L676.681 72.2046C677.441 71.8071 677.734 70.8599 677.341 70.0995C676.941 69.3391 675.993 69.0429 675.233 69.4405L675.426 69.3384C676.36 68.8508 676.721 67.6901 676.234 66.759C675.747 65.8271 674.586 65.4636 673.652 65.9512L674.279 65.625C675.206 65.1374 675.573 63.9761 675.086 63.0449C674.599 62.1131 673.432 61.7502 672.505 62.2371Z" fill="#F8F8F8"/>
<path d="M531.75 52.8019L528.168 54.6762C527.504 55.0238 527.245 55.8515 527.593 56.5146L532.789 66.444C533.136 67.1077 533.964 67.3672 534.628 67.0197L538.21 65.1447C538.874 64.7971 539.133 63.9694 538.785 63.3057L533.589 53.3768C533.241 52.7132 532.414 52.4543 531.75 52.8019Z" fill="#F8F8F8"/>
<path d="M548.54 45.5026L548.326 45.6146C549.375 45.0657 549.784 43.7576 549.235 42.7084C548.686 41.6591 547.378 41.2496 546.329 41.7985L540.209 45.0023C540.341 43.4181 540.373 40.9861 539.562 39.4379C538.278 36.9846 536.222 36.3248 535.265 36.6277C534.307 36.9305 533.909 37.7336 534.043 38.6061C534.177 39.4779 535.359 40.6459 535.447 41.2376C535.583 42.1487 534.774 43.8884 534.172 47.1935C533.634 50.1472 535.165 52.5024 535.165 52.5024L536.938 55.8896L538.71 59.2775L539.536 60.8544C539.878 61.5081 540.692 61.7622 541.345 61.4207L552.715 55.4701C553.475 55.0725 553.771 54.1247 553.373 53.3642C552.976 52.6045 552.028 52.3077 551.268 52.7059L551.462 52.6038C552.394 52.1162 552.757 50.9549 552.27 50.0237C551.782 49.0925 550.621 48.7283 549.69 49.2166L550.312 48.8905C551.244 48.4029 551.608 47.2415 551.12 46.3104C550.632 45.3785 549.472 45.015 548.54 45.5026Z" fill="#F8F8F8"/>
<path d="M698.579 87.7965L696.138 84.5714C695.691 83.9744 694.83 83.855 694.23 84.3073L685.292 91.0663C684.698 91.5186 684.578 92.3771 685.032 92.9747L687.466 96.1998C687.92 96.7975 688.78 96.9162 689.374 96.4646L698.312 89.7049C698.913 89.2533 699.033 88.3942 698.579 87.7965Z" fill="#F8F8F8"/>
<path d="M708.545 103.156L708.398 102.964C709.112 103.908 710.466 104.096 711.413 103.382C712.36 102.667 712.547 101.311 711.833 100.365L707.664 94.8557C709.245 94.727 711.653 94.3568 713.047 93.3029C715.255 91.6326 715.569 89.4961 715.108 88.6016C714.655 87.7065 713.794 87.4463 712.96 87.7218C712.12 87.998 711.159 89.3554 710.593 89.5408C709.719 89.825 707.871 89.3127 704.509 89.2627C701.507 89.2186 699.433 91.1157 699.433 91.1157L696.385 93.4223L693.336 95.7282L691.916 96.8015C691.329 97.2464 691.209 98.0915 691.655 98.6792L699.4 108.915C699.913 109.599 700.901 109.736 701.581 109.218C702.268 108.7 702.401 107.717 701.888 107.032L702.021 107.208C702.655 108.046 703.856 108.214 704.696 107.579C705.536 106.945 705.703 105.74 705.069 104.902L705.49 105.462C706.123 106.301 707.331 106.468 708.171 105.834C709.005 105.2 709.178 103.995 708.545 103.156Z" fill="#F8F8F8"/>
<path d="M447.397 82.9065L444.958 79.6813C444.506 79.0837 443.647 78.965 443.05 79.4165L434.111 86.1763C433.514 86.6285 433.394 87.487 433.847 88.0846L436.285 91.3098C436.737 91.9068 437.596 92.0262 438.193 91.5746L447.132 84.8148C447.729 84.3633 447.849 83.5041 447.397 82.9065Z" fill="#F8F8F8"/>
<path d="M457.36 98.2656L457.214 98.0728C457.927 99.018 459.285 99.2061 460.231 98.4917C461.175 97.7773 461.363 96.4199 460.649 95.4754L456.482 89.9657C458.066 89.8362 460.47 89.4667 461.864 88.4128C464.072 86.7425 464.385 84.6054 463.929 83.7109C463.472 82.8157 462.615 82.5562 461.776 82.8317C460.938 83.1072 459.981 84.4653 459.411 84.6501C458.536 84.9349 456.686 84.4219 453.327 84.3726C450.325 84.3286 448.253 86.2256 448.253 86.2256L445.204 88.5315L442.155 90.8381L440.735 91.9114C440.147 92.3556 440.029 93.2008 440.474 93.7884L448.215 104.024C448.732 104.708 449.716 104.845 450.4 104.328C451.085 103.81 451.222 102.827 450.703 102.142L450.837 102.318C451.47 103.156 452.675 103.323 453.514 102.689C454.353 102.055 454.52 100.85 453.886 100.011L454.31 100.572C454.944 101.411 456.149 101.578 456.987 100.944C457.826 100.309 457.993 99.1047 457.36 98.2656Z" fill="#F8F8F8"/>
<path d="M791.184 78.6315L788.749 75.4064C788.295 74.8087 787.435 74.69 786.841 75.1416L777.903 81.9013C777.303 82.3536 777.183 83.212 777.636 83.8097L780.077 87.0341C780.524 87.6318 781.385 87.7512 781.985 87.2989L790.923 80.5399C791.517 80.0876 791.637 79.2292 791.184 78.6315Z" fill="#F8F8F8"/>
<path d="M801.149 93.9913L801.002 93.7985C801.716 94.7431 803.077 94.9312 804.017 94.2168C804.965 93.5024 805.151 92.1456 804.438 91.2005L800.269 85.6908C801.856 85.5614 804.257 85.1918 805.652 84.1379C807.859 82.4677 808.173 80.3305 807.719 79.436C807.259 78.5408 806.405 78.2807 805.565 78.5568C804.724 78.8323 803.77 80.1904 803.204 80.3752C802.323 80.66 800.475 80.1477 797.114 80.0977C794.112 80.0537 792.044 81.9507 792.044 81.9507L788.996 84.2566L785.947 86.5626L784.527 87.6365C783.94 88.0814 783.819 88.9259 784.266 89.5142L792.004 99.7492C792.524 100.434 793.505 100.57 794.192 100.053C794.872 99.535 795.012 98.5518 794.492 97.8675L794.625 98.0422C795.259 98.8814 796.466 99.0488 797.3 98.4144C798.141 97.7801 798.307 96.5747 797.674 95.7363L798.101 96.2973C798.734 97.1357 799.935 97.3031 800.775 96.6688C801.616 96.0351 801.783 94.8298 801.149 93.9913Z" fill="#F8F8F8"/>
<path d="M745.665 67.9677L742.023 69.722C741.343 70.0475 741.062 70.866 741.383 71.5403L746.245 81.6372C746.572 82.3123 747.393 82.5984 748.066 82.2736L751.708 80.5193C752.382 80.1944 752.669 79.3753 752.342 78.7003L747.479 68.604C747.159 67.929 746.339 67.6428 745.665 67.9677Z" fill="#F8F8F8"/>
<path d="M762.688 61.2319L762.468 61.3366C763.535 60.823 763.989 59.5296 763.475 58.4624C762.961 57.3951 761.667 56.9429 760.6 57.4571L754.377 60.4541C754.563 58.8753 754.677 56.4459 753.916 54.871C752.716 52.377 750.681 51.6493 749.714 51.9194C748.747 52.1902 748.32 52.98 748.427 53.8565C748.533 54.733 749.674 55.939 749.741 56.5333C749.847 57.4485 748.98 59.1601 748.273 62.4439C747.633 65.3775 749.087 67.7828 749.087 67.7828L750.748 71.2274L752.402 74.672L753.176 76.2755C753.496 76.9392 754.303 77.2214 754.964 76.9012L766.53 71.3328C767.304 70.9606 767.631 70.0234 767.257 69.2503C766.883 68.4772 765.943 68.1497 765.176 68.5219L765.369 68.4265C766.317 67.9703 766.723 66.8216 766.263 65.8744C765.81 64.9272 764.662 64.5257 763.715 64.982L764.349 64.6764C765.296 64.2202 765.696 63.0722 765.236 62.125C764.782 61.1779 763.635 60.7757 762.688 61.2319Z" fill="#F8F8F8"/>
<path d="M352.042 87.0481L348.399 88.8024C347.724 89.1279 347.438 89.9464 347.763 90.6208L352.625 100.718C352.951 101.393 353.769 101.679 354.444 101.354L358.087 99.5997C358.761 99.2742 359.048 98.4557 358.723 97.7807L353.861 87.6845C353.535 87.0094 352.717 86.7233 352.042 87.0481Z" fill="#F8F8F8"/>
<path d="M369.065 80.3124L368.848 80.4171C369.914 79.9035 370.367 78.6101 369.853 77.5428C369.339 76.4756 368.045 76.0233 366.978 76.5369L360.755 79.5346C360.94 77.9557 361.053 75.5264 360.294 73.9515C359.093 71.4575 357.06 70.7298 356.092 70.9999C355.125 71.2707 354.701 72.0605 354.806 72.937C354.91 73.8134 356.053 75.0194 356.122 75.6138C356.229 76.5289 355.361 78.2405 354.649 81.5244C354.013 84.458 355.464 86.8633 355.464 86.8633L357.123 90.3079L358.783 93.7524L359.555 95.356C359.875 96.0203 360.68 96.3018 361.344 95.9817L372.906 90.4133C373.679 90.041 374.006 89.1039 373.634 88.3308C373.262 87.5583 372.324 87.2295 371.552 87.6024L371.75 87.507C372.697 87.0507 373.099 85.9028 372.642 84.9549C372.186 84.0077 371.038 83.6062 370.091 84.0624L370.724 83.7569C371.671 83.3007 372.073 82.1527 371.617 81.2055C371.161 80.2583 370.013 79.8561 369.065 80.3124Z" fill="#F8F8F8"/>
<path d="M568.51 84.7389L564.867 86.4938C564.192 86.8187 563.906 87.6371 564.232 88.3121L569.094 98.409C569.419 99.0834 570.237 99.3702 570.912 99.0447L574.555 97.2904C575.231 96.9656 575.517 96.1471 575.191 95.4721L570.328 85.3759C570.004 84.7001 569.185 84.414 568.51 84.7389Z" fill="#F8F8F8"/>
<path d="M585.534 78.0038L585.316 78.1085C586.383 77.5942 586.836 76.3015 586.322 75.2336C585.808 74.167 584.514 73.7147 583.447 74.2284L577.224 77.2253C577.409 75.6471 577.521 73.2171 576.763 71.6429C575.561 69.1482 573.528 68.4205 572.561 68.6913C571.594 68.9621 571.17 69.7519 571.274 70.6277C571.379 71.5042 572.522 72.7102 572.59 73.3045C572.697 74.2197 571.829 75.932 571.118 79.2151C570.483 82.1487 571.933 84.554 571.933 84.554L573.592 87.9986L575.251 91.4432L576.023 93.0467C576.344 93.7111 577.149 93.9932 577.813 93.6731L589.374 88.1047C590.147 87.7325 590.475 86.7953 590.103 86.0222C589.731 85.2491 588.793 84.9209 588.02 85.2938L588.218 85.1977C589.165 84.7415 589.567 83.5935 589.111 82.6463C588.655 81.6991 587.506 81.2969 586.559 81.7532L587.193 81.4483C588.14 80.9921 588.542 79.8434 588.085 78.8963C587.629 77.9491 586.481 77.5475 585.534 78.0038Z" fill="#F8F8F8"/>
<path d="M702.641 51.8334L698.873 50.3707C698.172 50.0998 697.378 50.4494 697.112 51.1477L693.056 61.5955C692.783 62.2939 693.136 63.0877 693.836 63.3585L697.605 64.8206C698.299 65.0921 699.093 64.7419 699.366 64.0435L703.422 53.5958C703.689 52.8974 703.342 52.1043 702.641 51.8334Z" fill="#F8F8F8"/>
<path d="M719.191 59.6677L718.964 59.5803C720.071 60.0086 721.318 59.4563 721.752 58.3516C722.179 57.2477 721.625 55.9937 720.525 55.5654L714.081 53.0667C715.362 52.1235 717.216 50.5467 717.843 48.9171C718.844 46.3364 717.99 44.3533 717.129 43.8316C716.276 43.31 715.409 43.5395 714.835 44.2152C714.268 44.8895 714.168 46.5485 713.781 47.0047C713.187 47.7071 711.34 48.2427 708.458 49.965C705.883 51.5045 705.116 54.2067 705.116 54.2067L703.735 57.7713L702.348 61.336L701.708 62.9949C701.441 63.6826 701.781 64.463 702.468 64.7298L714.435 69.3717C715.235 69.6826 716.142 69.2817 716.449 68.4819C716.763 67.6815 716.362 66.773 715.562 66.4628L715.769 66.5422C716.749 66.923 717.863 66.4321 718.243 65.4522C718.624 64.4717 718.13 63.3584 717.149 62.9782L717.803 63.2323C718.784 63.6125 719.898 63.1216 720.278 62.1417C720.658 61.1612 720.171 60.0479 719.191 59.6677Z" fill="#F8F8F8"/>
<path d="M468.514 47.9685L464.744 46.5064C464.045 46.2356 463.252 46.5851 462.981 47.2835L458.927 57.7313C458.656 58.4296 459.007 59.2234 459.704 59.4942L463.474 60.9563C464.173 61.2278 464.966 60.8776 465.237 60.1793L469.291 49.7315C469.562 49.0331 469.211 48.24 468.514 47.9685Z" fill="#F8F8F8"/>
<path d="M485.06 55.8036L484.834 55.7162C485.939 56.1445 487.192 55.5915 487.621 54.4875C488.05 53.3836 487.497 52.1296 486.392 51.7013L479.953 49.2026C481.233 48.2594 483.084 46.6826 483.716 45.053C484.717 42.4716 483.86 40.4892 483.002 39.9676C482.144 39.4459 481.277 39.6761 480.709 40.3504C480.14 41.0255 480.039 42.6844 479.653 43.14C479.056 43.8424 477.213 44.3786 474.329 46.1009C471.752 47.6404 470.986 50.3426 470.986 50.3426L469.603 53.9072L468.22 57.4712L467.577 59.1308C467.31 59.8185 467.653 60.5989 468.342 60.8651L480.304 65.5076C481.105 65.8178 482.013 65.4176 482.323 64.6172C482.634 63.8174 482.233 62.9089 481.434 62.5987L481.638 62.6781C482.618 63.0589 483.731 62.568 484.112 61.5875C484.493 60.6076 484.002 59.4943 483.022 59.1141L483.677 59.3683C484.657 59.7485 485.771 59.2575 486.151 58.2777C486.531 57.2971 486.04 56.1838 485.06 55.8036Z" fill="#F8F8F8"/>
<path d="M636.554 31.0099L631.434 33.6893C630.486 34.1863 630.115 35.3689 630.612 36.3174L638.038 50.5079C638.535 51.4571 639.718 51.8273 640.667 51.331L645.787 48.6509C646.735 48.1546 647.105 46.972 646.609 46.0235L639.182 31.8323C638.686 30.8838 637.503 30.5136 636.554 31.0099Z" fill="#F8F8F8"/>
<path d="M660.551 20.5781L660.245 20.7382C661.746 19.9531 662.333 18.0841 661.545 16.5846C660.758 15.0844 658.89 14.4995 657.391 15.2846L648.643 19.8624C648.833 17.5985 648.878 14.1233 647.72 11.9094C645.885 8.4041 642.945 7.46025 641.576 7.89316C640.208 8.32607 639.639 9.47469 639.831 10.7214C640.023 11.9674 641.712 13.637 641.838 14.4821C642.033 15.7842 640.876 18.2709 640.016 22.9955C639.247 27.2165 641.435 30.583 641.435 30.583L643.968 35.4243L646.502 40.2656L647.682 42.5196C648.17 43.4534 649.334 43.8176 650.268 43.3287L666.515 34.8247C667.602 34.2557 668.029 32.9016 667.462 31.815C666.888 30.7284 665.534 30.3042 664.447 30.8731L664.727 30.7271C666.061 30.0307 666.582 28.3711 665.881 27.0397C665.187 25.7083 663.527 25.1887 662.193 25.8857L663.086 25.4195C664.414 24.7231 664.934 23.0635 664.24 21.7314C663.54 20.4007 661.886 19.8818 660.551 20.5781Z" fill="#F8F8F8"/>
<path d="M568.496 17.7759L563.043 15.8642C562.033 15.5093 560.916 16.0469 560.562 17.0575L555.262 32.1718C554.908 33.183 555.445 34.2996 556.455 34.6538L561.909 36.5656C562.919 36.9198 564.036 36.3828 564.391 35.3722L569.689 20.2579C570.044 19.2474 569.507 18.1301 568.496 17.7759Z" fill="#F8F8F8"/>
<path d="M592.501 28.1891L592.175 28.0743C593.773 28.6346 595.538 27.7862 596.098 26.1886C596.658 24.5911 595.809 22.8261 594.212 22.2658L584.895 18.9993C586.68 17.5926 589.249 15.2526 590.076 12.8946C591.385 9.16058 590.067 6.36905 588.817 5.66399C587.566 4.95961 586.339 5.32848 585.559 6.31969C584.778 7.31024 584.712 9.68421 584.181 10.3539C583.362 11.3858 580.756 12.2369 576.716 14.8337C573.107 17.1536 572.141 21.0505 572.141 21.0505L570.332 26.2073L568.525 31.3642L567.682 33.7648C567.334 34.7593 567.863 35.8579 568.857 36.2061L586.165 42.2742C587.323 42.6804 588.601 42.0654 589.007 40.9081C589.413 39.7508 588.798 38.4714 587.64 38.0658L587.937 38.1699C589.355 38.6668 590.922 37.9137 591.419 36.4956C591.916 35.0775 591.163 33.5106 589.745 33.013L590.693 33.3459C592.111 33.8428 593.679 33.0891 594.176 31.6716C594.673 30.2535 593.919 28.686 592.501 28.1891Z" fill="#F8F8F8"/>
<path d="M424.383 22.4305L418.93 20.5187C417.919 20.1646 416.802 20.7022 416.448 21.7121L411.149 36.8271C410.794 37.8376 411.331 38.9543 412.342 39.3091L417.794 41.2208C418.806 41.575 419.922 41.0381 420.277 40.0275L425.575 24.9125C425.93 23.902 425.393 22.7853 424.383 22.4305Z" fill="#F8F8F8"/>
<path d="M448.388 32.8436L448.061 32.7295C449.659 33.2899 451.424 32.4414 451.984 30.8432C452.544 29.2463 451.696 27.4807 450.098 26.9204L440.781 23.6539C442.565 22.2471 445.136 19.9078 445.962 17.5499C447.271 13.8158 445.953 11.0243 444.703 10.3192C443.453 9.61483 442.225 9.98302 441.445 10.9742C440.665 11.9654 440.598 14.3394 440.067 15.0084C439.249 16.0404 436.642 16.8922 432.603 19.4883C428.993 21.8089 428.027 25.705 428.027 25.705L426.218 30.8618L424.411 36.0194L423.57 38.4194C423.221 39.4139 423.749 40.5125 424.743 40.8614L442.052 46.93C443.209 47.3349 444.487 46.7206 444.893 45.5626C445.299 44.406 444.684 43.1266 443.527 42.7211L443.824 42.8251C445.242 43.3221 446.808 42.569 447.306 41.1508C447.803 39.7327 447.049 38.1652 445.631 37.6676L446.58 38.0004C447.998 38.4981 449.565 37.7443 450.062 36.3262C450.559 34.9081 449.806 33.3412 448.388 32.8436Z" fill="#F8F8F8"/>
<path d="M702.021 6.19426L699.159 1.17215C698.633 0.241642 697.438 -0.0865345 696.505 0.442423L682.584 8.36414C681.65 8.89376 681.323 10.0884 681.857 11.0196L684.711 16.0417C685.245 16.9729 686.439 17.301 687.366 16.7708L701.287 8.84972C702.221 8.32077 702.548 7.12544 702.021 6.19426Z" fill="#F8F8F8"/>
<path d="M713.287 29.8098L713.114 29.5096C713.954 30.9804 715.842 31.4994 717.316 30.6623C718.784 29.8251 719.304 27.9361 718.47 26.4646L713.581 17.8839C715.855 17.9946 719.33 17.9172 721.498 16.6812C724.94 14.7248 725.781 11.7538 725.3 10.4011C724.814 9.04835 723.646 8.52073 722.412 8.75553C721.172 8.99099 719.564 10.7386 718.724 10.8947C717.429 11.1355 714.901 10.0662 710.152 9.37185C705.903 8.75284 702.615 11.0574 702.615 11.0574L697.865 13.7596L693.116 16.4618L690.908 17.7205C689.988 18.2414 689.668 19.4167 690.188 20.3325L699.259 36.274C699.866 37.3393 701.234 37.7155 702.301 37.1091C703.368 36.5028 703.742 35.1341 703.135 34.0681L703.288 34.3409C704.035 35.647 705.71 36.1079 707.017 35.3642C708.324 34.6218 708.785 32.9448 708.044 31.6381L708.538 32.5119C709.278 33.818 710.959 34.2789 712.267 33.5358C713.567 32.7921 714.028 31.1158 713.287 29.8098Z" fill="#F8F8F8"/>
<path d="M368.045 16.2731L365.187 11.2503C364.658 10.3198 363.462 9.99161 362.533 10.5212L348.612 18.4423C347.68 18.9726 347.352 20.1672 347.882 21.0977L350.739 26.1205C351.269 27.051 352.464 27.3792 353.395 26.8496L367.316 18.9285C368.246 18.3989 368.575 17.2036 368.045 16.2731Z" fill="#F8F8F8"/>
<path d="M379.315 39.8881L379.144 39.5879C379.981 41.0587 381.869 41.5784 383.341 40.7406C384.812 39.9041 385.331 38.015 384.494 36.5442L379.611 27.9628C381.881 28.0729 385.356 27.9955 387.526 26.7602C390.966 24.8031 391.805 21.8328 391.325 20.4794C390.844 19.1273 389.676 18.5997 388.438 18.8345C387.198 19.0699 385.589 20.8169 384.749 20.973C383.454 21.2138 380.929 20.1445 376.178 19.4515C371.932 18.8318 368.644 21.1357 368.644 21.1357L363.895 23.8386L359.145 26.5407L356.934 27.7988C356.018 28.3204 355.696 29.4957 356.217 30.4109L365.288 46.3523C365.894 47.4182 367.262 47.7944 368.328 47.1874C369.394 46.5811 369.769 45.213 369.163 44.1464L369.319 44.4199C370.062 45.7253 371.738 46.1862 373.044 45.4431C374.351 44.7001 374.811 43.0232 374.068 41.7171L374.565 42.5909C375.308 43.897 376.985 44.3572 378.291 43.6141C379.597 42.8711 380.058 41.1942 379.315 39.8881Z" fill="#F8F8F8"/>
<path d="M768.864 35.5651L771.679 40.6125C772.2 41.5477 773.394 41.8865 774.327 41.3649L788.315 33.5673C789.249 33.0457 789.589 31.8537 789.069 30.9185L786.254 25.8704C785.734 24.9352 784.54 24.5963 783.606 25.118L769.618 32.9163C768.684 33.4372 768.344 34.6292 768.864 35.5651Z" fill="#F8F8F8"/>
<path d="M757.805 11.8512L757.972 12.1527C757.145 10.6745 755.264 10.1389 753.783 10.9627C752.309 11.7872 751.769 13.6709 752.596 15.1497L757.405 23.7731C755.13 23.643 751.655 23.6897 749.474 24.9064C746.019 26.8328 745.152 29.7957 745.625 31.1531C746.092 32.5099 747.253 33.0475 748.493 32.8234C749.734 32.5993 751.362 30.8663 752.202 30.7169C753.496 30.4881 756.018 31.5794 760.76 32.3151C765.003 32.9721 768.311 30.6969 768.311 30.6969L773.08 28.0368L777.856 25.376L780.077 24.1373C780.998 23.6243 781.331 22.4517 780.818 21.5312L771.886 5.51103C771.293 4.43977 769.925 4.05156 768.851 4.64923C767.784 5.24622 767.397 6.61095 767.991 7.68221L767.837 7.40807C767.11 6.09535 765.436 5.61976 764.122 6.3515C762.808 7.08323 762.334 8.75614 763.068 10.0682L762.574 9.1904C761.847 7.87768 760.173 7.40274 758.859 8.13448C757.545 8.86555 757.071 10.5385 757.805 11.8512Z" fill="#F8F8F8"/>
<path d="M505.385 31.196L508.199 36.2441C508.72 37.1793 509.912 37.5175 510.847 36.9966L524.837 29.1982C525.773 28.6766 526.112 27.4846 525.591 26.5495L522.777 21.502C522.256 20.5668 521.064 20.228 520.128 20.7496L506.138 28.5472C505.203 29.0689 504.864 30.2608 505.385 31.196Z" fill="#F8F8F8"/>
<path d="M494.325 7.48284L494.493 7.78434C493.668 6.30619 491.785 5.77054 490.306 6.59433C488.828 7.41878 488.292 9.30248 489.116 10.7813L493.923 19.4047C491.654 19.2747 488.179 19.3213 485.997 20.538C482.541 22.4644 481.676 25.4274 482.144 26.7841C482.613 28.1409 483.775 28.6792 485.017 28.455C486.258 28.2309 487.882 26.498 488.724 26.3492C490.021 26.1198 492.537 27.211 497.282 27.9468C501.522 28.6038 504.83 26.3285 504.83 26.3285L509.602 23.6677L514.375 21.0076L516.598 19.7689C517.518 19.256 517.851 18.0833 517.339 17.1628L508.408 1.14266C507.812 0.0713997 506.447 -0.316793 505.375 0.280203C504.305 0.877865 503.917 2.24261 504.513 3.31387L504.361 3.03905C503.628 1.72699 501.956 1.25139 500.643 1.98313C499.331 2.71486 498.856 4.38713 499.587 5.69985L499.098 4.82203C498.366 3.5093 496.694 3.03439 495.381 3.76546C494.069 4.49719 493.593 6.17011 494.325 7.48284Z" fill="#F8F8F8"/>
<path d="M618.313 85.6013L614.946 85.3412C614.322 85.2931 613.772 85.7647 613.724 86.3884L613.004 95.7182C612.955 96.3426 613.427 96.8922 614.051 96.9402L617.416 97.2004C618.041 97.2484 618.59 96.7775 618.638 96.1538L619.359 86.8233C619.407 86.1996 618.936 85.6493 618.313 85.6013Z" fill="#F8F8F8"/>
<path d="M633.431 87.8731L633.23 87.8577C634.216 87.9338 635.085 87.1894 635.162 86.2028C635.238 85.2169 634.493 84.3478 633.507 84.2718L627.755 83.8275C628.551 82.7649 629.651 81.0573 629.763 79.6025C629.941 77.2973 628.777 75.9191 627.966 75.709C627.154 75.4989 626.516 75.8918 626.225 76.5688C625.933 77.2452 626.252 78.596 626.053 79.0536C625.746 79.7593 624.402 80.6318 622.512 82.7049C620.822 84.5572 620.862 86.9025 620.862 86.9025L620.616 90.0856L620.371 93.2694L620.256 94.7509C620.209 95.3652 620.672 95.9062 621.286 95.9529L631.97 96.7786C632.685 96.8333 633.315 96.2944 633.37 95.58C633.425 94.8656 632.885 94.2352 632.171 94.1805L632.354 94.1946C633.229 94.2619 634.001 93.6016 634.068 92.7257C634.136 91.8506 633.475 91.0788 632.6 91.0115L633.185 91.0562C634.06 91.1242 634.832 90.4632 634.9 89.588C634.967 88.7129 634.306 87.9404 633.431 87.8731Z" fill="#F8F8F8"/>
<path d="M585.95 121.469L583.8 122.63C583.401 122.845 583.251 123.348 583.466 123.746L586.684 129.708C586.899 130.107 587.401 130.257 587.8 130.042L589.951 128.88C590.35 128.666 590.5 128.163 590.284 127.764L587.066 121.803C586.852 121.404 586.349 121.254 585.95 121.469Z" fill="#F8F8F8"/>
<path d="M596.043 116.928L595.915 116.997C596.545 116.657 596.782 115.863 596.442 115.233C596.102 114.603 595.308 114.366 594.678 114.706L591.003 116.689C591.071 115.73 591.072 114.26 590.57 113.33C589.775 111.858 588.526 111.475 587.949 111.666C587.373 111.856 587.139 112.345 587.226 112.871C587.314 113.397 588.038 114.094 588.096 114.45C588.186 115 587.71 116.059 587.371 118.061C587.07 119.85 588.013 121.262 588.013 121.262L589.11 123.296L590.208 125.33L590.72 126.277C590.931 126.669 591.425 126.817 591.817 126.605L598.644 122.92C599.1 122.674 599.272 122.099 599.026 121.642C598.78 121.186 598.205 121.014 597.748 121.26L597.865 121.197C598.424 120.895 598.635 120.191 598.333 119.632C598.031 119.072 597.327 118.862 596.767 119.163L597.141 118.962C597.7 118.66 597.912 117.955 597.61 117.395C597.307 116.836 596.603 116.626 596.043 116.928Z" fill="#F8F8F8"/>
<path d="M651.124 108.268L648.788 107.55C648.355 107.417 647.891 107.663 647.759 108.096L645.768 114.571C645.635 115.004 645.881 115.467 646.313 115.6L648.65 116.318C649.083 116.452 649.546 116.206 649.679 115.773L651.67 109.298C651.803 108.865 651.557 108.401 651.124 108.268Z" fill="#F8F8F8"/>
<path d="M661.439 112.273L661.299 112.231C661.986 112.441 662.719 112.053 662.926 111.369C663.14 110.684 662.753 109.952 662.066 109.742L658.075 108.515C658.806 107.891 659.854 106.86 660.164 105.849C660.658 104.25 660.053 103.092 659.512 102.814C658.973 102.537 658.46 102.713 658.146 103.145C657.833 103.577 657.844 104.581 657.631 104.873C657.302 105.322 656.214 105.725 654.55 106.89C653.062 107.93 652.718 109.592 652.718 109.592L652.039 111.802L651.36 114.011L651.044 115.04C650.914 115.465 651.154 115.921 651.581 116.052L658.996 118.331C659.492 118.484 660.022 118.203 660.175 117.707C660.327 117.212 660.046 116.681 659.55 116.528L659.677 116.567C660.285 116.754 660.932 116.41 661.118 115.802C661.305 115.195 660.965 114.545 660.356 114.358L660.765 114.483C661.372 114.669 662.019 114.325 662.206 113.718C662.393 113.111 662.052 112.46 661.439 112.273Z" fill="#F8F8F8"/>
<path d="M360.903 116.114L358.566 115.396C358.134 115.263 357.671 115.509 357.537 115.941L355.547 122.417C355.414 122.851 355.66 123.313 356.092 123.446L358.428 124.165C358.862 124.298 359.325 124.052 359.458 123.62L361.449 117.143C361.581 116.711 361.336 116.248 360.903 116.114Z" fill="#F8F8F8"/>
<path d="M371.221 120.119L371.081 120.077C371.766 120.286 372.498 119.899 372.708 119.214C372.918 118.53 372.53 117.798 371.846 117.588L367.854 116.361C368.585 115.737 369.633 114.705 369.943 113.695C370.434 112.096 369.832 110.937 369.292 110.66C368.751 110.383 368.238 110.559 367.926 110.991C367.612 111.422 367.623 112.427 367.41 112.719C367.081 113.168 365.993 113.571 364.329 114.735C362.842 115.775 362.497 117.438 362.497 117.438L361.818 119.647L361.139 121.857L360.823 122.885C360.692 123.311 360.933 123.767 361.359 123.898L368.775 126.178C369.27 126.33 369.801 126.049 369.953 125.553C370.106 125.057 369.825 124.527 369.329 124.374L369.457 124.413C370.064 124.6 370.713 124.256 370.901 123.648C371.087 123.041 370.743 122.391 370.135 122.203L370.542 122.329C371.149 122.516 371.798 122.171 371.986 121.564C372.173 120.956 371.828 120.306 371.221 120.119Z" fill="#F8F8F8"/>
<path d="M625.323 134.263L623.599 133.734C623.279 133.635 622.937 133.816 622.839 134.136L621.37 138.915C621.271 139.234 621.453 139.576 621.772 139.674L623.496 140.204C623.816 140.303 624.158 140.121 624.256 139.802L625.725 135.023C625.823 134.704 625.642 134.361 625.323 134.263Z" fill="#F8F8F8"/>
<path d="M632.937 137.219L632.833 137.187C633.339 137.342 633.879 137.056 634.034 136.551C634.189 136.046 633.903 135.506 633.398 135.351L630.452 134.446C630.992 133.985 631.765 133.224 631.993 132.478C632.357 131.298 631.911 130.443 631.514 130.239C631.115 130.034 630.737 130.164 630.505 130.483C630.274 130.801 630.282 131.542 630.124 131.757C629.881 132.09 629.078 132.387 627.851 133.246C626.753 134.013 626.499 135.241 626.499 135.241L625.998 136.871L625.496 138.501L625.264 139.26C625.167 139.574 625.345 139.911 625.659 140.007L631.131 141.69C631.498 141.802 631.888 141.595 632.001 141.229C632.114 140.863 631.906 140.472 631.541 140.359L631.634 140.388C632.083 140.526 632.562 140.271 632.7 139.823C632.838 139.375 632.584 138.895 632.135 138.757L632.435 138.85C632.884 138.987 633.363 138.733 633.501 138.285C633.639 137.837 633.385 137.357 632.937 137.219Z" fill="#F8F8F8"/>
<path d="M543.847 145.914L542.189 146.623C541.881 146.754 541.737 147.113 541.869 147.421L543.833 152.018C543.965 152.325 544.323 152.469 544.631 152.338L546.289 151.629C546.597 151.498 546.741 151.139 546.61 150.831L544.645 146.234C544.514 145.927 544.155 145.782 543.847 145.914Z" fill="#F8F8F8"/>
<path d="M551.569 143.254L551.471 143.296C551.956 143.089 552.184 142.521 551.977 142.035C551.769 141.549 551.201 141.322 550.716 141.529L547.882 142.74C547.996 142.04 548.095 140.96 547.788 140.243C547.303 139.107 546.411 138.742 545.974 138.843C545.538 138.944 545.334 139.288 545.362 139.68C545.391 140.073 545.877 140.634 545.895 140.9C545.924 141.31 545.504 142.056 545.121 143.505C544.778 144.799 545.377 145.9 545.377 145.9L546.047 147.469L546.718 149.038L547.03 149.767C547.158 150.07 547.511 150.212 547.814 150.082L553.079 147.833C553.431 147.682 553.595 147.271 553.445 146.919C553.294 146.567 552.884 146.402 552.532 146.552L552.621 146.514C553.053 146.329 553.255 145.826 553.071 145.395C552.887 144.963 552.383 144.761 551.951 144.945L552.24 144.823C552.671 144.638 552.874 144.134 552.689 143.703C552.505 143.272 552.001 143.07 551.569 143.254Z" fill="#F8F8F8"/>
<path d="M454.851 137.87L453.193 138.579C452.885 138.711 452.741 139.069 452.872 139.377L454.837 143.974C454.968 144.282 455.327 144.425 455.635 144.294L457.294 143.585C457.601 143.454 457.745 143.095 457.614 142.787L455.649 138.19C455.517 137.883 455.158 137.739 454.851 137.87Z" fill="#F8F8F8"/>
<path d="M462.573 135.21L462.474 135.253C462.96 135.045 463.187 134.477 462.981 133.991C462.773 133.506 462.205 133.278 461.719 133.486L458.886 134.696C459 133.997 459.099 132.916 458.792 132.199C458.307 131.063 457.416 130.698 456.979 130.799C456.542 130.9 456.338 131.244 456.367 131.637C456.396 132.029 456.881 132.59 456.899 132.856C456.928 133.266 456.508 134.011 456.124 135.461C455.782 136.755 456.38 137.856 456.38 137.856L457.051 139.425L457.721 140.993L458.033 141.724C458.162 142.026 458.516 142.168 458.818 142.038L464.083 139.788C464.434 139.638 464.599 139.228 464.449 138.875C464.298 138.523 463.887 138.358 463.536 138.508L463.625 138.47C464.057 138.286 464.259 137.782 464.075 137.35C463.891 136.92 463.386 136.717 462.955 136.902L463.243 136.779C463.675 136.594 463.877 136.09 463.693 135.659C463.509 135.228 463.005 135.026 462.573 135.21Z" fill="#F8F8F8"/>
<path d="M705.51 138.188L704.029 139.219C703.755 139.41 703.689 139.79 703.875 140.065L706.73 144.168C706.924 144.442 707.304 144.51 707.578 144.32L709.058 143.288C709.332 143.098 709.405 142.717 709.212 142.443L706.357 138.34C706.163 138.065 705.783 137.997 705.51 138.188Z" fill="#F8F8F8"/>
<path d="M712.527 134.016L712.44 134.077C712.874 133.776 712.98 133.174 712.68 132.74C712.38 132.306 711.78 132.199 711.346 132.501L708.812 134.262C708.785 133.553 708.658 132.475 708.218 131.835C707.511 130.822 706.564 130.645 706.157 130.833C705.75 131.02 705.616 131.399 705.73 131.777C705.837 132.155 706.424 132.606 706.497 132.863C706.61 133.258 706.344 134.073 706.263 135.57C706.19 136.908 707.004 137.865 707.004 137.865L707.978 139.264L708.952 140.664L709.405 141.315C709.592 141.585 709.966 141.653 710.239 141.465L714.935 138.194C715.248 137.975 715.328 137.539 715.108 137.224C714.888 136.91 714.455 136.832 714.141 137.051L714.221 136.995C714.608 136.727 714.701 136.193 714.435 135.808C714.168 135.423 713.634 135.327 713.247 135.595L713.507 135.416C713.888 135.148 713.988 134.614 713.714 134.229C713.447 133.844 712.914 133.748 712.527 134.016Z" fill="#F8F8F8"/>
<path d="M786.928 125.036L785.2 124.505C784.88 124.407 784.54 124.588 784.447 124.908L782.972 129.687C782.879 130.006 783.059 130.348 783.379 130.446L785.1 130.976C785.42 131.074 785.761 130.894 785.861 130.574L787.328 125.795C787.428 125.475 787.248 125.134 786.928 125.036Z" fill="#F8F8F8"/>
<path d="M794.539 127.991L794.439 127.959C794.946 128.115 795.486 127.829 795.639 127.323C795.793 126.818 795.506 126.278 795.006 126.122L792.057 125.217C792.598 124.757 793.371 123.996 793.598 123.25C793.958 122.069 793.518 121.215 793.118 121.01C792.718 120.806 792.338 120.936 792.111 121.254C791.877 121.573 791.884 122.314 791.73 122.53C791.484 122.861 790.683 123.159 789.456 124.018C788.355 124.786 788.102 126.012 788.102 126.012L787.602 127.642L787.101 129.273L786.868 130.032C786.768 130.347 786.948 130.683 787.261 130.78L792.738 132.462C793.105 132.574 793.491 132.366 793.605 132.001C793.718 131.635 793.511 131.244 793.145 131.131L793.238 131.16C793.685 131.298 794.165 131.044 794.305 130.595C794.445 130.147 794.185 129.667 793.738 129.529L794.038 129.622C794.485 129.76 794.966 129.505 795.106 129.057C795.246 128.609 794.992 128.129 794.539 127.991Z" fill="#F8F8F8"/>
<path d="M382.695 139.416L380.971 138.885C380.651 138.787 380.31 138.969 380.212 139.288L378.742 144.067C378.644 144.386 378.826 144.729 379.145 144.827L380.869 145.356C381.188 145.454 381.53 145.274 381.629 144.954L383.097 140.175C383.195 139.855 383.015 139.514 382.695 139.416Z" fill="#F8F8F8"/>
<path d="M390.309 142.371L390.206 142.34C390.711 142.495 391.251 142.209 391.407 141.704C391.561 141.199 391.276 140.658 390.771 140.503L387.825 139.598C388.364 139.137 389.137 138.376 389.366 137.63C389.729 136.449 389.284 135.595 388.886 135.391C388.487 135.186 388.109 135.316 387.877 135.634C387.646 135.953 387.655 136.694 387.497 136.91C387.254 137.241 386.451 137.539 385.223 138.398C384.126 139.165 383.872 140.393 383.872 140.393L383.37 142.023L382.869 143.653L382.636 144.412C382.54 144.727 382.717 145.063 383.032 145.16L388.504 146.842C388.87 146.954 389.261 146.747 389.374 146.381C389.486 146.015 389.279 145.624 388.914 145.511L389.007 145.54C389.456 145.678 389.935 145.424 390.073 144.975C390.211 144.527 389.956 144.048 389.508 143.909L389.808 144.001C390.256 144.14 390.736 143.885 390.874 143.437C391.012 142.989 390.758 142.509 390.309 142.371Z" fill="#F8F8F8"/>
<path d="M743.631 105.255L741.296 104.538C740.862 104.404 740.396 104.65 740.262 105.083L738.274 111.558C738.141 111.991 738.388 112.455 738.821 112.587L741.156 113.306C741.59 113.439 742.05 113.193 742.183 112.76L744.178 106.285C744.311 105.852 744.064 105.389 743.631 105.255Z" fill="#F8F8F8"/>
<path d="M753.95 109.26L753.81 109.218C754.49 109.428 755.224 109.04 755.437 108.356C755.644 107.671 755.257 106.939 754.57 106.729L750.581 105.502C751.315 104.878 752.362 103.847 752.669 102.837C753.163 101.237 752.556 100.079 752.015 99.8018C751.482 99.5243 750.968 99.7004 750.655 100.132C750.341 100.564 750.348 101.568 750.134 101.86C749.807 102.309 748.72 102.713 747.053 103.876C745.572 104.917 745.225 106.58 745.225 106.58L744.545 108.789L743.864 110.998L743.551 112.027C743.417 112.453 743.657 112.908 744.084 113.039L751.502 115.318C751.995 115.471 752.529 115.19 752.682 114.694C752.836 114.198 752.549 113.668 752.055 113.515L752.182 113.555C752.789 113.741 753.443 113.397 753.63 112.79C753.816 112.182 753.469 111.532 752.862 111.345L753.269 111.47C753.876 111.656 754.523 111.312 754.71 110.705C754.897 110.097 754.557 109.447 753.95 109.26Z" fill="#F8F8F8"/>
<path d="M490.454 113.101L488.118 112.383C487.686 112.251 487.221 112.495 487.089 112.928L485.099 119.405C484.965 119.837 485.211 120.3 485.644 120.434L487.98 121.152C488.413 121.285 488.876 121.039 489.009 120.607L490.999 114.13C491.133 113.698 490.887 113.234 490.454 113.101Z" fill="#F8F8F8"/>
<path d="M500.772 117.107L500.632 117.063C501.316 117.274 502.049 116.886 502.259 116.201C502.47 115.518 502.082 114.785 501.397 114.575L497.406 113.348C498.137 112.724 499.184 111.693 499.495 110.683C499.986 109.083 499.383 107.925 498.843 107.647C498.303 107.37 497.791 107.546 497.476 107.978C497.164 108.41 497.174 109.414 496.961 109.706C496.633 110.155 495.545 110.558 493.88 111.722C492.393 112.763 492.049 114.425 492.049 114.425L491.37 116.634L490.691 118.844L490.374 119.872C490.244 120.299 490.485 120.755 490.911 120.885L498.326 123.165C498.822 123.317 499.353 123.036 499.505 122.54C499.658 122.044 499.376 121.514 498.88 121.362L499.007 121.4C499.615 121.587 500.265 121.243 500.451 120.635C500.639 120.028 500.294 119.378 499.686 119.191L500.092 119.316C500.7 119.503 501.35 119.158 501.537 118.551C501.724 117.943 501.379 117.293 500.772 117.107Z" fill="#F8F8F8"/>
<path d="M818.739 104.236L817.291 106.209C817.025 106.574 817.105 107.092 817.471 107.36L822.941 111.359C823.308 111.626 823.822 111.546 824.088 111.18L825.536 109.207C825.803 108.841 825.723 108.323 825.356 108.056L819.886 104.057C819.519 103.79 819.006 103.87 818.739 104.236Z" fill="#F8F8F8"/>
<path d="M825.896 95.7956L825.809 95.9137C826.229 95.336 826.103 94.5169 825.529 94.094C824.949 93.6718 824.128 93.7992 823.708 94.3768L821.24 97.7473C820.893 96.8529 820.26 95.5254 819.406 94.9018C818.058 93.9139 816.764 94.1047 816.324 94.5249C815.884 94.9445 815.884 95.4868 816.191 95.9243C816.498 96.3612 817.451 96.6794 817.658 96.9763C817.972 97.4345 817.998 98.5938 818.552 100.548C819.052 102.293 820.506 103.162 820.506 103.162L822.374 104.527L824.242 105.89L825.109 106.526C825.469 106.789 825.976 106.71 826.243 106.35L830.819 100.088C831.126 99.6697 831.032 99.0767 830.619 98.7706C830.198 98.4637 829.605 98.5558 829.298 98.9747L829.378 98.8673C829.751 98.3543 829.638 97.6279 829.124 97.2524C828.611 96.8775 827.884 96.9903 827.51 97.5032L827.764 97.1604C828.137 96.6474 828.024 95.9203 827.51 95.5448C826.997 95.1699 826.27 95.2827 825.896 95.7956Z" fill="#F8F8F8"/>
<path d="M539.423 108.237L537.981 110.21C537.713 110.575 537.794 111.093 538.159 111.361L543.628 115.36C543.994 115.627 544.512 115.546 544.778 115.181L546.222 113.208C546.489 112.842 546.409 112.324 546.043 112.057L540.575 108.058C540.209 107.791 539.691 107.871 539.423 108.237Z" fill="#F8F8F8"/>
<path d="M546.583 99.7964L546.497 99.9145C546.919 99.3361 546.792 98.5177 546.214 98.0948C545.636 97.6726 544.817 97.8 544.394 98.3776L541.929 101.748C541.579 100.854 540.947 99.5262 540.094 98.9026C538.743 97.9147 537.451 98.1055 537.013 98.525C536.575 98.9453 536.573 99.4869 536.879 99.9245C537.184 100.362 538.136 100.68 538.342 100.977C538.66 101.435 538.685 102.595 539.241 104.548C539.737 106.293 541.196 107.163 541.196 107.163L543.061 108.527L544.927 109.891L545.796 110.527C546.156 110.79 546.665 110.711 546.928 110.351L551.507 104.089C551.814 103.67 551.721 103.077 551.303 102.771C550.884 102.465 550.291 102.557 549.985 102.975L550.063 102.868C550.438 102.355 550.325 101.628 549.812 101.253C549.3 100.878 548.572 100.991 548.197 101.504L548.448 101.16C548.823 100.648 548.711 99.9211 548.198 99.5456C547.685 99.1707 546.958 99.2834 546.583 99.7964Z" fill="#F8F8F8"/>
<path d="M406.286 111.087L404.843 113.06C404.576 113.426 404.657 113.944 405.023 114.211L410.491 118.21C410.857 118.477 411.374 118.397 411.642 118.031L413.085 116.059C413.352 115.693 413.271 115.175 412.906 114.907L407.437 110.909C407.072 110.641 406.554 110.722 406.286 111.087Z" fill="#F8F8F8"/>
<path d="M413.446 102.647L413.359 102.765C413.782 102.187 413.655 101.369 413.077 100.946C412.499 100.523 411.68 100.65 411.258 101.228L408.793 104.599C408.442 103.705 407.81 102.377 406.957 101.753C405.606 100.765 404.314 100.956 403.875 101.376C403.437 101.796 403.436 102.338 403.741 102.775C404.047 103.212 405 103.531 405.205 103.828C405.523 104.286 405.548 105.446 406.103 107.399C406.6 109.144 408.059 110.013 408.059 110.013L409.925 111.378L411.79 112.742L412.659 113.377C413.018 113.641 413.528 113.561 413.791 113.201L418.371 106.94C418.677 106.521 418.585 105.928 418.166 105.622C417.747 105.315 417.153 105.408 416.847 105.826L416.927 105.719C417.302 105.206 417.189 104.479 416.676 104.103C416.162 103.729 415.436 103.841 415.061 104.354L415.312 104.011C415.687 103.498 415.574 102.771 415.061 102.397C414.547 102.021 413.821 102.134 413.446 102.647Z" fill="#F8F8F8"/>
<path d="M601.271 53.2428L597.24 52.932C596.493 52.8739 595.835 53.4382 595.777 54.1853L594.914 65.3581C594.857 66.1052 595.42 66.7642 596.167 66.8216L600.198 67.1331C600.946 67.1911 601.604 66.6268 601.662 65.8797L602.525 54.7063C602.582 53.9592 602.018 53.3008 601.271 53.2428Z" fill="#F8F8F8"/>
<path d="M619.375 55.9637L619.134 55.945C620.315 56.0364 621.356 55.1446 621.447 53.9639C621.539 52.7833 620.647 51.742 619.466 51.6507L612.579 51.119C613.532 49.847 614.848 47.8019 614.984 46.0596C615.197 43.2994 613.803 41.6485 612.831 41.397C611.859 41.1455 611.094 41.6158 610.745 42.4262C610.397 43.2367 610.779 44.8536 610.54 45.4019C610.173 46.247 608.564 47.2923 606.3 49.7743C604.277 51.9928 604.325 54.8017 604.325 54.8017L604.03 58.6131L603.736 62.4252L603.599 64.2002C603.541 64.9353 604.096 65.583 604.832 65.6397L617.626 66.6276C618.482 66.6936 619.236 66.0479 619.302 65.1921C619.368 64.337 618.722 63.5826 617.867 63.5165L618.085 63.5332C619.134 63.6146 620.058 62.8235 620.139 61.7749C620.219 60.727 619.428 59.8025 618.38 59.7218L619.081 59.7758C620.129 59.8565 621.053 59.0654 621.134 58.0168C621.215 56.9689 620.424 56.0444 619.375 55.9637Z" fill="#F8F8F8"/>
<path d="M395.825 68.3918L391.794 68.0809C391.046 68.0229 390.388 68.5872 390.331 69.3336L389.468 80.5071C389.41 81.2542 389.974 81.9126 390.721 81.9706L394.752 82.2814C395.5 82.3395 396.157 81.7751 396.215 81.0281L397.078 69.8546C397.136 69.1082 396.571 68.4498 395.825 68.3918Z" fill="#F8F8F8"/>
<path d="M413.928 71.1119L413.688 71.0933C414.869 71.1847 415.909 70.2935 416.001 69.1122C416.092 67.9315 415.2 66.8909 414.02 66.7996L407.133 66.268C408.086 64.9959 409.402 62.9508 409.537 61.2078C409.75 58.4483 408.357 56.7974 407.384 56.5459C406.412 56.2945 405.648 56.7647 405.3 57.5751C404.951 58.3856 405.332 60.0025 405.093 60.5508C404.727 61.3953 403.117 62.4405 400.853 64.9232C398.831 67.1418 398.878 69.95 398.878 69.95L398.584 73.7621L398.289 77.5742L398.152 79.3485C398.095 80.0836 398.65 80.7313 399.386 80.788L412.179 81.7765C413.035 81.8425 413.79 81.1962 413.855 80.341C413.922 79.4852 413.275 78.7315 412.42 78.6654L412.639 78.6821C413.688 78.7628 414.611 77.9717 414.692 76.9231C414.773 75.8752 413.982 74.9514 412.933 74.87L413.634 74.924C414.683 75.0054 415.607 74.2137 415.687 73.1651C415.769 72.1172 414.978 71.1933 413.928 71.1119Z" fill="#F8F8F8"/>
<path d="M810.648 54.9297L806.612 54.6188C805.865 54.5608 805.211 55.1251 805.151 55.8715L804.291 67.0456C804.231 67.7927 804.798 68.4511 805.545 68.5085L809.574 68.82C810.321 68.8773 810.981 68.313 811.035 67.5666L811.902 56.3931C811.955 55.646 811.395 54.9877 810.648 54.9297Z" fill="#F8F8F8"/>
<path d="M828.751 57.6506L828.511 57.6319C829.691 57.7233 830.732 56.8314 830.819 55.6508C830.912 54.4695 830.018 53.4289 828.838 53.3382L821.954 52.8059C822.908 51.5339 824.222 49.4894 824.355 47.7464C824.569 44.9862 823.175 43.336 822.207 43.0846C821.233 42.8331 820.466 43.3027 820.12 44.1131C819.773 44.9242 820.153 46.5405 819.913 47.0894C819.546 47.9339 817.938 48.9791 815.677 51.4618C813.649 53.6797 813.696 56.4879 813.696 56.4879L813.403 60.3L813.109 64.1121L812.976 65.8871C812.916 66.6222 813.469 67.2699 814.21 67.3266L827.003 68.3144C827.857 68.3805 828.611 67.7348 828.678 66.8797C828.744 66.0239 828.097 65.2695 827.243 65.2034L827.457 65.2207C828.511 65.3015 829.431 64.5103 829.511 63.4618C829.591 62.4132 828.804 61.4894 827.757 61.4087L828.457 61.4627C829.505 61.5434 830.425 60.7523 830.505 59.7037C830.592 58.6558 829.798 57.7313 828.751 57.6506Z" fill="#F8F8F8"/>
<path d="M498.896 75.8785L494.866 75.567C494.119 75.5097 493.46 76.0733 493.402 76.8204L492.54 87.9939C492.482 88.741 493.046 89.3993 493.793 89.4567L497.824 89.7682C498.571 89.8256 499.229 89.2619 499.287 88.5148L500.15 77.342C500.208 76.5949 499.644 75.9359 498.896 75.8785Z" fill="#F8F8F8"/>
<path d="M517.001 78.5987L516.76 78.5807C517.941 78.6714 518.982 77.7803 519.072 76.599C519.164 75.4183 518.273 74.3777 517.092 74.2863L510.204 73.7547C511.157 72.482 512.474 70.4376 512.609 68.6946C512.822 65.9344 511.428 64.2842 510.456 64.0327C509.484 63.7812 508.721 64.2515 508.371 65.0613C508.022 65.8724 508.404 67.4886 508.166 68.0376C507.798 68.882 506.189 69.9273 503.925 72.41C501.902 74.6279 501.95 77.4368 501.95 77.4368L501.655 81.2489L501.361 85.0603L501.224 86.8353C501.168 87.5703 501.723 88.218 502.457 88.2747L515.252 89.2633C516.107 89.3286 516.861 88.6836 516.928 87.8278C516.993 86.972 516.347 86.2183 515.492 86.1522L515.711 86.1689C516.76 86.2496 517.683 85.4585 517.764 84.4099C517.846 83.362 517.054 82.4375 516.006 82.3568L516.707 82.4108C517.755 82.4922 518.679 81.7004 518.76 80.6525C518.841 79.604 518.049 78.6794 517.001 78.5987Z" fill="#F8F8F8"/>
<path d="M222.142 69.5364L218.559 71.4115C217.896 71.7583 217.637 72.5861 217.984 73.2498L223.181 83.1786C223.528 83.843 224.355 84.1011 225.019 83.7543L228.602 81.8792C229.266 81.5317 229.524 80.7046 229.177 80.0409L223.98 70.1114C223.633 69.4477 222.806 69.1889 222.142 69.5364Z" fill="#F8F8F8"/>
<path d="M238.931 62.2371L238.718 62.3499C239.767 61.8002 240.176 60.4928 239.627 59.4429C239.078 58.3937 237.77 57.9848 236.72 58.5338L230.6 61.7369C230.733 60.1527 230.765 57.7213 229.954 56.1725C228.67 53.7191 226.613 53.0594 225.656 53.3623C224.698 53.6651 224.301 54.4689 224.435 55.3407C224.569 56.2131 225.75 57.3805 225.839 57.9728C225.975 58.8833 225.166 60.6236 224.564 63.9287C224.026 66.8817 225.557 69.237 225.557 69.237L227.33 72.6249L229.103 76.0127L229.928 77.5889C230.27 78.2426 231.084 78.4974 231.737 78.1552L243.106 72.2046C243.867 71.8071 244.163 70.8599 243.765 70.0995C243.367 69.3391 242.419 69.0429 241.659 69.4405L241.854 69.3384C242.785 68.8508 243.149 67.6901 242.662 66.759C242.174 65.8271 241.013 65.4636 240.082 65.9512L240.704 65.625C241.636 65.1374 242 63.9761 241.511 63.0449C241.024 62.1131 239.862 61.7502 238.931 62.2371Z" fill="#F8F8F8"/>
<path d="M98.1777 52.8019L94.5957 54.6762C93.932 55.0238 93.6732 55.8515 94.0201 56.5146L99.2163 66.444C99.5638 67.1077 100.392 67.3672 101.055 67.0197L104.638 65.1447C105.302 64.7971 105.56 63.9694 105.213 63.3057L100.017 53.3768C99.6692 52.7132 98.8414 52.4543 98.1777 52.8019Z" fill="#F8F8F8"/>
<path d="M114.968 45.5026L114.753 45.6146C115.803 45.0657 116.212 43.7576 115.663 42.7084C115.114 41.6591 113.806 41.2496 112.756 41.7985L106.636 45.0023C106.769 43.4181 106.8 40.9861 105.99 39.4379C104.706 36.9846 102.649 36.3248 101.692 36.6277C100.734 36.9305 100.337 37.7336 100.47 38.6061C100.604 39.4779 101.786 40.6459 101.875 41.2376C102.012 42.1487 101.202 43.8884 100.6 47.1935C100.062 50.1472 101.592 52.5024 101.592 52.5024L103.366 55.8896L105.138 59.2775L105.964 60.8544C106.305 61.5081 107.12 61.7622 107.773 61.4207L119.142 55.4701C119.903 55.0725 120.199 54.1247 119.801 53.3642C119.403 52.6045 118.456 52.3077 117.696 52.7059L117.891 52.6038C118.822 52.1162 119.185 50.9549 118.698 50.0237C118.21 49.0925 117.049 48.7283 116.118 49.2166L116.741 48.8905C117.672 48.4029 118.035 47.2415 117.548 46.3104C117.06 45.3785 115.899 45.015 114.968 45.5026Z" fill="#F8F8F8"/>
<path d="M265.007 87.7965L262.568 84.5714C262.116 83.9744 261.258 83.855 260.659 84.3073L251.722 91.0663C251.123 91.5186 251.005 92.3771 251.456 92.9747L253.896 96.1998C254.347 96.7975 255.206 96.9162 255.804 96.4646L264.742 89.7049C265.34 89.2533 265.459 88.3942 265.007 87.7965Z" fill="#F8F8F8"/>
<path d="M274.969 103.156L274.824 102.964C275.538 103.908 276.895 104.096 277.84 103.382C278.785 102.667 278.973 101.311 278.258 100.365L274.092 94.8557C275.676 94.727 278.079 94.3568 279.474 93.3029C281.683 91.6326 281.995 89.4961 281.539 88.6016C281.082 87.7065 280.224 87.4463 279.386 87.7218C278.548 87.998 277.591 89.3554 277.022 89.5408C276.145 89.825 274.296 89.3127 270.936 89.2627C267.935 89.2186 265.863 91.1157 265.863 91.1157L262.814 93.4223L259.764 95.7282L258.345 96.8015C257.757 97.2464 257.64 98.0915 258.084 98.6792L265.824 108.915C266.342 109.599 267.326 109.736 268.01 109.218C268.694 108.7 268.831 107.717 268.313 107.032L268.446 107.208C269.08 108.046 270.285 108.214 271.124 107.579C271.962 106.945 272.13 105.74 271.495 104.902L271.919 105.462C272.554 106.301 273.759 106.468 274.598 105.834C275.435 105.2 275.603 103.995 274.969 103.156Z" fill="#F8F8F8"/>
<path d="M13.8248 82.9065L11.3859 79.6813C10.9338 79.0837 10.075 78.965 9.47756 79.4165L0.539039 86.1763C-0.0584098 86.6285 -0.177748 87.487 0.274294 88.0846L2.7129 91.3098C3.16495 91.9068 4.02376 92.0262 4.62149 91.5746L13.5595 84.8148C14.1572 84.3633 14.2765 83.5041 13.8248 82.9065Z" fill="#F8F8F8"/>
<path d="M23.787 98.2656L23.6414 98.0728C24.3556 99.018 25.7128 99.2061 26.6576 98.4917C27.6021 97.7773 27.7908 96.4199 27.0766 95.4754L22.9097 89.9657C24.4944 89.8362 26.8976 89.4667 28.2921 88.4128C30.5003 86.7425 30.8128 84.6054 30.3563 83.7109C29.9 82.8157 29.0423 82.5562 28.204 82.8317C27.3658 83.1072 26.4082 84.4653 25.8394 84.6501C24.9629 84.9349 23.1137 84.4219 19.7544 84.3726C16.7532 84.3286 14.6818 86.2256 14.6818 86.2256L11.6321 88.5315L8.58254 90.8381L7.16302 91.9114C6.5747 92.3556 6.45743 93.2008 6.90248 93.7884L14.6427 104.024C15.1602 104.708 16.1435 104.845 16.8279 104.328C17.5122 103.81 17.6487 102.827 17.1312 102.142L17.2639 102.318C17.8978 103.156 19.1032 103.323 19.9417 102.689C20.7801 102.055 20.9474 100.85 20.3132 100.011L20.7374 100.572C21.3716 101.411 22.5767 101.578 23.4152 100.944C24.254 100.309 24.4215 99.1047 23.787 98.2656Z" fill="#F8F8F8"/>
<path d="M312.092 67.9677L308.449 69.722C307.773 70.0475 307.487 70.866 307.813 71.5403L312.675 81.6372C313 82.3123 313.818 82.5984 314.494 82.2736L318.136 80.5193C318.811 80.1944 319.098 79.3753 318.773 78.7003L313.909 68.604C313.585 67.929 312.766 67.6428 312.092 67.9677Z" fill="#F8F8F8"/>
<path d="M329.114 61.2319L328.897 61.3366C329.964 60.823 330.416 59.5296 329.903 58.4624C329.388 57.3951 328.095 56.9429 327.028 57.4571L320.804 60.4541C320.99 58.8753 321.102 56.4459 320.344 54.871C319.143 52.377 317.109 51.6493 316.142 51.9194C315.175 52.1902 314.75 52.98 314.855 53.8565C314.96 54.733 316.102 55.939 316.172 56.5333C316.278 57.4485 315.41 59.1601 314.699 62.4439C314.063 65.3775 315.513 67.7828 315.513 67.7828L317.173 71.2274L318.832 74.672L319.604 76.2755C319.924 76.9392 320.73 77.2214 321.394 76.9012L332.955 71.3328C333.728 70.9606 334.056 70.0234 333.684 69.2503C333.311 68.4772 332.374 68.1497 331.602 68.5219L331.8 68.4265C332.746 67.9703 333.148 66.8216 332.692 65.8744C332.236 64.9272 331.087 64.5257 330.14 64.982L330.773 64.6764C331.72 64.2202 332.123 63.0722 331.666 62.125C331.21 61.1779 330.062 60.7757 329.114 61.2319Z" fill="#F8F8F8"/>
<path d="M134.938 84.7389L131.295 86.4938C130.62 86.8187 130.334 87.6371 130.659 88.3121L135.522 98.409C135.847 99.0834 136.665 99.3702 137.341 99.0447L140.983 97.2904C141.658 96.9656 141.944 96.1471 141.619 95.4721L136.756 85.3759C136.431 84.7001 135.613 84.414 134.938 84.7389Z" fill="#F8F8F8"/>
<path d="M151.961 78.0038L151.743 78.1085C152.81 77.5942 153.263 76.3015 152.749 75.2336C152.236 74.167 150.942 73.7147 149.875 74.2284L143.651 77.2253C143.837 75.6471 143.949 73.2171 143.191 71.6429C141.989 69.1482 139.956 68.4205 138.989 68.6913C138.022 68.9621 137.597 69.7519 137.702 70.6277C137.807 71.5042 138.95 72.7102 139.018 73.3045C139.124 74.2197 138.257 75.932 137.545 79.2151C136.91 82.1487 138.361 84.554 138.361 84.554L140.02 87.9986L141.679 91.4432L142.451 93.0467C142.771 93.7111 143.576 93.9932 144.24 93.6731L155.802 88.1047C156.575 87.7325 156.903 86.7953 156.531 86.0222C156.158 85.2491 155.221 84.9209 154.448 85.2938L154.646 85.1977C155.593 84.7415 155.995 83.5935 155.539 82.6463C155.082 81.6991 153.934 81.2969 152.987 81.7532L153.62 81.4483C154.567 80.9921 154.97 79.8434 154.513 78.8963C154.057 77.9491 152.909 77.5475 151.961 78.0038Z" fill="#F8F8F8"/>
<path d="M269.071 51.8334L265.301 50.3707C264.602 50.0998 263.809 50.4494 263.538 51.1477L259.484 61.5955C259.213 62.2939 259.563 63.0877 260.261 63.3585L264.031 64.8206C264.73 65.0921 265.523 64.7419 265.793 64.0435L269.848 53.5958C270.119 52.8974 269.769 52.1043 269.071 51.8334Z" fill="#F8F8F8"/>
<path d="M285.616 59.6677L285.391 59.5803C286.496 60.0086 287.749 59.4563 288.178 58.3516C288.607 57.2477 288.054 55.9937 286.949 55.5654L280.509 53.0667C281.79 52.1235 283.641 50.5467 284.273 48.9171C285.274 46.3364 284.417 44.3533 283.559 43.8316C282.701 43.31 281.834 43.5395 281.266 44.2152C280.697 44.8895 280.596 46.5485 280.209 47.0047C279.613 47.7071 277.77 48.2427 274.886 49.965C272.309 51.5045 271.543 54.2067 271.543 54.2067L270.16 57.7713L268.777 61.336L268.133 62.9949C267.867 63.6826 268.21 64.463 268.898 64.7298L280.861 69.3717C281.661 69.6826 282.57 69.2817 282.88 68.4819C283.19 67.6815 282.79 66.773 281.99 66.4628L282.195 66.5422C283.175 66.923 284.288 66.4321 284.668 65.4522C285.049 64.4717 284.558 63.3584 283.579 62.9782L284.234 63.2323C285.214 63.6125 286.327 63.1216 286.708 62.1417C287.088 61.1612 286.597 60.0479 285.616 59.6677Z" fill="#F8F8F8"/>
<path d="M34.9411 47.9685L31.1718 46.5064C30.4735 46.2356 29.6801 46.5851 29.4092 47.2835L25.3551 57.7313C25.0844 58.4296 25.434 59.2234 26.1324 59.4942L29.9016 60.9563C30.6001 61.2278 31.3938 60.8776 31.6645 60.1793L35.7186 49.7315C35.9896 49.0331 35.6399 48.24 34.9411 47.9685Z" fill="#F8F8F8"/>
<path d="M51.4877 55.8036L51.2623 55.7162C52.3666 56.1445 53.6204 55.5915 54.049 54.4875C54.4774 53.3836 53.9247 52.1296 52.8202 51.7013L46.3804 49.2026C47.6606 48.2594 49.5119 46.6826 50.144 45.053C51.1456 42.4716 50.2886 40.4892 49.4303 39.9676C48.5718 39.4459 47.7052 39.6761 47.1366 40.3504C46.5683 41.0255 46.4675 42.6844 46.0805 43.14C45.4844 43.8424 43.6415 44.3786 40.7573 46.1009C38.1801 47.6404 37.4143 50.3426 37.4143 50.3426L36.031 53.9072L34.6482 57.4712L34.0041 59.1308C33.7373 59.8185 34.0817 60.5989 34.7688 60.8651L46.7325 65.5076C47.5324 65.8178 48.4407 65.4176 48.7513 64.6172C49.0616 63.8174 48.6612 62.9089 47.8613 62.5987L48.066 62.6781C49.0462 63.0589 50.1594 62.568 50.5398 61.5875C50.9202 60.6076 50.4293 59.4943 49.4491 59.1141L50.1044 59.3683C51.0849 59.7485 52.198 59.2575 52.5784 58.2777C52.9586 57.2971 52.4677 56.1838 51.4877 55.8036Z" fill="#F8F8F8"/>
<path d="M202.981 31.0099L197.862 33.6893C196.913 34.1863 196.543 35.3689 197.039 36.3174L204.466 50.5079C204.963 51.4571 206.146 51.8273 207.094 51.331L212.215 48.6509C213.163 48.1546 213.533 46.972 213.037 46.0235L205.61 31.8323C205.113 30.8838 203.931 30.5136 202.981 31.0099Z" fill="#F8F8F8"/>
<path d="M226.979 20.5781L226.672 20.7382C228.172 19.9531 228.757 18.0841 227.972 16.5846C227.187 15.0844 225.318 14.4995 223.818 15.2846L215.071 19.8624C215.262 17.5985 215.306 14.1233 214.148 11.9094C212.313 8.4041 209.373 7.46025 208.005 7.89316C206.635 8.32607 206.066 9.47469 206.259 10.7214C206.451 11.9674 208.14 13.637 208.266 14.4821C208.461 15.7842 207.304 18.2709 206.444 22.9955C205.675 27.2165 207.863 30.583 207.863 30.583L210.396 35.4243L212.93 40.2656L214.11 42.5196C214.598 43.4534 215.762 43.8176 216.696 43.3287L232.945 34.8247C234.032 34.2557 234.456 32.9016 233.886 31.815C233.319 30.7284 231.964 30.3042 230.877 30.8731L231.156 30.7271C232.487 30.0307 233.007 28.3711 232.31 27.0397C231.613 25.7083 229.953 25.1887 228.622 25.8857L229.512 25.4195C230.843 24.7231 231.363 23.0635 230.666 21.7314C229.969 20.4007 228.31 19.8818 226.979 20.5781Z" fill="#F8F8F8"/>
<path d="M134.924 17.7759L129.471 15.8642C128.46 15.5093 127.343 16.0469 126.99 17.0575L121.69 32.1718C121.336 33.183 121.873 34.2996 122.883 34.6538L128.336 36.5656C129.347 36.9198 130.464 36.3828 130.818 35.3722L136.117 20.2579C136.472 19.2474 135.935 18.1301 134.924 17.7759Z" fill="#F8F8F8"/>
<path d="M158.929 28.1891L158.603 28.0743C160.201 28.6346 161.966 27.7862 162.526 26.1886C163.086 24.5911 162.237 22.8261 160.639 22.2658L151.323 18.9993C153.107 17.5926 155.677 15.2526 156.504 12.8946C157.813 9.16058 156.495 6.36905 155.244 5.66399C153.994 4.95961 152.767 5.32848 151.987 6.31969C151.206 7.31024 151.14 9.68421 150.609 10.3539C149.791 11.3858 147.183 12.2369 143.144 14.8337C139.535 17.1536 138.569 21.0505 138.569 21.0505L136.76 26.2073L134.953 31.3642L134.111 33.7648C133.762 34.7593 134.29 35.8579 135.285 36.2061L152.592 42.2742C153.75 42.6804 155.029 42.0654 155.435 40.9081C155.841 39.7508 155.226 38.4714 154.068 38.0658L154.365 38.1699C155.783 38.6668 157.35 37.9137 157.847 36.4956C158.344 35.0775 157.591 33.5106 156.173 33.013L157.121 33.3459C158.539 33.8428 160.106 33.0891 160.603 31.6716C161.1 30.2535 160.347 28.686 158.929 28.1891Z" fill="#F8F8F8"/>
<path d="M268.446 6.19426L265.589 1.17215C265.059 0.241642 263.864 -0.0865345 262.932 0.442423L249.011 8.36414C248.081 8.89376 247.753 10.0884 248.282 11.0196L251.141 16.0417C251.67 16.9729 252.865 17.301 253.795 16.7708L267.716 8.84972C268.648 8.32077 268.976 7.12544 268.446 6.19426Z" fill="#F8F8F8"/>
<path d="M279.716 29.8098L279.545 29.5096C280.382 30.9804 282.27 31.4994 283.742 30.6623C285.213 29.8251 285.732 27.9361 284.895 26.4646L280.012 17.8839C282.281 17.9946 285.756 17.9172 287.927 16.6812C291.366 14.7248 292.205 11.7538 291.725 10.4011C291.245 9.04835 290.077 8.52073 288.837 8.75553C287.599 8.99099 285.99 10.7386 285.149 10.8947C283.855 11.1355 281.329 10.0662 276.577 9.37185C272.332 8.75284 269.044 11.0574 269.044 11.0574L264.295 13.7596L259.546 16.4618L257.335 17.7205C256.419 18.2414 256.096 19.4167 256.618 20.3325L265.688 36.274C266.294 37.3393 267.662 37.7155 268.729 37.1091C269.794 36.5028 270.17 35.1341 269.564 34.0681L269.719 34.3409C270.462 35.647 272.139 36.1079 273.445 35.3642C274.751 34.6218 275.212 32.9448 274.469 31.6381L274.966 32.5119C275.709 33.818 277.385 34.2789 278.692 33.5358C279.997 32.7921 280.459 31.1158 279.716 29.8098Z" fill="#F8F8F8"/>
<path d="M324.231 11.8512L324.4 12.1527C323.575 10.6745 321.691 10.1389 320.212 10.9627C318.734 11.7872 318.198 13.6709 319.023 15.1497L323.829 23.7731C321.561 23.643 318.086 23.6897 315.903 24.9064C312.447 26.8328 311.582 29.7957 312.05 31.1531C312.519 32.5099 313.682 33.0475 314.923 32.8234C316.164 32.5993 317.789 30.8663 318.63 30.7169C319.927 30.4881 322.443 31.5794 327.188 32.3151C331.428 32.9721 334.736 30.6969 334.736 30.6969L339.509 28.0368L344.281 25.376L346.504 24.1373C347.424 23.6243 347.757 22.4517 347.245 21.5312L338.315 5.51103C337.718 4.43977 336.354 4.05156 335.282 4.64923C334.211 5.24622 333.823 6.61095 334.419 7.68221L334.267 7.40807C333.535 6.09535 331.862 5.61976 330.55 6.3515C329.238 7.08323 328.762 8.75614 329.493 10.0682L329.004 9.1904C328.272 7.87768 326.6 7.40274 325.288 8.13448C323.975 8.86555 323.499 10.5385 324.231 11.8512Z" fill="#F8F8F8"/>
<path d="M71.8132 31.196L74.6267 36.2441C75.1477 37.1793 76.3397 37.5175 77.2748 36.9966L91.2652 29.1982C92.2011 28.6766 92.5399 27.4846 92.0183 26.5495L89.2047 21.502C88.6831 20.5668 87.4918 20.228 86.556 20.7496L72.5656 28.5472C71.6304 29.0689 71.2915 30.2608 71.8132 31.196Z" fill="#F8F8F8"/>
<path d="M60.7524 7.48284L60.9205 7.78434C60.0966 6.30619 58.2127 5.77054 56.7338 6.59433C55.2554 7.41878 54.72 9.30248 55.5441 10.7813L60.3509 19.4047C58.0825 19.2747 54.6074 19.3213 52.4252 20.538C48.9683 22.4644 48.1033 25.4274 48.572 26.7841C49.0408 28.1409 50.2037 28.6792 51.4447 28.455C52.686 28.2309 54.3098 26.498 55.1517 26.3492C56.4482 26.1198 58.9645 27.211 63.7094 27.9468C67.949 28.6038 71.2569 26.3285 71.2569 26.3285L76.0302 23.6677L80.8035 21.0076L83.0254 19.7689C83.9459 19.256 84.2787 18.0833 83.7658 17.1628L74.8368 1.14266C74.2392 0.0713997 72.8744 -0.316793 71.8032 0.280203C70.7319 0.877865 70.3437 2.24261 70.9414 3.31387L70.7879 3.03905C70.0569 1.72699 68.384 1.25139 67.0712 1.98313C65.7592 2.71486 65.2836 4.38713 66.0146 5.69985L65.5257 4.82203C64.794 3.5093 63.1217 3.03439 61.809 3.76546C60.4963 4.49719 60.0208 6.17011 60.7524 7.48284Z" fill="#F8F8F8"/>
<path d="M184.741 85.6013L181.374 85.3412C180.75 85.2931 180.2 85.7647 180.152 86.3884L179.432 95.7182C179.383 96.3426 179.855 96.8922 180.478 96.9402L183.844 97.2004C184.469 97.2484 185.018 96.7775 185.066 96.1538L185.787 86.8233C185.835 86.1996 185.364 85.6493 184.741 85.6013Z" fill="#F8F8F8"/>
<path d="M199.859 87.8731L199.658 87.8577C200.644 87.9338 201.513 87.1894 201.589 86.2028C201.665 85.2169 200.921 84.3478 199.934 84.2718L194.183 83.8275C194.979 82.7649 196.079 81.0573 196.191 79.6025C196.368 77.2973 195.205 75.9191 194.393 75.709C193.582 75.4989 192.944 75.8918 192.652 76.5688C192.361 77.2452 192.68 78.596 192.48 79.0536C192.173 79.7593 190.83 80.6318 188.94 82.7049C187.25 84.5572 187.29 86.9025 187.29 86.9025L187.044 90.0856L186.799 93.2694L186.684 94.7509C186.636 95.3652 187.1 95.9062 187.714 95.9529L198.398 96.7786C199.113 96.8333 199.742 96.2944 199.798 95.58C199.852 94.8656 199.313 94.2352 198.598 94.1805L198.782 94.1946C199.657 94.2619 200.429 93.6016 200.496 92.7257C200.563 91.8506 199.903 91.0788 199.028 91.0115L199.613 91.0562C200.488 91.1242 201.26 90.4632 201.328 89.588C201.395 88.7129 200.734 87.9404 199.859 87.8731Z" fill="#F8F8F8"/>
<path d="M152.378 121.469L150.228 122.63C149.829 122.845 149.679 123.348 149.894 123.746L153.112 129.708C153.327 130.107 153.829 130.257 154.228 130.042L156.378 128.88C156.777 128.666 156.927 128.163 156.713 127.764L153.494 121.803C153.279 121.404 152.777 121.254 152.378 121.469Z" fill="#F8F8F8"/>
<path d="M162.471 116.928L162.343 116.997C162.973 116.657 163.21 115.863 162.87 115.233C162.53 114.603 161.735 114.366 161.106 114.706L157.431 116.689C157.499 115.73 157.499 114.26 156.997 113.33C156.202 111.858 154.954 111.475 154.378 111.666C153.801 111.856 153.567 112.345 153.655 112.871C153.742 113.397 154.466 114.094 154.524 114.45C154.613 115 154.137 116.059 153.799 118.061C153.497 119.85 154.44 121.262 154.44 121.262L155.538 123.296L156.636 125.33L157.148 126.277C157.359 126.669 157.853 126.817 158.245 126.605L165.072 122.92C165.528 122.674 165.7 122.099 165.454 121.642C165.208 121.186 164.632 121.014 164.176 121.26L164.293 121.197C164.852 120.895 165.063 120.191 164.761 119.632C164.459 119.072 163.755 118.862 163.195 119.163L163.568 118.962C164.128 118.66 164.34 117.955 164.037 117.395C163.735 116.836 163.031 116.626 162.471 116.928Z" fill="#F8F8F8"/>
<path d="M217.551 108.268L215.216 107.55C214.783 107.417 214.319 107.663 214.186 108.096L212.196 114.571C212.063 115.004 212.309 115.467 212.741 115.6L215.077 116.318C215.511 116.452 215.974 116.206 216.107 115.773L218.098 109.298C218.23 108.865 217.985 108.401 217.551 108.268Z" fill="#F8F8F8"/>
<path d="M227.869 112.273L227.73 112.231C228.414 112.441 229.146 112.053 229.356 111.369C229.567 110.684 229.179 109.952 228.494 109.742L224.503 108.515C225.234 107.891 226.282 106.86 226.592 105.849C227.083 104.25 226.481 103.092 225.94 102.814C225.4 102.537 224.888 102.713 224.574 103.145C224.261 103.577 224.272 104.581 224.058 104.873C223.73 105.322 222.642 105.725 220.977 106.89C219.49 107.93 219.146 109.592 219.146 109.592L218.467 111.802L217.788 114.011L217.472 115.04C217.341 115.465 217.582 115.921 218.008 116.052L225.424 118.331C225.919 118.484 226.45 118.203 226.602 117.707C226.755 117.212 226.474 116.681 225.978 116.528L226.105 116.567C226.713 116.754 227.362 116.41 227.549 115.802C227.736 115.195 227.392 114.545 226.784 114.358L227.19 114.483C227.798 114.669 228.447 114.325 228.634 113.718C228.822 113.111 228.477 112.46 227.869 112.273Z" fill="#F8F8F8"/>
<path d="M191.751 134.263L190.026 133.734C189.707 133.635 189.365 133.816 189.267 134.136L187.798 138.915C187.699 139.234 187.881 139.576 188.2 139.674L189.924 140.204C190.244 140.303 190.585 140.121 190.684 139.802L192.153 135.023C192.251 134.704 192.069 134.361 191.751 134.263Z" fill="#F8F8F8"/>
<path d="M199.365 137.219L199.261 137.187C199.766 137.342 200.307 137.056 200.461 136.551C200.617 136.046 200.331 135.506 199.826 135.351L196.88 134.446C197.42 133.985 198.193 133.224 198.421 132.478C198.784 131.298 198.339 130.443 197.941 130.239C197.542 130.034 197.164 130.164 196.933 130.483C196.701 130.801 196.709 131.542 196.552 131.757C196.309 132.09 195.506 132.387 194.279 133.246C193.181 134.013 192.927 135.241 192.927 135.241L192.426 136.871L191.924 138.501L191.691 139.26C191.594 139.574 191.773 139.911 192.087 140.007L197.559 141.69C197.925 141.802 198.316 141.595 198.429 141.229C198.542 140.863 198.334 140.472 197.969 140.359L198.062 140.388C198.51 140.526 198.99 140.271 199.128 139.823C199.265 139.375 199.011 138.895 198.563 138.757L198.863 138.85C199.311 138.987 199.791 138.733 199.928 138.285C200.066 137.837 199.812 137.357 199.365 137.219Z" fill="#F8F8F8"/>
<path d="M110.275 145.914L108.617 146.623C108.309 146.754 108.165 147.113 108.297 147.421L110.261 152.018C110.392 152.325 110.751 152.469 111.059 152.338L112.718 151.629C113.025 151.498 113.169 151.139 113.038 150.831L111.073 146.234C110.942 145.927 110.583 145.782 110.275 145.914Z" fill="#F8F8F8"/>
<path d="M117.997 143.254L117.899 143.296C118.384 143.089 118.612 142.521 118.404 142.035C118.197 141.549 117.629 141.322 117.143 141.529L114.309 142.74C114.424 142.04 114.523 140.96 114.217 140.243C113.731 139.107 112.839 138.742 112.403 138.843C111.967 138.944 111.761 139.288 111.791 139.68C111.819 140.073 112.304 140.634 112.323 140.9C112.352 141.31 111.931 142.056 111.548 143.505C111.206 144.799 111.805 145.9 111.805 145.9L112.475 147.469L113.145 149.038L113.457 149.767C113.586 150.07 113.94 150.212 114.242 150.082L119.506 147.833C119.858 147.682 120.023 147.271 119.873 146.919C119.723 146.567 119.311 146.402 118.96 146.552L119.049 146.514C119.481 146.329 119.683 145.826 119.499 145.395C119.314 144.963 118.81 144.761 118.379 144.945L118.668 144.823C119.099 144.638 119.301 144.134 119.117 143.703C118.932 143.272 118.429 143.07 117.997 143.254Z" fill="#F8F8F8"/>
<path d="M21.2791 137.87L19.6204 138.579C19.3127 138.711 19.1688 139.069 19.3002 139.377L21.2648 143.974C21.3964 144.282 21.7552 144.425 22.0626 144.294L23.7211 143.585C24.0286 143.454 24.1727 143.095 24.0413 142.787L22.0767 138.19C21.9454 137.883 21.5866 137.739 21.2791 137.87Z" fill="#F8F8F8"/>
<path d="M29.0013 135.21L28.9021 135.253C29.388 135.045 29.6157 134.477 29.4078 133.991C29.2004 133.506 28.6332 133.278 28.1473 133.486L25.3131 134.696C25.4278 133.997 25.5265 132.916 25.2201 132.199C24.7347 131.063 23.843 130.698 23.4066 130.799C22.9701 130.9 22.7651 131.244 22.7943 131.637C22.8234 132.029 23.3081 132.59 23.3271 132.856C23.3561 133.266 22.9352 134.011 22.552 135.461C22.2098 136.755 22.8084 137.856 22.8084 137.856L23.4785 139.425L24.1486 140.993L24.4608 141.724C24.5901 142.026 24.9432 142.168 25.2459 142.038L30.51 139.788C30.8623 139.638 31.027 139.228 30.8769 138.875C30.7263 138.523 30.3154 138.358 29.9631 138.508L30.0535 138.47C30.4847 138.286 30.6866 137.782 30.5024 137.35C30.3182 136.92 29.8143 136.717 29.3831 136.902L29.6712 136.779C30.103 136.594 30.3049 136.09 30.1205 135.659C29.9362 135.228 29.4326 135.026 29.0013 135.21Z" fill="#F8F8F8"/>
<path d="M271.935 138.188L270.456 139.219C270.182 139.41 270.113 139.79 270.304 140.065L273.161 144.168C273.352 144.442 273.733 144.51 274.007 144.32L275.487 143.288C275.762 143.098 275.83 142.717 275.639 142.443L272.782 138.34C272.591 138.065 272.21 137.997 271.935 138.188Z" fill="#F8F8F8"/>
<path d="M278.957 134.016L278.869 134.077C279.302 133.776 279.41 133.174 279.108 132.74C278.807 132.306 278.205 132.199 277.771 132.501L275.242 134.262C275.213 133.553 275.089 132.475 274.644 131.835C273.938 130.822 272.991 130.645 272.584 130.833C272.178 131.02 272.045 131.399 272.155 131.777C272.263 132.155 272.851 132.606 272.924 132.863C273.035 133.258 272.774 134.073 272.693 135.57C272.621 136.908 273.431 137.865 273.431 137.865L274.405 139.264L275.38 140.664L275.834 141.315C276.021 141.585 276.396 141.653 276.666 141.465L281.364 138.194C281.679 137.975 281.756 137.539 281.538 137.224C281.319 136.91 280.883 136.832 280.569 137.051L280.65 136.995C281.034 136.727 281.13 136.193 280.862 135.808C280.594 135.423 280.059 135.327 279.674 135.595L279.932 135.416C280.317 135.148 280.412 134.614 280.145 134.229C279.877 133.844 279.342 133.748 278.957 134.016Z" fill="#F8F8F8"/>
<path d="M310.058 105.255L307.721 104.538C307.288 104.404 306.825 104.65 306.692 105.083L304.701 111.558C304.568 111.991 304.813 112.455 305.247 112.587L307.583 113.306C308.016 113.439 308.479 113.193 308.612 112.76L310.603 106.285C310.735 105.852 310.491 105.389 310.058 105.255Z" fill="#F8F8F8"/>
<path d="M320.376 109.26L320.235 109.218C320.92 109.428 321.652 109.04 321.862 108.356C322.072 107.671 321.684 106.939 321.001 106.729L317.009 105.502C317.739 104.878 318.787 103.847 319.098 102.837C319.59 101.237 318.987 100.079 318.446 99.8018C317.906 99.5243 317.394 99.7004 317.08 100.132C316.766 100.564 316.778 101.568 316.565 101.86C316.236 102.309 315.148 102.713 313.484 103.876C311.996 104.917 311.651 106.58 311.651 106.58L310.973 108.789L310.293 110.998L309.978 112.027C309.846 112.453 310.089 112.908 310.514 113.039L317.93 115.318C318.425 115.471 318.956 115.19 319.108 114.694C319.261 114.198 318.979 113.668 318.484 113.515L318.611 113.555C319.218 113.741 319.868 113.397 320.055 112.79C320.241 112.182 319.897 111.532 319.29 111.345L319.696 111.47C320.303 111.656 320.954 111.312 321.14 110.705C321.327 110.097 320.983 109.447 320.376 109.26Z" fill="#F8F8F8"/>
<path d="M56.8823 113.101L54.5461 112.383C54.1128 112.251 53.6498 112.495 53.5167 112.928L51.5263 119.405C51.3931 119.837 51.6386 120.3 52.0714 120.434L54.408 121.152C54.8408 121.285 55.3041 121.039 55.4373 120.607L57.4277 114.13C57.5606 113.698 57.3151 113.234 56.8823 113.101Z" fill="#F8F8F8"/>
<path d="M67.1993 117.107L67.0599 117.063C67.7443 117.274 68.4767 116.886 68.6868 116.201C68.8969 115.518 68.5093 114.785 67.825 114.575L63.8334 113.348C64.5645 112.724 65.6117 111.693 65.9226 110.683C66.4142 109.083 65.8112 107.925 65.2709 107.647C64.7306 107.37 64.2183 107.546 63.9048 107.978C63.5913 108.41 63.6026 109.414 63.3885 109.706C63.0603 110.155 61.9724 110.558 60.3082 111.722C58.8209 112.763 58.4767 114.425 58.4767 114.425L57.7972 116.634L57.1184 118.844L56.8024 119.872C56.6713 120.299 56.9126 120.755 57.3386 120.885L64.754 123.165C65.2502 123.317 65.7798 123.036 65.9326 122.54C66.0847 122.044 65.8039 121.514 65.3083 121.362L65.435 121.4C66.0427 121.587 66.693 121.243 66.8791 120.635C67.0659 120.028 66.7217 119.378 66.114 119.191L66.5203 119.316C67.1279 119.503 67.7783 119.158 67.965 118.551C68.1518 117.943 67.807 117.293 67.1993 117.107Z" fill="#F8F8F8"/>
<path d="M105.851 108.237L104.408 110.21C104.141 110.575 104.222 111.093 104.587 111.361L110.056 115.36C110.421 115.627 110.939 115.546 111.206 115.181L112.65 113.208C112.916 112.842 112.836 112.324 112.471 112.057L107.002 108.058C106.636 107.791 106.119 107.871 105.851 108.237Z" fill="#F8F8F8"/>
<path d="M113.011 99.7964L112.924 99.9145C113.347 99.3361 113.22 98.5177 112.642 98.0948C112.064 97.6726 111.245 97.8 110.823 98.3776L108.357 101.748C108.007 100.854 107.375 99.5262 106.522 98.9026C105.171 97.9147 103.88 98.1055 103.441 98.525C103.002 98.9453 103 99.4869 103.306 99.9245C103.611 100.362 104.564 100.68 104.771 100.977C105.088 101.435 105.113 102.595 105.668 104.548C106.165 106.293 107.624 107.163 107.624 107.163L109.489 108.527L111.355 109.891L112.223 110.527C112.584 110.79 113.093 110.711 113.356 110.351L117.935 104.089C118.241 103.67 118.149 103.077 117.73 102.771C117.312 102.465 116.719 102.557 116.412 102.975L116.491 102.868C116.866 102.355 116.753 101.628 116.24 101.253C115.727 100.878 115 100.991 114.625 101.504L114.876 101.16C115.251 100.648 115.138 99.9211 114.625 99.5456C114.112 99.1707 113.385 99.2834 113.011 99.7964Z" fill="#F8F8F8"/>
<path d="M167.699 53.2428L163.668 52.932C162.921 52.8739 162.262 53.4382 162.205 54.1853L161.342 65.3581C161.284 66.1052 161.848 66.7642 162.595 66.8216L166.626 67.1331C167.374 67.1911 168.032 66.6268 168.09 65.8797L168.953 54.7063C169.01 53.9592 168.446 53.3008 167.699 53.2428Z" fill="#F8F8F8"/>
<path d="M185.803 55.9637L185.562 55.945C186.743 56.0364 187.784 55.1446 187.875 53.9639C187.967 52.7833 187.075 51.742 185.894 51.6507L179.007 51.119C179.96 49.847 181.276 47.8019 181.412 46.0596C181.624 43.2994 180.231 41.6485 179.258 41.397C178.287 41.1455 177.522 41.6158 177.174 42.4262C176.825 43.2367 177.207 44.8536 176.968 45.4019C176.601 46.247 174.991 47.2923 172.727 49.7743C170.705 51.9928 170.752 54.8017 170.752 54.8017L170.458 58.6131L170.163 62.4252L170.027 64.2002C169.969 64.9353 170.524 65.583 171.26 65.6397L184.054 66.6276C184.91 66.6936 185.664 66.0479 185.729 65.1921C185.796 64.337 185.15 63.5826 184.295 63.5165L184.513 63.5332C185.562 63.6146 186.486 62.8235 186.566 61.7749C186.647 60.727 185.857 59.8025 184.807 59.7218L185.509 59.7758C186.557 59.8565 187.481 59.0654 187.562 58.0168C187.643 56.9689 186.852 56.0444 185.803 55.9637Z" fill="#F8F8F8"/>
<path d="M65.3243 75.8785L61.2934 75.567C60.5463 75.5097 59.8879 76.0733 59.8303 76.8204L58.9671 87.9939C58.9095 88.741 59.4736 89.3993 60.2209 89.4567L64.2517 89.7682C64.9988 89.8256 65.6571 89.2619 65.7151 88.5148L66.5776 77.342C66.6357 76.5949 66.0713 75.9359 65.3243 75.8785Z" fill="#F8F8F8"/>
<path d="M83.4289 78.5987L83.1881 78.5807C84.3688 78.6714 85.4093 77.7803 85.5007 76.599C85.5921 75.4183 84.7003 74.3777 83.5196 74.2863L76.6318 73.7547C77.5857 72.482 78.9017 70.4376 79.0365 68.6946C79.2499 65.9344 77.8565 64.2842 76.884 64.0327C75.9114 63.7812 75.1483 64.2515 74.7988 65.0613C74.45 65.8724 74.8322 67.4886 74.5934 68.0376C74.2258 68.882 72.6163 69.9273 70.3524 72.41C68.3299 74.6279 68.3773 77.4368 68.3773 77.4368L68.0831 81.2489L67.789 85.0603L67.6522 86.8353C67.5955 87.5703 68.1498 88.218 68.8849 88.2747L81.6793 89.2633C82.5351 89.3286 83.2888 88.6836 83.3555 87.8278C83.4209 86.972 82.7752 86.2183 81.9201 86.1522L82.1389 86.1689C83.1874 86.2496 84.1113 85.4585 84.192 84.4099C84.2734 83.362 83.4816 82.4375 82.433 82.3568L83.1347 82.4108C84.1827 82.4922 85.1065 81.7004 85.1879 80.6525C85.2686 79.604 84.4768 78.6794 83.4289 78.5987Z" fill="#F8F8F8"/>
</svg>
