<svg xmlns="http://www.w3.org/2000/svg" viewBox="0 0 26.31 23.26"><defs><style>.cls-1{fill:#7c6bde;}</style></defs><g id="Слой_2" data-name="Слой 2"><g id="Слой_1-2" data-name="Слой 1"><polygon class="cls-1" points="3.97 11.93 3.97 7.96 0 7.96 0 6.36 3.97 6.36 3.97 2.39 5.57 2.39 5.57 6.36 9.54 6.36 9.54 7.96 5.57 7.96 5.57 11.93 3.97 11.93"/><path class="cls-1" d="M12,23.26a4.81,4.81,0,0,1-4.8-4.8v-1.6h.06a9,9,0,0,1,6.26-7.69,5.17,5.17,0,1,1,6.5,0,9,9,0,0,1,6.26,7.69h0l0,.3v1.3a4.81,4.81,0,0,1-4.8,4.8Zm4.26-12.92A7.47,7.47,0,0,0,8.77,17.8v.66a3.2,3.2,0,0,0,3.2,3.2h9.54a3.21,3.21,0,0,0,3.2-3.2V17.8a7.48,7.48,0,0,0-7.47-7.46Zm.51-8.74a3.57,3.57,0,1,0,3.57,3.57A3.57,3.57,0,0,0,16.74,1.6Z"/></g></g></svg>