<svg xmlns="http://www.w3.org/2000/svg" viewBox="0 0 22.71 22.71"><defs><style>.cls-1{fill:#7c6bde;}</style></defs><g id="Слой_2" data-name="Слой 2"><g id="Слой_1-2" data-name="Слой 1"><g id="Phone_Outlined" data-name="Phone Outlined"><path class="cls-1" d="M22.65,10.1a19,19,0,0,0-10.1-10,.72.72,0,0,0-1,.41.76.76,0,0,0,.4,1,17.57,17.57,0,0,1,9.31,9.26.74.74,0,0,0,.67.45.66.66,0,0,0,.3-.07A.77.77,0,0,0,22.65,10.1Z"/><path class="cls-1" d="M11.61,5.5a10.65,10.65,0,0,1,5.65,5.61.7.7,0,0,0,.65.43.79.79,0,0,0,.29-.06.75.75,0,0,0,.35-1,12,12,0,0,0-6.4-6.36.71.71,0,0,0-.93.4A.73.73,0,0,0,11.61,5.5Z"/><path class="cls-1" d="M18.79,14.35a1.88,1.88,0,0,0-1.31-.6,1.85,1.85,0,0,0-1.31.6q-.92.9-1.83,1.83a.41.41,0,0,1-.29.15.48.48,0,0,1-.21-.06c-.4-.22-.82-.39-1.2-.63a18.86,18.86,0,0,1-4.57-4.16A10.88,10.88,0,0,1,6.42,8.85a.38.38,0,0,1,.1-.48c.61-.6,1.21-1.2,1.81-1.81a1.73,1.73,0,0,0,0-2.68L6.89,2.44c-.5-.49-1-1-1.48-1.48A1.91,1.91,0,0,0,4.1.37,1.85,1.85,0,0,0,2.79,1C2.17,1.57,1.58,2.2,1,2.79A3,3,0,0,0,0,4.8,8.4,8.4,0,0,0,.68,8.47a22.23,22.23,0,0,0,4,6.59,24.66,24.66,0,0,0,8.1,6.34,11.74,11.74,0,0,0,4.49,1.3h.29a3.22,3.22,0,0,0,2.54-1.08c.52-.59,1.11-1.12,1.67-1.68a1.76,1.76,0,0,0,0-2.67Zm1.87,4.55-.56.55c-.38.37-.78.76-1.16,1.19a1.75,1.75,0,0,1-1.43.58H17.3a10.25,10.25,0,0,1-3.91-1.16,23.07,23.07,0,0,1-7.62-6A21,21,0,0,1,2.07,8a7.13,7.13,0,0,1-.57-3,1.5,1.5,0,0,1,.48-1c.39-.37.76-.74,1.14-1.12s.47-.48.72-.72.22-.17.26-.17A.53.53,0,0,1,4.36,2c.33.32.66.64,1,1l.49.49.73.73.71.71c.27.28.25.33,0,.58L7,5.77c-.51.51-1,1-1.56,1.54a1.87,1.87,0,0,0-.41,2.12,12.23,12.23,0,0,0,1.86,3,20.44,20.44,0,0,0,4.95,4.49,8.85,8.85,0,0,0,.85.45l.4.21a1.89,1.89,0,0,0,.94.25,1.87,1.87,0,0,0,1.36-.6c.59-.61,1.19-1.2,1.81-1.82.13-.13.22-.16.26-.16a.47.47,0,0,1,.26.16l2.93,2.93C20.9,18.56,20.92,18.63,20.66,18.9Z"/></g></g></g></svg>