<svg xmlns="http://www.w3.org/2000/svg" viewBox="0 0 33.78 22.83"><defs><style>.cls-1{fill:#7c6bde;}</style></defs><g id="Слой_2" data-name="Слой 2"><g id="Слой_1-2" data-name="Слой 1"><path class="cls-1" d="M7.8,22.83A7.81,7.81,0,0,1,0,15V7.8A7.81,7.81,0,0,1,7.8,0H18a7.81,7.81,0,0,1,7.8,7.8V15a7.81,7.81,0,0,1-7.8,7.8ZM7.8,1.6A6.21,6.21,0,0,0,1.6,7.8V15a6.21,6.21,0,0,0,6.2,6.2H18a6.21,6.21,0,0,0,6.2-6.2V7.8A6.21,6.21,0,0,0,18,1.6Z"/><path class="cls-1" d="M33,19.5a.78.78,0,0,1-.6-.28l-6.22-7.29a.8.8,0,0,1,0-1l6.22-7.29a.78.78,0,0,1,.6-.28.86.86,0,0,1,.28,0,.81.81,0,0,1,.52.76V18.7a.79.79,0,0,1-.52.75A.66.66,0,0,1,33,19.5Zm-.79-3V6.3l-4.37,5.11Z"/></g></g></svg>