<svg xmlns="http://www.w3.org/2000/svg" viewBox="0 0 22.97 22.97"><defs><style>.cls-1{fill:#7c6bde;}</style></defs><g id="Слой_2" data-name="Слой 2"><g id="Слой_1-2" data-name="Слой 1"><path class="cls-1" d="M11.49,23A11.49,11.49,0,1,1,23,11.49,11.5,11.5,0,0,1,11.49,23Zm0-21.37a9.89,9.89,0,1,0,9.89,9.89A9.91,9.91,0,0,0,11.49,1.6Z"/><path class="cls-1" d="M11.49,18.51a1.3,1.3,0,0,1-1.3-1.3V10.09a1.3,1.3,0,1,1,2.6,0v7.12A1.31,1.31,0,0,1,11.49,18.51Z"/><path class="cls-1" d="M11.49,8.42a1.3,1.3,0,0,1-1.3-1.3V5.77a1.3,1.3,0,1,1,2.6,0V7.12A1.31,1.31,0,0,1,11.49,8.42Z"/></g></g></svg>