<svg xmlns="http://www.w3.org/2000/svg" viewBox="0 0 23.88 20.16"><defs><style>.cls-1{fill:#7c6bde;}</style></defs><g id="Слой_2" data-name="Слой 2"><g id="Слой_1-2" data-name="Слой 1"><path class="cls-1" d="M3.3,20.16A3.3,3.3,0,0,1,0,16.86V10.41a3.3,3.3,0,0,1,3.3-3.3h.26a3.3,3.3,0,0,1,3.3,3.3v6.45a3.3,3.3,0,0,1-3.3,3.3Zm0-11.45a1.7,1.7,0,0,0-1.7,1.7v6.45a1.7,1.7,0,0,0,1.7,1.7h.26a1.7,1.7,0,0,0,1.7-1.7V10.41a1.7,1.7,0,0,0-1.7-1.7Z"/><path class="cls-1" d="M11.81,20.16a3.3,3.3,0,0,1-3.3-3.3V3.3A3.3,3.3,0,0,1,11.81,0h.26a3.3,3.3,0,0,1,3.3,3.3V16.86a3.3,3.3,0,0,1-3.3,3.3Zm0-18.56a1.7,1.7,0,0,0-1.7,1.7V16.86a1.7,1.7,0,0,0,1.7,1.7h.26a1.7,1.7,0,0,0,1.7-1.7V3.3a1.7,1.7,0,0,0-1.7-1.7Z"/><path class="cls-1" d="M20.32,20.16a3.3,3.3,0,0,1-3.3-3.3v-10a3.3,3.3,0,0,1,3.3-3.3h.26a3.3,3.3,0,0,1,3.3,3.3v10a3.3,3.3,0,0,1-3.3,3.3Zm0-15a1.7,1.7,0,0,0-1.7,1.7v10a1.7,1.7,0,0,0,1.7,1.7h.26a1.7,1.7,0,0,0,1.7-1.7v-10a1.7,1.7,0,0,0-1.7-1.7Z"/></g></g></svg>