<svg xmlns="http://www.w3.org/2000/svg" viewBox="0 0 31.88 23.49"><defs><style>.cls-1{fill:#7c6bde;}</style></defs><g id="Слой_2" data-name="Слой 2"><g id="Слой_1-2" data-name="Слой 1"><polygon class="cls-1" points="26.28 23.49 26.28 19.49 22.28 19.49 22.28 17.89 26.28 17.89 26.28 13.89 27.88 13.89 27.88 17.89 31.88 17.89 31.88 19.49 27.88 19.49 27.88 23.49 26.28 23.49"/><path class="cls-1" d="M8.8,23.38A8.81,8.81,0,0,1,0,14.58V8.8A8.81,8.81,0,0,1,8.8,0H19.08a8.81,8.81,0,0,1,8.8,8.8V12h-1.6V8.8a7.21,7.21,0,0,0-7.2-7.2H8.8A7.21,7.21,0,0,0,1.6,8.8v5.78a7.21,7.21,0,0,0,7.2,7.2H21v1.6Z"/><path class="cls-1" d="M8.8,15.53a3.39,3.39,0,0,1-2.64-1,3.51,3.51,0,0,1-.68-2.84,4.21,4.21,0,0,1,4.38-3.8,4.13,4.13,0,0,1,2.83.9l.24.2-1,1-.21-.16a2.93,2.93,0,0,0-1.9-.58A2.67,2.67,0,0,0,7.1,11.74a2.26,2.26,0,0,0,.34,1.85,1.76,1.76,0,0,0,1.41.55,3.37,3.37,0,0,0,1.56-.33l.24-1.39H9l.27-1.5h3.22l-.65,3.69-.08.07A4.62,4.62,0,0,1,8.8,15.53Z"/><polygon class="cls-1" points="12.94 15.44 14.25 7.95 15.82 7.95 14.5 15.44 12.94 15.44"/><polygon class="cls-1" points="15.88 15.44 17.2 7.95 22.5 7.95 22.25 9.34 18.52 9.34 18.24 10.92 21.8 10.92 21.56 12.32 17.99 12.32 17.45 15.44 15.88 15.44"/></g></g></svg>