<svg xmlns="http://www.w3.org/2000/svg" viewBox="0 0 27.15 24.39"><defs><style>.cls-1{fill:#7c6bde;}</style></defs><g id="Слой_2" data-name="Слой 2"><g id="Слой_1-2" data-name="Слой 1"><path class="cls-1" d="M11.12,24.39a9.5,9.5,0,0,1-9.5-9.49V11.58a10,10,0,0,1,.16-1.7,5.74,5.74,0,1,1,8.44-7.74,7.08,7.08,0,0,1,.9-.05H16a7.08,7.08,0,0,1,.9.05A5.68,5.68,0,0,1,21.4,0a5.72,5.72,0,0,1,4,9.88,9,9,0,0,1,.16,1.7V14.9A9.5,9.5,0,0,1,16,24.39ZM5.75,1.6A4.15,4.15,0,0,0,1.6,5.75,4.1,4.1,0,0,0,3.17,9l.39.32-.12.49a8.28,8.28,0,0,0-.22,1.81V14.9a7.9,7.9,0,0,0,7.9,7.89H16a7.9,7.9,0,0,0,7.89-7.89V11.58a7.71,7.71,0,0,0-.22-1.81l-.11-.49L24,9a4.1,4.1,0,0,0,1.57-3.21A4.15,4.15,0,0,0,18,3.44l-.28.41-.5-.07A8.5,8.5,0,0,0,16,3.69H11.12A8.38,8.38,0,0,0,10,3.78l-.5.07-.28-.41A4.14,4.14,0,0,0,5.75,1.6Z"/><path class="cls-1" d="M13.71,19.9a3.06,3.06,0,0,1-3.05-3v-.3h1.6v.3a1.45,1.45,0,1,0,2.9,0v-.3h1.6v.3A3.06,3.06,0,0,1,13.71,19.9Z"/><path class="cls-1" d="M20.2,14.74v-.3a1.45,1.45,0,0,0-2.9,0v.3H15.7v-.3a3.05,3.05,0,0,1,6.1,0v.3Z"/><path class="cls-1" d="M9.84,14.74v-.3a1.45,1.45,0,0,0-2.9,0v.3H5.34v-.3a3,3,0,0,1,6.1,0v.3Z"/></g></g></svg>