<svg width="50" height="50" viewBox="0 0 50 50" fill="none" xmlns="http://www.w3.org/2000/svg">
<path d="M1.5625 13.2814L25 25.0001L48.4375 13.2814V38.2814L25 49.9999L1.5625 38.2812V13.2814Z" fill="#FD7166"/>
<path d="M1.5625 15.6249V22.9296L24.9218 34.3749L48.4374 22.8905V15.6249L25 27.1094L1.5625 15.6249Z" fill="#D75B51"/>
<path d="M25 49.9999V25.0001L3.12501 14.0626H1.5625V38.2813L25 49.9999Z" fill="#ED675D"/>
<path d="M1.5625 15.6249V22.9296L24.9218 34.3749L25 34.3358V27.0702V27.1093L1.5625 15.6249Z" fill="#D75B51"/>
<path d="M0 12.4619L25 0.00100708L50 12.4619V14.1026L25 26.5633L0 14.1416V12.4619Z" fill="#FF7B71"/>
<path d="M39.3359 3.94536C38.5155 2.461 36.7577 1.56252 34.6874 1.56252C29.9609 1.56252 26.6406 5.97661 24.9999 8.78911C23.3592 5.97661 19.9999 1.60159 15.3124 1.60159C12.3046 1.60159 10.1561 3.43755 10.1561 5.93753C10.1561 10.3906 15.039 13.2813 24.8436 13.2813C34.6482 13.2813 39.8436 9.57037 39.8436 5.97661C39.8437 5.27351 39.6875 4.57041 39.3359 3.94536ZM16.3281 8.75013C15.2343 8.00795 14.8438 7.18762 14.8438 6.64073C14.8438 5.97671 15.4688 5.4689 16.3672 5.4689C18.4766 5.4689 20.1562 8.24232 21.0937 10.1564C18.6328 9.96104 17.1874 9.29692 16.3281 8.75013ZM33.6718 8.75013C32.8124 9.29702 31.3671 9.96104 28.9062 10.1563C29.8046 8.24232 31.4843 5.4688 33.6327 5.4688C34.5311 5.4688 35.1561 5.97661 35.1561 6.64063C35.1562 7.18762 34.7655 8.00785 33.6718 8.75013Z" fill="#EFEFEF"/>
<path d="M0 12.5001L25 24.7267L50 12.5001V20.586L24.9218 32.8126L0 20.586V12.5001Z" fill="#F46B61"/>
<path d="M34.375 21.2109V20.3126L25 15.2344L15.6251 20.3126V21.2109L9.37512 18.4766V17.2266L24.6875 9.1407L25 9.29691L25.3126 9.1407L40.625 17.1875V18.4375L34.375 21.2109Z" fill="#EFEFEF"/>
<path d="M34.375 20.3126V45.2735L40.625 42.1485V17.1875L34.375 20.3126Z" fill="#DCDCDC"/>
<path d="M9.375 42.1874L15.625 45.3125V20.3516L9.375 17.1875C9.375 17.1874 9.375 42.1874 9.375 42.1874Z" fill="#D1D1D1"/>
</svg>
