<svg width="130" height="99" viewBox="0 0 130 99" fill="none" xmlns="http://www.w3.org/2000/svg">
<path d="M121.721 68.5375L15.0872 83.1548L7.87305 30.5253L114.507 15.9082L121.721 68.5375Z" fill="#C3E193"/>
<path d="M17.3966 80.0965L118.031 66.3019L111.894 19.1502L11.2251 32.8664L17.3966 80.0965ZM118.872 66.9439L16.7507 80.9421L10.3848 32.224L10.7543 32.1735L112.54 18.3052L118.872 66.9439Z" fill="#578574"/>
<path d="M98.0273 20.5887C98.0273 20.5887 109.69 21.4505 112.158 35.3073L115.229 59.7751C115.229 59.7751 115.813 64.0478 111.214 66.3821L106.881 67.9219L118.452 66.6225L112.219 18.7275L98.0273 20.5887Z" fill="#578574"/>
<path d="M24.7248 30.7632C24.7248 30.7632 13.7238 34.7316 15.0762 48.7412L18.7035 73.1325C18.7035 73.1325 19.2893 77.4052 24.3486 78.4152L28.9346 78.7329L17.441 80.595L10.5566 32.7889L24.7248 30.7632Z" fill="#578574"/>
<path d="M123.87 60.1199L20.4634 89.979L5.72656 38.9423L109.133 9.0835L123.87 60.1199Z" fill="#C3E193"/>
<path d="M22.3047 86.6196L119.893 58.4408L107.013 12.6691L9.37926 40.7752L22.3047 86.6196ZM120.818 58.9547L21.7877 87.5496L8.45508 40.2609L8.81339 40.1576L107.531 11.7397L120.818 58.9547Z" fill="#578574"/>
<path d="M93.5 16.0946C93.5 16.0946 105.165 15.2636 109.608 28.619L116.179 52.3871C116.179 52.3871 117.373 56.5307 113.159 59.5046L109.095 61.6537L120.357 58.6974L107.274 12.2041L93.5 16.0946Z" fill="#578574"/>
<path d="M22.4343 36.7456C22.4343 36.7456 12.1215 42.2605 15.4823 55.9282L22.593 79.5403C22.593 79.5403 23.7895 83.6837 28.9416 83.9526L33.5254 83.6049L22.4211 87.1068L8.70703 40.7956L22.4343 36.7456Z" fill="#578574"/>
<path d="M124.707 51.3553L27.1823 96.8931L4.70703 48.7602L102.231 3.22217L124.707 51.3553Z" fill="#C3E193"/>
<path d="M28.4826 93.2885L120.52 50.313L100.695 7.09308L8.60219 50.004L28.4826 93.2885ZM121.512 50.6773L28.1161 94.2873L7.60938 49.639L7.94745 49.4815L101.061 6.09473L121.512 50.6773Z" fill="#578574"/>
<path d="M87.875 12.574C87.875 12.574 99.2698 9.94324 105.731 22.4481L115.909 44.9094C115.909 44.9094 117.732 48.817 114.028 52.409L110.349 55.1625L121.016 50.4951L100.879 6.59375L87.875 12.574Z" fill="#578574"/>
<path d="M20.8726 43.9976C20.8726 43.9976 11.5398 51.0457 16.9801 64.0266L27.6674 86.2497C27.6674 86.2497 29.4922 90.1576 34.6236 89.624L39.0981 88.5696L28.6713 93.7518L7.93945 50.128L20.8726 43.9976Z" fill="#578574"/>
<path d="M33.0182 58.5114C32.6175 58.7703 32.048 59.0663 31.3098 59.3994L30.8486 58.3773C31.3703 57.7806 31.8134 57.2047 32.1781 56.6496L33.0182 58.5114ZM33.1238 55.8567C33.99 54.8117 34.5041 54.155 34.6661 53.8866L36.4671 53.074L43.1383 67.8589C43.4384 68.5241 43.934 68.8326 44.6251 68.7844C44.9249 68.7565 45.2319 68.701 45.5459 68.6179C45.8599 68.5348 46.1583 68.4929 46.4412 68.4922L46.8475 69.3927L37.9887 73.3899L37.5824 72.4895C37.7981 72.275 38.0409 72.0775 38.311 71.8971C38.5892 71.7129 38.8321 71.5155 39.0397 71.3047C39.5213 70.814 39.6138 70.24 39.3173 69.5829L33.1238 55.8567ZM48.8662 48.5485C47.771 49.0426 47.2795 49.7819 47.3917 50.7663C47.5743 50.7815 47.7772 50.7876 48.0004 50.7845C48.2281 50.7697 48.4563 50.7887 48.6853 50.8417C49.2535 50.9758 49.6749 51.3471 49.9495 51.9555C50.3668 52.8804 50.2342 53.6578 49.5519 54.2879C49.3451 54.4789 49.0998 54.6384 48.8158 54.7665C48.5319 54.8946 48.2463 54.9649 47.959 54.9774C47.6717 54.9898 47.3908 54.9408 47.1164 54.8303C46.5484 54.5886 46.1272 54.1635 45.8526 53.5551C45.5781 52.9467 45.4434 52.3777 45.4486 51.8481C45.4582 51.3067 45.5749 50.7756 45.7988 50.2548C46.2769 49.1505 47.1328 48.2126 48.3665 47.4411L48.8662 48.5485ZM56.5092 65.4872C55.0513 66.0864 53.7152 66.2304 52.5007 65.9192C51.3414 65.6221 50.5202 64.9381 50.037 63.8673C49.6929 63.1047 49.6776 62.3891 49.991 61.7204C50.2651 61.1378 50.7186 60.7037 51.3514 60.4182C51.9922 60.1291 52.5179 60.0823 52.9284 60.2778C53.3433 60.4617 53.6642 60.8051 53.8912 61.308C54.1181 61.811 54.2139 62.2072 54.1785 62.4965C54.1394 62.7778 54.05 63.0232 53.9102 63.2327C53.7785 63.4386 53.6241 63.6157 53.4469 63.764C53.266 63.9042 53.1276 64.0301 53.0315 64.1418C53.2993 64.519 53.6755 64.7251 54.1601 64.7604C54.641 64.7875 55.1613 64.6747 55.7211 64.4222L55.8428 64.3672C55.8914 64.3453 55.9342 64.3211 55.9711 64.2947L56.5092 65.4872ZM52.9091 50.8544C52.188 49.2563 51.2508 48.4343 50.0974 48.3884L49.4495 46.9525C51.0233 46.2423 52.5125 46.0586 53.9169 46.4013C55.3449 46.7529 56.3444 47.5615 56.9154 48.827C57.4645 50.0439 57.4318 51.2157 56.8173 52.3424C56.379 53.1456 55.6123 53.9456 54.517 54.7425L54.5146 54.8021C56.0266 54.3445 57.2975 54.2397 58.3272 54.4878C59.6302 54.7787 60.6019 55.634 61.2425 57.0536C61.8904 58.4895 61.8706 59.9387 61.183 61.4011C60.5072 62.8679 59.3066 64.059 57.5812 64.9742L56.9333 63.5383C57.8267 62.5103 57.8561 61.0715 57.0215 59.2219C56.0807 57.137 54.8695 56.1945 53.3877 56.3944C52.9154 56.4513 52.4156 56.5987 51.8883 56.8367L51.1338 57.1771C50.9229 57.2722 50.7314 57.2806 50.5592 57.202C50.3952 57.1198 50.2784 57.0016 50.2088 56.8475C50.1393 56.6933 50.1261 56.5235 50.1694 56.338C50.2171 56.1408 50.3464 55.9945 50.5573 55.8994L51.3604 55.537C53.3885 54.6219 53.9048 53.061 52.9091 50.8544ZM68.6661 59.8407C67.3566 60.3144 66.1555 60.3682 65.0627 60.002C63.9971 59.6529 63.2355 58.9713 62.778 57.9572C62.2948 56.8864 62.4067 55.9767 63.1137 55.228C63.3301 54.9937 63.5966 54.8051 63.9129 54.6624C64.2293 54.5196 64.5271 54.4438 64.8063 54.435C65.0936 54.4225 65.355 54.4608 65.5904 54.5499C66.0613 54.728 66.4158 55.0806 66.6537 55.608C66.877 56.1028 66.775 56.6126 66.3478 57.1373C66.0759 57.4651 65.9128 57.7096 65.8586 57.8707C65.8088 58.0201 65.8187 58.1719 65.8882 58.326C65.9578 58.4801 66.072 58.6141 66.2307 58.728C66.3859 58.8338 66.5643 58.9046 66.766 58.9405C67.1857 59.005 67.6507 58.9319 68.161 58.7212L68.6661 59.8407ZM66.1465 44.032C64.2887 44.8703 62.3275 45.7064 60.2628 46.5404L62.816 52.1988C63.0686 52.7586 62.9555 53.1464 62.4769 53.3624C61.9983 53.5784 61.6144 53.3659 61.3252 52.725L60.9577 51.7484L57.3735 43.7725C59.2948 43.1399 61.1437 42.4228 62.9203 41.6212C64.7051 40.8159 65.7199 40.0895 65.9647 39.442C66.2081 39.3321 66.4333 39.2794 66.6402 39.2836C67.5114 41.2144 67.3468 42.7972 66.1465 44.032ZM67.0441 49.8516C66.6287 49.5801 66.2063 49.4339 65.777 49.4128C65.3557 49.3881 64.922 49.4764 64.4758 49.6777C64.0296 49.879 63.6671 50.1793 63.3884 50.5784L62.7899 49.2521C63.3103 48.5876 63.972 48.0742 64.7751 47.7119C65.5783 47.3495 66.4112 47.1396 67.2739 47.0824C68.1365 47.0251 68.9554 47.1194 69.7303 47.3654C71.3861 47.8973 72.5892 48.9948 73.3396 50.6579C74.101 52.3452 74.1414 53.982 73.4608 55.5682C72.8091 57.1316 71.5718 58.3929 69.7491 59.352L69.1616 58.05C69.7332 57.4991 70.0324 56.7881 70.0591 55.9168C70.0903 55.0337 69.8972 54.1298 69.4799 53.205C69.0626 52.2801 68.6533 51.5568 68.2518 51.0349C67.8584 50.5094 67.4559 50.115 67.0441 49.8516ZM83.8588 53.132C81.9993 53.8148 80.2234 53.5469 78.5312 52.3284C76.9279 51.1771 75.5222 49.2629 74.3143 46.5858C73.1246 43.9493 72.6291 41.6391 72.8275 39.6554C73.0299 37.5722 73.9946 36.0531 75.7216 35.0981L76.2816 36.3393C75.889 36.8972 75.8778 37.8787 76.2481 39.2836C76.6147 40.6805 77.3068 42.5065 78.3245 44.7617C79.3384 47.0089 80.2514 48.7401 81.0634 49.9555C81.8799 51.1591 82.625 51.8042 83.2987 51.8908L83.8588 53.132ZM84.3817 51.4021C84.7545 50.8433 84.7594 49.8696 84.3964 48.4809C84.0298 47.0841 83.334 45.2499 82.3091 42.9785C81.2842 40.707 80.373 38.9798 79.5756 37.7968C78.7782 36.6139 78.0431 35.9692 77.3701 35.8628L76.8046 34.6094C78.6382 33.9773 80.4029 34.2746 82.0988 35.5013C83.733 36.6777 85.1376 38.5679 86.3126 41.172C87.4949 43.7923 87.9846 46.1003 87.7817 48.0958C87.5638 50.1665 86.6154 51.6782 84.9363 52.6311L84.3817 51.4021ZM89.4108 31.4843C89.1448 32.0633 89.16 32.6813 89.4565 33.3384C89.753 33.9955 90.1337 34.4389 90.5986 34.6685C91.0598 34.89 91.6234 34.9921 92.2893 34.9748L88.9235 27.5154L90.3716 26.862L93.9735 34.8447C94.7631 34.8203 95.5299 34.821 96.2738 34.8466C97.0221 34.8604 97.723 34.964 98.3766 35.1573C99.8257 35.5775 100.878 36.5136 101.533 37.9658C102.071 39.1583 102.195 40.3961 101.905 41.6791C101.611 42.9739 100.935 44.0843 99.8785 45.0102L99.158 43.4459C99.6044 42.6392 99.6116 41.7571 99.1797 40.7999C98.7258 39.7939 97.9846 39.2008 96.9561 39.0204C96.6196 38.9672 96.244 38.9463 95.8293 38.9576L99.854 47.8772L98.4059 48.5306L94.1671 39.1365C92.5391 39.2071 91.3372 39.1294 90.5615 38.9033C89.7939 38.6736 89.1473 38.3551 88.6218 37.9478C88.1044 37.5368 87.7047 37.019 87.4229 36.3944C87.1374 35.7616 86.9633 35.1811 86.9007 34.6528C86.8344 34.1164 86.8594 33.5876 86.9758 33.0664C87.2153 31.9526 87.8183 30.9629 88.7849 30.0971L89.4108 31.4843ZM93.408 45.147C93.8137 45.7646 94.6061 45.9197 95.7855 45.6121L96.3401 46.8411C95.1136 47.1309 93.9463 47.0864 92.838 46.7077C91.6953 46.2958 90.9134 45.6233 90.4925 44.6904C90.1923 44.0252 90.1365 43.4254 90.3251 42.8912C90.4914 42.4158 90.8098 42.072 91.2803 41.8597C91.7508 41.6474 92.2356 41.6288 92.7345 41.8041C93.2606 41.9963 93.6243 42.3155 93.8256 42.7617C94.027 43.2079 94.1152 43.544 94.0902 43.77C94.0616 43.988 94.0022 44.1808 93.9118 44.3485C93.8215 44.5162 93.722 44.6636 93.6134 44.7907C93.5048 44.9178 93.4363 45.0366 93.408 45.147ZM93.8119 29.7475C93.5864 29.5075 93.2582 29.3968 92.8272 29.4155L92.3166 28.2838C93.9374 27.8943 95.2449 28.1196 96.2392 28.9598C96.5552 29.2273 96.7846 29.5193 96.9273 29.8356C97.0664 30.1439 97.1471 30.42 97.1692 30.6639C97.1914 30.9077 97.166 31.1437 97.0932 31.3719C96.9306 31.8553 96.5572 32.2289 95.9731 32.4924C95.1294 32.8731 94.459 32.8046 93.9617 32.2869C93.8163 32.1377 93.6997 31.9657 93.6118 31.771C93.3849 31.2681 93.4516 30.5936 93.8119 29.7475Z" fill="#578574"/>
</svg>
