<svg width="110" height="110" viewBox="0 0 110 110" fill="none" xmlns="http://www.w3.org/2000/svg">
<path d="M17.4615 101.492C20.0871 97.9612 22.2957 93.584 24.0432 88.452C12.2876 79.061 5.35608 64.7771 5.35608 49.6437C5.35608 22.2701 27.6264 0 55 0C82.3739 0 104.644 22.2701 104.644 49.6437C104.644 77.0176 82.3739 99.2877 55 99.2877C51.4448 99.2877 47.9052 98.9091 44.4501 98.1608C36.5548 104.268 28.0966 107.941 23.5813 109.639C18.6244 111.505 14.3035 105.737 17.4615 101.492Z" fill="#FECA57"/>
<path d="M55 8.46509C32.294 8.46509 13.8213 26.9378 13.8213 49.6438C13.8213 63.0668 20.3972 75.6854 31.4116 83.3983C32.8994 84.4401 33.5566 86.3152 33.0449 88.0578C32.0233 91.5372 30.8178 94.7691 29.437 97.7361C33.0208 95.8472 36.9971 93.389 40.7221 90.3036C41.7731 89.433 43.1782 89.123 44.4984 89.4698C47.9121 90.3672 51.4452 90.8224 55 90.8224C77.7059 90.8224 96.1789 72.3497 96.1789 49.6435C96.1789 26.9374 77.7059 8.46509 55 8.46509Z" fill="#F4B537"/>
<path d="M29.437 97.7363C31.3319 96.7377 33.3366 95.578 35.3557 94.2524C36.1304 92.2857 36.8364 90.2197 37.4711 88.0578C37.9828 86.3152 37.3256 84.44 35.8378 83.3982C24.8234 75.6854 18.2475 63.0667 18.2475 49.6435C18.2475 27.68 35.5321 9.67871 57.2131 8.52478C56.4802 8.48568 55.7425 8.46484 55 8.46484C32.294 8.46484 13.8213 26.9375 13.8213 49.6435C13.8213 63.0665 20.3972 75.6851 31.4116 83.3982C32.8994 84.44 33.5566 86.3152 33.0449 88.0578C32.0231 91.5372 30.8178 94.7693 29.437 97.7363Z" fill="#E59D1F"/>
<path d="M21.8771 101.492C24.2823 98.2577 26.3375 94.313 28.009 89.7286C28.2833 88.9762 28.0541 88.1334 27.442 87.6174C16.3047 78.2265 9.77198 64.3354 9.77198 49.6437C9.77198 23.0102 30.855 1.21107 57.2078 0.0515625C56.4756 0.0193359 55.74 0 55 0C27.6264 0 5.35608 22.2701 5.35608 49.6437C5.35608 64.7771 12.2874 79.061 24.043 88.452C22.2954 93.584 20.0871 97.9612 17.4612 101.492C14.4354 105.559 18.2852 111.66 23.9259 109.508C20.9318 108.136 19.7934 104.293 21.8771 101.492Z" fill="#F4B537"/>
<path d="M54.131 65.2762C51.0527 65.2762 48.548 67.8118 48.548 70.9288C48.548 74.0455 51.0525 76.5813 54.131 76.5813C57.1949 76.5813 59.7835 73.9927 59.7835 70.9288C59.7835 67.8647 57.1949 65.2762 54.131 65.2762Z" fill="#E4EAF8"/>
<path d="M55.0374 24.6144C45.4719 24.6144 41.0152 30.3595 41.0152 34.2424C41.0152 37.0079 43.3166 38.5002 45.482 38.5002C49.4968 38.5002 47.8363 33.1297 54.8281 33.1297C57.7264 33.1297 60.8231 34.3015 60.8231 37.5903C60.8231 44.3332 49.9426 43.6403 49.9426 56.0731C49.9426 59.7779 50.9818 61.0283 54.0607 61.0283C57.695 61.0283 58.4579 59.3198 58.4579 57.8866C58.4579 54.4403 58.4581 52.3597 62.2548 49.391C76.5058 38.307 69.9428 24.6144 55.0374 24.6144Z" fill="#E4EAF8"/>
<path d="M52.9742 70.9285C52.9742 68.6097 54.3608 66.6136 56.3382 65.7429C55.6561 65.4436 54.9091 65.276 54.1309 65.276C51.0524 65.276 48.548 67.8116 48.548 70.9285C48.548 74.0453 51.0524 76.5813 54.1309 76.5813C54.9091 76.5813 55.6561 76.4137 56.3382 76.1144C54.3608 75.2435 52.9742 73.2471 52.9742 70.9285Z" fill="#D8DCE5"/>
<path d="M57.2873 24.7224C46.8631 23.7144 41.0153 29.6039 41.0153 34.2421C41.0153 38.0586 45.4821 39.4566 47.4559 37.8298C42.7547 35.0298 46.4438 25.7915 57.2873 24.7224Z" fill="#D8DCE5"/>
<path d="M54.3691 56.0725C54.3691 43.6451 65.2496 44.3599 65.2496 37.5897C65.2496 33.3393 60.0515 32.6466 56.985 33.3631C59.08 33.8463 60.8234 35.122 60.8234 37.5897C60.8234 44.3328 49.9429 43.6395 49.9429 56.0725C49.9429 59.7773 50.9821 61.0277 54.061 61.0277C55.0151 61.0277 55.7694 60.9091 56.3661 60.7095C54.9098 60.1393 54.3691 58.7443 54.3691 56.0725Z" fill="#D8DCE5"/>
</svg>
