<svg width="440" height="156" viewBox="0 0 440 156" fill="none" xmlns="http://www.w3.org/2000/svg">
<path d="M44.25 27V26.5H44.1643L44.0835 26.5285L44.25 27ZM62.25 27H62.75V26.5H62.25V27ZM62.25 132V132.5H62.75V132H62.25ZM41.55 132H41.05V132.5H41.55V132ZM41.55 48.9H42.05V48.2406L41.415 48.4186L41.55 48.9ZM21.75 54.45L21.2695 54.5884L21.407 55.0654L21.885 54.9314L21.75 54.45ZM16.65 36.75L16.4835 36.2785L16.0391 36.4355L16.1695 36.8884L16.65 36.75ZM44.0835 26.5285L42.7035 27.016L43.0365 27.9589L44.4165 27.4714L44.0835 26.5285ZM39.9435 27.991L37.1835 28.966L37.5165 29.9089L40.2765 28.9339L39.9435 27.991ZM34.4235 29.941L31.6635 30.916L31.9965 31.8589L34.7565 30.8839L34.4235 29.941ZM28.9035 31.891L26.1435 32.866L26.4765 33.8089L29.2365 32.8339L28.9035 31.891ZM23.3835 33.841L20.6235 34.816L20.9565 35.7589L23.7165 34.7839L23.3835 33.841ZM17.8635 35.791L16.4835 36.2785L16.8165 37.2214L18.1965 36.7339L17.8635 35.791ZM16.1695 36.8884L16.5945 38.3634L17.5555 38.0866L17.1305 36.6116L16.1695 36.8884ZM17.4445 41.3134L18.2945 44.2634L19.2555 43.9866L18.4055 41.0366L17.4445 41.3134ZM19.1445 47.2134L19.9945 50.1634L20.9555 49.8866L20.1055 46.9366L19.1445 47.2134ZM20.8445 53.1134L21.2695 54.5884L22.2305 54.3116L21.8055 52.8366L20.8445 53.1134ZM21.885 54.9314L23.535 54.4689L23.265 53.5061L21.6151 53.9686L21.885 54.9314ZM26.835 53.5439L30.135 52.6189L29.8651 51.6561L26.565 52.5811L26.835 53.5439ZM33.435 51.6939L36.735 50.7689L36.465 49.8061L33.165 50.7311L33.435 51.6939ZM40.035 49.8439L41.685 49.3814L41.415 48.4186L39.7651 48.8811L40.035 49.8439ZM41.05 48.9V50.3839H42.05V48.9H41.05ZM41.05 53.3518V56.3196H42.05V53.3518H41.05ZM41.05 59.2875V62.2554H42.05V59.2875H41.05ZM41.05 65.2232V68.1911H42.05V65.2232H41.05ZM41.05 71.1589V74.1268H42.05V71.1589H41.05ZM41.05 77.0946V80.0625H42.05V77.0946H41.05ZM41.05 83.0304V85.9982H42.05V83.0304H41.05ZM41.05 88.9661V91.9339H42.05V88.9661H41.05ZM41.05 94.9018V97.8696H42.05V94.9018H41.05ZM41.05 100.837V103.805H42.05V100.837H41.05ZM41.05 106.773V109.741H42.05V106.773H41.05ZM41.05 112.709V115.677H42.05V112.709H41.05ZM41.05 118.645V121.613H42.05V118.645H41.05ZM41.05 124.58V127.548H42.05V124.58H41.05ZM41.05 130.516V132H42.05V130.516H41.05ZM41.55 132.5H43.275V131.5H41.55V132.5ZM46.725 132.5H50.175V131.5H46.725V132.5ZM53.625 132.5H57.075V131.5H53.625V132.5ZM60.525 132.5H62.25V131.5H60.525V132.5ZM62.75 132V130.542H61.75V132H62.75ZM62.75 127.625V124.708H61.75V127.625H62.75ZM62.75 121.792V118.875H61.75V121.792H62.75ZM62.75 115.958V113.042H61.75V115.958H62.75ZM62.75 110.125V107.208H61.75V110.125H62.75ZM62.75 104.292V101.375H61.75V104.292H62.75ZM62.75 98.4583V95.5417H61.75V98.4583H62.75ZM62.75 92.625V89.7083H61.75V92.625H62.75ZM62.75 86.7917V83.875H61.75V86.7917H62.75ZM62.75 80.9583V78.0416H61.75V80.9583H62.75ZM62.75 75.125V72.2083H61.75V75.125H62.75ZM62.75 69.2916V66.375H61.75V69.2916H62.75ZM62.75 63.4583V60.5416H61.75V63.4583H62.75ZM62.75 57.625V54.7083H61.75V57.625H62.75ZM62.75 51.7917V48.875H61.75V51.7917H62.75ZM62.75 45.9583V43.0417H61.75V45.9583H62.75ZM62.75 40.125V37.2083H61.75V40.125H62.75ZM62.75 34.2917V31.375H61.75V34.2917H62.75ZM62.75 28.4583V27H61.75V28.4583H62.75ZM62.25 26.5H60.75V27.5H62.25V26.5ZM57.75 26.5H54.75V27.5H57.75V26.5ZM51.75 26.5H48.75V27.5H51.75V26.5ZM45.75 26.5H44.25V27.5H45.75V26.5ZM44.25 27V26H44.0786L43.9169 26.0571L44.25 27ZM62.25 27H63.25V26H62.25V27ZM62.25 132V133H63.25V132H62.25ZM41.55 132H40.55V133H41.55V132ZM41.55 48.9H42.55V47.5812L41.2801 47.9371L41.55 48.9ZM21.75 54.45L20.7891 54.7269L21.064 55.6808L22.0199 55.4129L21.75 54.45ZM16.65 36.75L16.3169 35.8071L15.4281 36.1211L15.6891 37.0269L16.65 36.75ZM43.9169 26.0571L42.5369 26.5446L43.2031 28.4304L44.5831 27.9429L43.9169 26.0571ZM39.7769 27.5196L37.0169 28.4946L37.6831 30.3804L40.4431 29.4054L39.7769 27.5196ZM34.2569 29.4696L31.4969 30.4446L32.1631 32.3304L34.9231 31.3554L34.2569 29.4696ZM28.7369 31.4196L25.9769 32.3946L26.6431 34.2804L29.4031 33.3054L28.7369 31.4196ZM23.2169 33.3696L20.4569 34.3446L21.1231 36.2304L23.8831 35.2554L23.2169 33.3696ZM17.6969 35.3196L16.3169 35.8071L16.9831 37.6929L18.3631 37.2054L17.6969 35.3196ZM15.6891 37.0269L16.1141 38.5019L18.0359 37.9481L17.6109 36.4731L15.6891 37.0269ZM16.9641 41.4519L17.8141 44.4019L19.7359 43.8481L18.8859 40.8981L16.9641 41.4519ZM18.6641 47.3519L19.5141 50.3019L21.4359 49.7481L20.5859 46.7981L18.6641 47.3519ZM20.3641 53.2519L20.7891 54.7269L22.7109 54.1731L22.2859 52.6981L20.3641 53.2519ZM22.0199 55.4129L23.6699 54.9504L23.1301 53.0246L21.4801 53.4871L22.0199 55.4129ZM26.9699 54.0254L30.2699 53.1004L29.7301 51.1746L26.4301 52.0996L26.9699 54.0254ZM33.5699 52.1754L36.8699 51.2504L36.3301 49.3246L33.0301 50.2496L33.5699 52.1754ZM40.1699 50.3254L41.8199 49.8629L41.2801 47.9371L39.6301 48.3996L40.1699 50.3254ZM40.55 48.9V50.3839H42.55V48.9H40.55ZM40.55 53.3518V56.3196H42.55V53.3518H40.55ZM40.55 59.2875V62.2554H42.55V59.2875H40.55ZM40.55 65.2232V68.1911H42.55V65.2232H40.55ZM40.55 71.1589V74.1268H42.55V71.1589H40.55ZM40.55 77.0946V80.0625H42.55V77.0946H40.55ZM40.55 83.0304V85.9982H42.55V83.0304H40.55ZM40.55 88.9661V91.9339H42.55V88.9661H40.55ZM40.55 94.9018V97.8696H42.55V94.9018H40.55ZM40.55 100.837V103.805H42.55V100.837H40.55ZM40.55 106.773V109.741H42.55V106.773H40.55ZM40.55 112.709V115.677H42.55V112.709H40.55ZM40.55 118.645V121.613H42.55V118.645H40.55ZM40.55 124.58V127.548H42.55V124.58H40.55ZM40.55 130.516V132H42.55V130.516H40.55ZM41.55 133H43.275V131H41.55V133ZM46.725 133H50.175V131H46.725V133ZM53.625 133H57.075V131H53.625V133ZM60.525 133H62.25V131H60.525V133ZM63.25 132V130.542H61.25V132H63.25ZM63.25 127.625V124.708H61.25V127.625H63.25ZM63.25 121.792V118.875H61.25V121.792H63.25ZM63.25 115.958V113.042H61.25V115.958H63.25ZM63.25 110.125V107.208H61.25V110.125H63.25ZM63.25 104.292V101.375H61.25V104.292H63.25ZM63.25 98.4583V95.5417H61.25V98.4583H63.25ZM63.25 92.625V89.7083H61.25V92.625H63.25ZM63.25 86.7917V83.875H61.25V86.7917H63.25ZM63.25 80.9583V78.0416H61.25V80.9583H63.25ZM63.25 75.125V72.2083H61.25V75.125H63.25ZM63.25 69.2916V66.375H61.25V69.2916H63.25ZM63.25 63.4583V60.5416H61.25V63.4583H63.25ZM63.25 57.625V54.7083H61.25V57.625H63.25ZM63.25 51.7917V48.875H61.25V51.7917H63.25ZM63.25 45.9583V43.0417H61.25V45.9583H63.25ZM63.25 40.125V37.2083H61.25V40.125H63.25ZM63.25 34.2917V31.375H61.25V34.2917H63.25ZM63.25 28.4583V27H61.25V28.4583H63.25ZM62.25 26H60.75V28H62.25V26ZM57.75 26H54.75V28H57.75V26ZM51.75 26H48.75V28H51.75V26ZM45.75 26H44.25V28H45.75V26ZM89.3578 119.25L88.9559 119.547L88.9593 119.552L89.3578 119.25ZM89.3578 39.9L88.9578 39.6L88.9573 39.6006L89.3578 39.9ZM151.158 39.9L150.756 40.1974L150.757 40.1993L151.158 39.9ZM151.158 119.25L151.558 119.549L151.56 119.547L151.158 119.25ZM104.358 105.15L103.931 105.41L103.933 105.414L104.358 105.15ZM136.158 105L135.734 104.734L135.731 104.74L136.158 105ZM136.158 53.85L135.731 54.1104L135.734 54.1156L136.158 53.85ZM120.258 133.6C119.763 133.6 119.273 133.593 118.786 133.579L118.757 134.578C119.253 134.593 119.754 134.6 120.258 134.6V133.6ZM115.853 133.402C114.864 133.31 113.893 133.188 112.941 133.033L112.781 134.02C113.756 134.178 114.75 134.304 115.761 134.398L115.853 133.402ZM110.066 132.458C109.106 132.229 108.165 131.964 107.245 131.665L106.936 132.616C107.882 132.923 108.848 133.195 109.833 133.431L110.066 132.458ZM104.501 130.646C103.597 130.267 102.715 129.851 101.854 129.399L101.389 130.284C102.276 130.75 103.184 131.178 104.114 131.568L104.501 130.646ZM99.3238 127.928C98.5053 127.404 97.7073 126.843 96.9297 126.245L96.3204 127.038C97.1204 127.653 97.9417 128.23 98.7843 128.77L99.3238 127.928ZM94.6839 124.366C93.968 123.716 93.2713 123.031 92.5937 122.312L91.8656 122.997C92.5607 123.735 93.2759 124.438 94.0114 125.107L94.6839 124.366ZM90.6633 120.104C90.3566 119.727 90.0543 119.341 89.7564 118.948L88.9593 119.552C89.264 119.954 89.5734 120.348 89.8874 120.735L90.6633 120.104ZM89.7597 118.953C89.4661 118.556 89.1783 118.154 88.8964 117.746L88.0741 118.316C88.362 118.731 88.6559 119.142 88.9559 119.547L89.7597 118.953ZM87.2841 115.255C86.7755 114.413 86.2897 113.552 85.8266 112.67L84.9412 113.134C85.4135 114.034 85.9092 114.913 86.4282 115.772L87.2841 115.255ZM84.5226 110.001C84.1171 109.107 83.7329 108.195 83.3701 107.263L82.4382 107.626C82.8075 108.574 83.1988 109.504 83.612 110.414L84.5226 110.001ZM82.3639 104.466C82.0555 103.535 81.7669 102.586 81.498 101.619L80.5346 101.887C80.8077 102.869 81.101 103.833 81.4146 104.78L82.3639 104.466ZM80.7664 98.7358C80.5466 97.7802 80.3447 96.8085 80.1609 95.8206L79.1778 96.0036C79.3641 97.0049 79.5688 97.9904 79.7919 98.96L80.7664 98.7358ZM79.6741 92.8811C79.5326 91.9099 79.4074 90.9241 79.2986 89.9236L78.3044 90.0317C78.4145 91.0439 78.5412 92.0418 78.6846 93.0253L79.6741 92.8811ZM79.027 86.9535C78.9539 85.9742 78.8957 84.9817 78.8524 83.9758L77.8533 84.0189C77.8971 85.0349 77.9559 86.0379 78.0298 87.0279L79.027 86.9535ZM78.7681 80.9927C78.7612 80.4982 78.7578 80.0006 78.7578 79.5H77.7578C77.7578 80.0052 77.7613 80.5074 77.7682 81.0066L78.7681 80.9927ZM78.7578 79.5C78.7578 79.001 78.7612 78.505 78.768 78.0121L77.7681 77.9983C77.7612 78.4959 77.7578 78.9964 77.7578 79.5H78.7578ZM78.8518 75.0386C78.8949 74.0359 78.9528 73.0466 79.0255 72.0706L78.0282 71.9964C77.9548 72.983 77.8963 73.9828 77.8528 74.9957L78.8518 75.0386ZM79.2957 69.1105C79.404 68.113 79.5286 67.1304 79.6696 66.1626L78.68 66.0184C78.5373 66.9986 78.4111 67.9933 78.3015 69.0025L79.2957 69.1105ZM80.1546 63.2326C80.3378 62.2477 80.539 61.2792 80.7582 60.327L79.7837 60.1027C79.5613 61.0689 79.3572 62.0513 79.1714 63.0497L80.1546 63.2326ZM81.4882 57.4532C81.7566 56.4899 82.0448 55.5444 82.3527 54.6169L81.4036 54.3018C81.0905 55.2451 80.7976 56.2061 80.5249 57.1848L81.4882 57.4532ZM83.3583 51.8299C83.7211 50.9015 84.1053 49.9926 84.5109 49.103L83.601 48.6881C83.1877 49.5948 82.7963 50.5207 82.4269 51.4659L83.3583 51.8299ZM85.8162 46.4463C86.2801 45.5682 86.7668 44.7108 87.2762 43.8739L86.4221 43.3539C85.9019 44.2083 85.4052 45.0834 84.932 45.9792L85.8162 46.4463ZM88.8924 41.3974C89.1752 40.9927 89.4638 40.5934 89.7583 40.1993L88.9573 39.6006C88.6564 40.0033 88.3615 40.4113 88.0727 40.8246L88.8924 41.3974ZM89.7578 40.2C90.0546 39.8043 90.3558 39.4165 90.6613 39.0368L89.8822 38.4099C89.5695 38.7986 89.2613 39.1953 88.9578 39.6L89.7578 40.2ZM92.5848 36.8136C93.2604 36.0883 93.955 35.3978 94.6686 34.7421L93.992 34.0058C93.2589 34.6794 92.5459 35.3881 91.8531 36.132L92.5848 36.8136ZM96.9091 32.8462C97.6854 32.2426 98.4822 31.6759 99.2994 31.1459L98.7552 30.3069C97.9139 30.8525 97.094 31.4358 96.2953 32.0567L96.9091 32.8462ZM101.827 29.6583C102.689 29.2005 103.571 28.7796 104.474 28.3956L104.083 27.4753C103.153 27.8705 102.245 28.3038 101.358 28.7753L101.827 29.6583ZM107.221 27.3628C108.142 27.0595 109.084 26.7913 110.045 26.5582L109.81 25.5864C108.823 25.8256 107.855 26.1011 106.908 26.4129L107.221 27.3628ZM112.925 25.9751C113.879 25.8185 114.852 25.6938 115.843 25.6011L115.75 24.6054C114.737 24.7002 113.741 24.8278 112.763 24.9883L112.925 25.9751ZM118.783 25.4217C119.27 25.4072 119.762 25.4 120.258 25.4V24.4C119.752 24.4 119.251 24.4074 118.753 24.4221L118.783 25.4217ZM120.258 25.4C120.754 25.4 121.246 25.4071 121.734 25.4214L121.763 24.4218C121.265 24.4073 120.764 24.4 120.258 24.4V25.4ZM124.676 25.5986C125.668 25.6902 126.642 25.8135 127.596 25.9684L127.757 24.9813C126.779 24.8226 125.782 24.6965 124.768 24.6028L124.676 25.5986ZM130.48 26.5459C131.443 26.7771 132.386 27.0432 133.308 27.3442L133.618 26.3936C132.67 26.0842 131.702 25.8108 130.713 25.5735L130.48 26.5459ZM136.058 28.3712C136.963 28.7537 137.847 29.1732 138.709 29.6295L139.177 28.7457C138.289 28.2757 137.379 27.8438 136.447 27.4501L136.058 28.3712ZM141.239 31.115C142.057 31.6451 142.854 32.2122 143.63 32.8163L144.244 32.0273C143.446 31.4056 142.626 30.8217 141.783 30.2757L141.239 31.115ZM145.868 34.7165C146.581 35.3743 147.273 36.0672 147.946 36.7953L148.68 36.1167C147.99 35.3695 147.279 34.6579 146.547 33.9817L145.868 34.7165ZM149.859 39.0284C150.163 39.41 150.462 39.7997 150.756 40.1974L151.56 39.6026C151.259 39.1956 150.953 38.7967 150.642 38.4059L149.859 39.0284ZM150.757 40.1993C151.052 40.5934 151.34 40.9927 151.623 41.3974L152.443 40.8246C152.154 40.4113 151.859 40.0033 151.558 39.6006L150.757 40.1993ZM153.239 43.8739C153.749 44.7108 154.236 45.5682 154.699 46.4463L155.584 45.9792C155.11 45.0834 154.614 44.2083 154.094 43.3539L153.239 43.8739ZM156.005 49.103C156.41 49.9926 156.795 50.9015 157.157 51.8299L158.089 51.4659C157.719 50.5207 157.328 49.5948 156.915 48.6881L156.005 49.103ZM158.163 54.6169C158.471 55.5444 158.759 56.4899 159.027 57.4532L159.991 57.1848C159.718 56.2061 159.425 55.2451 159.112 54.3018L158.163 54.6169ZM159.757 60.327C159.977 61.2792 160.178 62.2477 160.361 63.2326L161.344 63.0497C161.158 62.0513 160.954 61.0689 160.732 60.1027L159.757 60.327ZM160.846 66.1626C160.987 67.1304 161.112 68.113 161.22 69.1105L162.214 69.0025C162.105 67.9933 161.978 66.9986 161.836 66.0184L160.846 66.1626ZM161.49 72.0706C161.563 73.0466 161.621 74.0359 161.664 75.0386L162.663 74.9957C162.619 73.9828 162.561 72.983 162.487 71.9964L161.49 72.0706ZM161.748 78.0121C161.754 78.505 161.758 79.001 161.758 79.5H162.758C162.758 78.9964 162.754 78.4959 162.748 77.9983L161.748 78.0121ZM161.758 79.5C161.758 80.0006 161.754 80.4982 161.748 80.9927L162.747 81.0066C162.754 80.5074 162.758 80.0052 162.758 79.5H161.758ZM161.663 83.9758C161.62 84.9817 161.562 85.9742 161.489 86.9535L162.486 87.0279C162.56 86.0379 162.619 85.0349 162.662 84.0189L161.663 83.9758ZM161.217 89.9236C161.108 90.9241 160.983 91.9099 160.842 92.8811L161.831 93.0253C161.974 92.0418 162.101 91.0439 162.211 90.0317L161.217 89.9236ZM160.355 95.8206C160.171 96.8085 159.969 97.7802 159.749 98.7358L160.724 98.96C160.947 97.9904 161.152 97.0049 161.338 96.0035L160.355 95.8206ZM159.018 101.619C158.749 102.586 158.46 103.535 158.152 104.466L159.101 104.78C159.415 103.833 159.708 102.869 159.981 101.887L159.018 101.619ZM157.146 107.263C156.783 108.195 156.399 109.107 155.993 110.001L156.904 110.414C157.317 109.504 157.708 108.574 158.077 107.626L157.146 107.263ZM154.689 112.67C154.226 113.552 153.74 114.413 153.232 115.255L154.087 115.772C154.606 114.913 155.102 114.034 155.574 113.134L154.689 112.67ZM151.619 117.746C151.337 118.154 151.05 118.556 150.756 118.953L151.56 119.547C151.86 119.142 152.154 118.731 152.441 118.316L151.619 117.746ZM150.757 118.951C150.462 119.346 150.162 119.733 149.857 120.112L150.637 120.739C150.949 120.35 151.256 119.954 151.558 119.549L150.757 118.951ZM147.937 122.33C147.262 123.052 146.568 123.74 145.853 124.392L146.527 125.131C147.262 124.46 147.975 123.754 148.668 123.012L147.937 122.33ZM143.609 126.275C142.832 126.873 142.034 127.434 141.214 127.959L141.753 128.801C142.598 128.261 143.419 127.683 144.219 127.067L143.609 126.275ZM138.682 129.427C137.82 129.878 136.937 130.292 136.031 130.67L136.417 131.593C137.348 131.204 138.258 130.778 139.146 130.314L138.682 129.427ZM133.283 131.683C132.362 131.98 131.421 132.243 130.459 132.471L130.689 133.444C131.677 133.21 132.644 132.94 133.59 132.635L133.283 131.683ZM127.581 133.04C126.628 133.193 125.656 133.314 124.666 133.404L124.757 134.4C125.769 134.308 126.763 134.184 127.739 134.027L127.581 133.04ZM121.731 133.579C121.244 133.593 120.753 133.6 120.258 133.6V134.6C120.762 134.6 121.263 134.593 121.759 134.578L121.731 133.579ZM104.785 104.89C104.507 104.435 104.24 103.964 103.984 103.476L103.099 103.941C103.365 104.447 103.642 104.937 103.931 105.41L104.785 104.89ZM102.638 100.509C102.255 99.529 101.906 98.4965 101.592 97.4112L100.632 97.6893C100.954 98.8015 101.312 99.8628 101.706 100.873L102.638 100.509ZM100.801 94.2292C100.582 93.1919 100.39 92.1142 100.225 90.9961L99.2354 91.1425C99.4038 92.2795 99.5995 93.3772 99.8228 94.4357L100.801 94.2292ZM99.8283 87.7313C99.7257 86.6679 99.6444 85.5726 99.5844 84.4453L98.5858 84.4984C98.6466 85.6392 98.7289 86.7489 98.8329 87.8273L99.8283 87.7313ZM99.4712 81.1514C99.4623 80.6076 99.4578 80.0571 99.4578 79.5H98.4578C98.4578 80.0625 98.4623 80.6184 98.4714 81.1678L99.4712 81.1514ZM99.4578 79.5C99.4578 78.9429 99.4623 78.3924 99.4712 77.8486L98.4714 77.8322C98.4623 78.3816 98.4578 78.9375 98.4578 79.5H99.4578ZM99.5844 74.5547C99.6444 73.4274 99.7257 72.3321 99.8283 71.2687L98.8329 71.1727C98.7289 72.2511 98.6466 73.3608 98.5858 74.5016L99.5844 74.5547ZM100.225 68.0039C100.39 66.8858 100.582 65.8081 100.801 64.7707L99.8228 64.5643C99.5995 65.6228 99.4038 66.7205 99.2354 67.8575L100.225 68.0039ZM101.592 61.5888C101.906 60.5035 102.255 59.471 102.638 58.4911L101.706 58.1272C101.312 59.1372 100.954 60.1984 100.632 61.3107L101.592 61.5888ZM103.984 55.5239C104.24 55.0362 104.507 54.5651 104.785 54.1104L103.931 53.5896C103.642 54.0631 103.365 54.5529 103.099 55.059L103.984 55.5239ZM104.785 54.1104C105.06 53.6584 105.346 53.2246 105.642 52.8089L104.827 52.2295C104.517 52.6649 104.219 53.1183 103.931 53.5896L104.785 54.1104ZM107.631 50.4311C108.371 49.6833 109.159 49.0217 109.995 48.4455L109.427 47.6222C108.538 48.235 107.703 48.937 106.92 49.7277L107.631 50.4311ZM112.691 46.9521C113.62 46.5502 114.599 46.2314 115.628 45.996L115.405 45.0212C114.319 45.2696 113.281 45.6072 112.294 46.0342L112.691 46.9521ZM118.699 45.5517C119.208 45.5173 119.728 45.5 120.258 45.5V44.5C119.706 44.5 119.164 44.518 118.632 44.554L118.699 45.5517ZM120.258 45.5C120.788 45.5 121.308 45.5173 121.817 45.5517L121.884 44.554C121.352 44.518 120.81 44.5 120.258 44.5V45.5ZM124.888 45.996C125.917 46.2314 126.896 46.5502 127.825 46.9521L128.222 46.0342C127.234 45.6072 126.197 45.2696 125.111 45.0212L124.888 45.996ZM130.521 48.4455C131.357 49.0217 132.145 49.6833 132.885 50.4311L133.595 49.7277C132.813 48.937 131.977 48.235 131.089 47.6222L130.521 48.4455ZM134.874 52.8089C135.17 53.2246 135.455 53.6584 135.731 54.1104L136.585 53.5896C136.297 53.1183 135.999 52.6649 135.689 52.2295L134.874 52.8089ZM135.734 54.1156C136.018 54.568 136.291 55.0367 136.553 55.5218L137.433 55.0466C137.161 54.543 136.877 54.0556 136.581 53.5844L135.734 54.1156ZM137.934 58.4787C138.327 59.4571 138.685 60.4879 139.008 61.5714L139.967 61.2856C139.635 60.1746 139.267 59.1145 138.861 58.1056L137.934 58.4787ZM139.823 64.7524C140.048 65.7903 140.246 66.8686 140.417 67.9875L141.406 67.8368C141.232 66.6985 141.03 65.5996 140.8 64.5401L139.823 64.7524ZM140.826 71.2561C140.932 72.3209 141.015 73.4178 141.077 74.5469L142.076 74.4921C142.013 73.3492 141.928 72.2375 141.821 71.1573L140.826 71.2561ZM141.194 77.8459C141.203 78.3906 141.208 78.9419 141.208 79.5H142.208C142.208 78.9364 142.203 78.3794 142.194 77.829L141.194 77.8459ZM141.208 79.5C141.208 80.0549 141.203 80.6031 141.194 81.1447L142.194 81.1618C142.203 80.6144 142.208 80.0604 142.208 79.5H141.208ZM141.076 84.425C141.014 85.5474 140.93 86.638 140.824 87.6971L141.819 87.797C141.926 86.7223 142.012 85.6168 142.075 84.4804L141.076 84.425ZM140.413 90.9468C140.242 92.0586 140.043 93.1305 139.817 94.1627L140.793 94.3768C141.025 93.3229 141.227 92.2303 141.401 91.099L140.413 90.9468ZM139.001 97.3241C138.678 98.3999 138.319 99.4242 137.926 100.397L138.853 100.772C139.259 99.7686 139.627 98.7151 139.959 97.6118L139.001 97.3241ZM136.549 103.336C136.288 103.818 136.017 104.284 135.734 104.734L136.581 105.266C136.875 104.797 137.158 104.312 137.428 103.812L136.549 103.336ZM135.731 104.74C135.455 105.192 135.17 105.625 134.874 106.041L135.689 106.62C135.999 106.185 136.297 105.732 136.585 105.26L135.731 104.74ZM132.885 108.419C132.145 109.167 131.357 109.828 130.521 110.405L131.089 111.228C131.977 110.615 132.813 109.913 133.595 109.122L132.885 108.419ZM127.825 111.898C126.896 112.3 125.917 112.619 124.888 112.854L125.111 113.829C126.197 113.58 127.234 113.243 128.222 112.816L127.825 111.898ZM121.817 113.298C121.308 113.333 120.788 113.35 120.258 113.35V114.35C120.81 114.35 121.352 114.332 121.884 114.296L121.817 113.298ZM120.258 113.35C119.73 113.35 119.213 113.333 118.706 113.3L118.64 114.297C119.169 114.333 119.709 114.35 120.258 114.35V113.35ZM115.647 112.867C114.62 112.637 113.644 112.326 112.717 111.934L112.327 112.855C113.312 113.272 114.346 113.601 115.429 113.843L115.647 112.867ZM110.019 110.472C109.18 109.906 108.389 109.256 107.647 108.521L106.943 109.231C107.729 110.009 108.568 110.699 109.459 111.301L110.019 110.472ZM105.646 106.174C105.348 105.763 105.06 105.334 104.783 104.886L103.933 105.414C104.223 105.88 104.524 106.329 104.836 106.76L105.646 106.174ZM89.3578 119.25L88.5539 119.845L88.5607 119.854L89.3578 119.25ZM89.3578 39.9L88.5578 39.3L88.5568 39.3013L89.3578 39.9ZM151.158 39.9L150.354 40.4948L150.357 40.4987L151.158 39.9ZM151.158 119.25L151.959 119.849L151.962 119.845L151.158 119.25ZM104.358 105.15L103.504 105.671L103.508 105.677L104.358 105.15ZM136.158 105L135.311 104.469L135.304 104.479L136.158 105ZM136.158 53.85L135.304 54.3709L135.311 54.3813L136.158 53.85ZM120.258 133.1C119.768 133.1 119.282 133.093 118.801 133.079L118.742 135.078C119.244 135.093 119.749 135.1 120.258 135.1V133.1ZM115.899 132.904C114.921 132.814 113.962 132.692 113.021 132.54L112.701 134.514C113.688 134.674 114.693 134.801 115.715 134.895L115.899 132.904ZM110.182 131.972C109.235 131.745 108.307 131.484 107.4 131.19L106.781 133.092C107.74 133.403 108.719 133.678 109.717 133.917L110.182 131.972ZM104.694 130.185C103.804 129.811 102.935 129.402 102.086 128.956L101.156 130.727C102.056 131.199 102.977 131.633 103.92 132.029L104.694 130.185ZM99.5936 127.507C98.7871 126.99 98.0007 126.438 97.2343 125.849L96.0158 127.435C96.8269 128.058 97.6599 128.643 98.5146 129.191L99.5936 127.507ZM95.0201 123.996C94.314 123.355 93.6266 122.679 92.9577 121.969L91.5016 123.34C92.2054 124.087 92.9299 124.8 93.6752 125.477L95.0201 123.996ZM91.0513 119.789C90.7482 119.416 90.4494 119.035 90.1549 118.646L88.5607 119.854C88.8689 120.261 89.1818 120.659 89.4994 121.05L91.0513 119.789ZM90.1617 118.655C89.8711 118.263 89.5864 117.865 89.3075 117.462L87.663 118.6C87.9539 119.02 88.2509 119.435 88.554 119.845L90.1617 118.655ZM87.712 114.997C87.2087 114.164 86.7278 113.31 86.2692 112.437L84.4985 113.367C84.9754 114.275 85.476 115.163 86.0002 116.031L87.712 114.997ZM84.9779 109.794C84.5762 108.909 84.1956 108.005 83.836 107.082L81.9723 107.807C82.3449 108.764 82.7396 109.702 83.1567 110.621L84.9779 109.794ZM82.8385 104.309C82.5328 103.385 82.2465 102.444 81.9797 101.485L80.0529 102.021C80.3281 103.011 80.6238 103.983 80.9399 104.937L82.8385 104.309ZM81.2537 98.6237C81.0355 97.6751 80.8351 96.7103 80.6525 95.7292L78.6862 96.095C78.8738 97.1031 79.0799 98.0955 79.3046 99.0721L81.2537 98.6237ZM80.1689 92.809C80.0282 91.8439 79.9038 90.8641 79.7956 89.8695L77.8074 90.0857C77.9181 91.1039 78.0455 92.1078 78.1898 93.0975L80.1689 92.809ZM79.5256 86.9163C79.453 85.9424 79.3951 84.955 79.3519 83.9543L77.3538 84.0404C77.3978 85.0615 77.4569 86.0698 77.5312 87.0651L79.5256 86.9163ZM79.268 80.9858C79.2612 80.4936 79.2578 79.9983 79.2578 79.5H77.2578C77.2578 80.0075 77.2613 80.5119 77.2682 81.0135L79.268 80.9858ZM79.2578 79.5C79.2578 79.0032 79.2612 78.5096 79.268 78.019L77.2682 77.9914C77.2613 78.4913 77.2578 78.9941 77.2578 79.5H79.2578ZM79.3514 75.0601C79.3942 74.0625 79.4518 73.0784 79.5241 72.1078L77.5296 71.9592C77.4558 72.9512 77.397 73.9562 77.3532 74.9743L79.3514 75.0601ZM79.7927 69.1645C79.9004 68.1729 80.0243 67.1963 80.1644 66.2346L78.1852 65.9464C78.0416 66.9327 77.9147 67.9334 77.8044 68.9486L79.7927 69.1645ZM80.6461 63.3241C80.8281 62.3459 81.0279 61.3843 81.2455 60.4392L79.2965 59.9905C79.0724 60.9638 78.8669 61.9531 78.6799 62.9582L80.6461 63.3241ZM81.9698 57.5875C82.2361 56.6317 82.522 55.694 82.8273 54.7744L80.9291 54.1443C80.6133 55.0955 80.3181 56.0643 80.0432 57.0506L81.9698 57.5875ZM83.824 52.0119C84.1835 51.0919 84.5642 50.1915 84.9659 49.3104L83.1461 48.4807C82.7288 49.3959 82.3339 50.3303 81.9612 51.2839L83.824 52.0119ZM86.2583 46.6798C86.7175 45.8106 87.1992 44.962 87.7033 44.1339L85.995 43.0939C85.4695 43.9571 84.9678 44.841 84.4899 45.7456L86.2583 46.6798ZM89.3023 41.6837C89.582 41.2834 89.8675 40.8884 90.1588 40.4987L88.5568 39.3013C88.2527 39.7082 87.9547 40.1205 87.6628 40.5383L89.3023 41.6837ZM90.1578 40.5C90.4513 40.1087 90.749 39.7255 91.0509 39.3503L89.4926 38.0965C89.1763 38.4897 88.8647 38.8908 88.5578 39.3L90.1578 40.5ZM92.9507 37.1544C93.6176 36.4383 94.303 35.757 95.0069 35.1103L93.6537 33.6376C92.9109 34.3201 92.1887 35.0381 91.4872 35.7912L92.9507 37.1544ZM97.2159 33.2409C97.9812 32.646 98.7663 32.0875 99.5714 31.5654L98.4832 29.8874C97.6298 30.4408 96.7982 31.0324 95.9884 31.662L97.2159 33.2409ZM102.062 30.0999C102.91 29.6488 103.78 29.2341 104.67 28.8557L103.887 27.0152C102.945 27.416 102.023 27.8555 101.123 28.3337L102.062 30.0999ZM107.377 27.8377C108.286 27.5387 109.214 27.2742 110.163 27.0442L109.692 25.1004C108.692 25.3428 107.712 25.6219 106.752 25.938L107.377 27.8377ZM113.006 26.4685C113.949 26.3138 114.91 26.1906 115.89 26.0989L115.704 24.1076C114.679 24.2034 113.672 24.3325 112.682 24.4949L113.006 26.4685ZM118.798 25.9215C119.28 25.9072 119.767 25.9 120.258 25.9V23.9C119.747 23.9 119.241 23.9074 118.738 23.9223L118.798 25.9215ZM120.258 25.9C120.749 25.9 121.236 25.9071 121.719 25.9212L121.778 23.922C121.275 23.9073 120.768 23.9 120.258 23.9V25.9ZM124.63 26.0964C125.611 26.187 126.573 26.3089 127.516 26.4619L127.837 24.4877C126.847 24.3272 125.839 24.1996 124.814 24.1049L124.63 26.0964ZM130.363 27.0321C131.314 27.2603 132.244 27.5228 133.153 27.8196L133.773 25.9183C132.812 25.6046 131.831 25.3277 130.83 25.0873L130.363 27.0321ZM135.863 28.8318C136.755 29.2087 137.626 29.6219 138.475 30.0714L139.411 28.3038C138.51 27.827 137.587 27.3889 136.642 26.9895L135.863 28.8318ZM140.967 31.5347C141.773 32.0568 142.558 32.6155 143.323 33.2108L144.552 31.6328C143.742 31.0023 142.91 30.41 142.055 29.8561L140.967 31.5347ZM145.529 35.0838C146.232 35.7325 146.915 36.416 147.579 37.1346L149.048 35.7774C148.349 35.0207 147.628 34.2997 146.886 33.6143L145.529 35.0838ZM149.468 39.3397C149.768 39.7166 150.063 40.1017 150.354 40.4948L151.962 39.3052C151.657 38.8936 151.348 38.4901 151.033 38.0947L149.468 39.3397ZM150.357 40.4987C150.648 40.8884 150.934 41.2834 151.213 41.6837L152.853 40.5383C152.561 40.1205 152.263 39.7082 151.959 39.3013L150.357 40.4987ZM152.812 44.1339C153.316 44.962 153.798 45.8106 154.257 46.6798L156.026 45.7456C155.548 44.841 155.046 43.9571 154.521 43.0939L152.812 44.1339ZM155.55 49.3104C155.951 50.1915 156.332 51.0919 156.692 52.0119L158.554 51.2839C158.182 50.3303 157.787 49.3959 157.37 48.4807L155.55 49.3104ZM157.688 54.7744C157.994 55.694 158.279 56.6317 158.546 57.5875L160.472 57.0506C160.198 56.0643 159.902 55.0955 159.587 54.1443L157.688 54.7744ZM159.27 60.4392C159.488 61.3843 159.688 62.3459 159.869 63.3241L161.836 62.9582C161.649 61.9531 161.443 60.9638 161.219 59.9905L159.27 60.4392ZM160.351 66.2346C160.491 67.1963 160.615 68.1729 160.723 69.1645L162.711 68.9486C162.601 67.9334 162.474 66.9327 162.33 65.9464L160.351 66.2346ZM160.992 72.1078C161.064 73.0784 161.121 74.0625 161.164 75.0601L163.162 74.9743C163.119 73.9562 163.06 72.9512 162.986 71.9592L160.992 72.1078ZM161.248 78.019C161.254 78.5096 161.258 79.0032 161.258 79.5H163.258C163.258 78.9941 163.254 78.4913 163.247 77.9914L161.248 78.019ZM161.258 79.5C161.258 79.9983 161.254 80.4936 161.248 80.9858L163.247 81.0135C163.254 80.5119 163.258 80.0075 163.258 79.5H161.258ZM161.164 83.9543C161.121 84.955 161.063 85.9424 160.99 86.9163L162.984 87.0651C163.059 86.0698 163.118 85.0615 163.162 84.0404L161.164 83.9543ZM160.72 89.8695C160.612 90.8641 160.487 91.8439 160.347 92.809L162.326 93.0975C162.47 92.1078 162.598 91.1039 162.708 90.0857L160.72 89.8695ZM159.863 95.7291C159.681 96.7103 159.48 97.6751 159.262 98.6237L161.211 99.0721C161.436 98.0955 161.642 97.1031 161.829 96.095L159.863 95.7291ZM158.536 101.485C158.269 102.444 157.983 103.385 157.677 104.309L159.576 104.937C159.892 103.983 160.187 103.011 160.463 102.021L158.536 101.485ZM156.68 107.082C156.32 108.005 155.939 108.909 155.538 109.794L157.359 110.621C157.776 109.702 158.171 108.764 158.543 107.807L156.68 107.082ZM154.246 112.437C153.788 113.31 153.307 114.164 152.804 114.997L154.515 116.031C155.04 115.163 155.54 114.275 156.017 113.367L154.246 112.437ZM151.208 117.462C150.929 117.865 150.645 118.263 150.354 118.655L151.962 119.845C152.265 119.435 152.562 119.02 152.853 118.6L151.208 117.462ZM150.357 118.651C150.065 119.042 149.768 119.425 149.467 119.799L151.026 121.052C151.342 120.659 151.653 120.258 151.959 119.849L150.357 118.651ZM147.572 121.989C146.906 122.701 146.22 123.38 145.516 124.023L146.864 125.5C147.609 124.82 148.332 124.105 149.033 123.354L147.572 121.989ZM143.304 125.879C142.539 126.468 141.752 127.021 140.945 127.538L142.023 129.222C142.879 128.674 143.713 128.088 144.524 127.464L143.304 125.879ZM138.45 128.984C137.601 129.428 136.731 129.836 135.839 130.209L136.609 132.054C137.554 131.66 138.477 131.228 139.377 130.757L138.45 128.984ZM133.13 131.207C132.222 131.5 131.293 131.759 130.343 131.984L130.805 133.93C131.804 133.693 132.784 133.42 133.743 133.111L133.13 131.207ZM127.501 132.546C126.56 132.697 125.6 132.817 124.621 132.906L124.802 134.898C125.825 134.805 126.831 134.679 127.818 134.521L127.501 132.546ZM121.716 133.079C121.234 133.093 120.748 133.1 120.258 133.1V135.1C120.767 135.1 121.273 135.093 121.774 135.078L121.716 133.079ZM105.211 104.629C104.94 104.184 104.678 103.722 104.427 103.244L102.656 104.173C102.927 104.689 103.209 105.188 103.504 105.671L105.211 104.629ZM103.104 100.327C102.727 99.362 102.383 98.3439 102.072 97.2721L100.151 97.8284C100.477 98.9541 100.84 100.03 101.241 101.055L103.104 100.327ZM101.29 94.126C101.074 93.0993 100.883 92.0316 100.719 90.9228L98.7408 91.2157C98.9105 92.3621 99.108 93.4699 99.3336 94.5389L101.29 94.126ZM100.326 87.6833C100.224 86.6274 100.143 85.5392 100.084 84.4187L98.0865 84.525C98.1476 85.6726 98.2305 86.7894 98.3352 87.8753L100.326 87.6833ZM99.9712 81.1431C99.9623 80.6022 99.9578 80.0545 99.9578 79.5H97.9578C97.9578 80.0652 97.9624 80.6238 97.9714 81.176L99.9712 81.1431ZM99.9578 79.5C99.9578 78.9455 99.9623 78.3978 99.9712 77.8569L97.9714 77.824C97.9624 78.3761 97.9578 78.9348 97.9578 79.5H99.9578ZM100.084 74.5813C100.143 73.4608 100.224 72.3726 100.326 71.3167L98.3352 71.1247C98.2305 72.2106 98.1476 73.3274 98.0865 74.475L100.084 74.5813ZM100.719 68.0772C100.883 66.9684 101.074 65.9007 101.29 64.874L99.3336 64.4611C99.108 65.5301 98.9105 66.6379 98.7408 67.7843L100.719 68.0772ZM102.072 61.7279C102.383 60.6561 102.727 59.638 103.104 58.673L101.241 57.9453C100.84 58.9703 100.477 60.0459 100.151 61.1716L102.072 61.7279ZM104.427 55.7563C104.678 55.2779 104.94 54.8161 105.211 54.3709L103.504 53.3291C103.209 53.8121 102.927 54.3113 102.656 54.8266L104.427 55.7563ZM105.211 54.3709C105.481 53.9285 105.761 53.5044 106.049 53.0986L104.419 51.9398C104.103 52.3851 103.798 52.8482 103.504 53.3291L105.211 54.3709ZM107.986 50.7829C108.705 50.0565 109.469 49.415 110.278 48.8571L109.143 47.2106C108.228 47.8416 107.369 48.5639 106.565 49.3759L107.986 50.7829ZM112.889 47.411C113.789 47.0217 114.739 46.7122 115.739 46.4835L115.294 44.5338C114.179 44.7888 113.112 45.1356 112.096 45.5753L112.889 47.411ZM118.733 46.0506C119.23 46.0169 119.739 46 120.258 46V44C119.695 44 119.142 44.0183 118.598 44.0551L118.733 46.0506ZM120.258 46C120.777 46 121.285 46.0169 121.783 46.0506L121.918 44.0551C121.374 44.0183 120.821 44 120.258 44V46ZM124.776 46.4835C125.777 46.7122 126.726 47.0217 127.626 47.411L128.42 45.5753C127.404 45.1356 126.337 44.7888 125.222 44.5338L124.776 46.4835ZM130.237 48.8571C131.046 49.415 131.81 50.0565 132.529 50.7829L133.951 49.3759C133.147 48.5639 132.288 47.8416 131.373 47.2106L130.237 48.8571ZM134.467 53.0986C134.755 53.5045 135.034 53.9285 135.304 54.3709L137.011 53.3291C136.718 52.8482 136.413 52.3851 136.097 51.9398L134.467 53.0986ZM135.311 54.3813C135.588 54.8242 135.856 55.2835 136.113 55.7593L137.873 54.809C137.596 54.2962 137.306 53.7994 137.005 53.3187L135.311 54.3813ZM137.47 58.6652C137.857 59.6284 138.21 60.6446 138.529 61.7143L140.446 61.1427C140.11 60.0179 139.737 58.9432 139.325 57.9191L137.47 58.6652ZM139.334 64.8586C139.557 65.8856 139.754 66.9537 139.923 68.0629L141.9 67.7614C141.725 66.6135 141.521 65.5042 141.289 64.4339L139.334 64.8586ZM140.328 71.3055C140.433 72.3626 140.516 73.4522 140.578 74.5742L142.575 74.4648C142.512 73.3149 142.426 72.1959 142.318 71.1078L140.328 71.3055ZM140.694 77.8544C140.703 78.3962 140.708 78.9447 140.708 79.5H142.708C142.708 78.9337 142.703 78.3738 142.694 77.8205L140.694 77.8544ZM140.708 79.5C140.708 80.0521 140.703 80.5974 140.694 81.1361L142.694 81.1704C142.703 80.62 142.708 80.0632 142.708 79.5H140.708ZM140.577 84.3973C140.515 85.5127 140.432 86.5959 140.326 87.6471L142.316 87.8469C142.425 86.7645 142.511 85.6515 142.574 84.5081L140.577 84.3973ZM139.919 90.8706C139.749 91.9727 139.552 93.0343 139.328 94.0556L141.282 94.4838C141.515 93.4191 141.72 92.3161 141.895 91.1751L139.919 90.8706ZM138.522 97.1803C138.203 98.2423 137.85 99.2521 137.463 100.21L139.317 100.959C139.729 99.9407 140.102 98.8727 140.437 97.7556L138.522 97.1803ZM136.109 103.098C135.853 103.571 135.587 104.028 135.311 104.469L137.005 105.531C137.305 105.053 137.593 104.559 137.868 104.05L136.109 103.098ZM135.304 104.479C135.034 104.922 134.755 105.346 134.467 105.751L136.097 106.91C136.413 106.465 136.718 106.002 137.011 105.521L135.304 104.479ZM132.529 108.067C131.81 108.794 131.046 109.435 130.237 109.993L131.373 111.639C132.288 111.008 133.147 110.286 133.951 109.474L132.529 108.067ZM127.626 111.439C126.726 111.828 125.777 112.138 124.776 112.367L125.222 114.316C126.337 114.061 127.404 113.714 128.42 113.275L127.626 111.439ZM121.783 112.799C121.285 112.833 120.777 112.85 120.258 112.85V114.85C120.821 114.85 121.374 114.832 121.918 114.795L121.783 112.799ZM120.258 112.85C119.741 112.85 119.234 112.834 118.739 112.801L118.607 114.796C119.148 114.832 119.698 114.85 120.258 114.85V112.85ZM115.756 112.379C114.757 112.156 113.81 111.853 112.911 111.474L112.132 113.316C113.146 113.744 114.209 114.082 115.319 114.331L115.756 112.379ZM110.299 110.058C109.486 109.51 108.72 108.879 107.999 108.165L106.591 109.587C107.398 110.386 108.261 111.096 109.18 111.716L110.299 110.058ZM106.051 105.881C105.76 105.48 105.479 105.06 105.207 104.623L103.508 105.677C103.804 106.154 104.111 106.613 104.431 107.054L106.051 105.881ZM183.84 119.25L183.438 119.547L183.442 119.552L183.84 119.25ZM183.84 39.9L183.44 39.6L183.44 39.6006L183.84 39.9ZM245.64 39.9L245.238 40.1974L245.24 40.1993L245.64 39.9ZM245.64 119.25L246.041 119.549L246.042 119.547L245.64 119.25ZM198.84 105.15L198.413 105.41L198.415 105.414L198.84 105.15ZM230.64 105L230.217 104.734L230.213 104.74L230.64 105ZM230.64 53.85L230.213 54.1104L230.217 54.1156L230.64 53.85ZM214.74 133.6C214.246 133.6 213.755 133.593 213.269 133.579L213.239 134.578C213.736 134.593 214.236 134.6 214.74 134.6V133.6ZM210.335 133.402C209.346 133.31 208.376 133.188 207.423 133.033L207.263 134.02C208.239 134.178 209.232 134.304 210.243 134.398L210.335 133.402ZM204.548 132.458C203.588 132.229 202.648 131.964 201.727 131.665L201.418 132.616C202.364 132.923 203.33 133.195 204.316 133.431L204.548 132.458ZM198.983 130.646C198.08 130.267 197.198 129.851 196.336 129.399L195.871 130.284C196.758 130.75 197.667 131.178 198.596 131.568L198.983 130.646ZM193.806 127.928C192.988 127.404 192.19 126.843 191.412 126.245L190.803 127.038C191.603 127.653 192.424 128.23 193.267 128.77L193.806 127.928ZM189.166 124.366C188.45 123.716 187.754 123.031 187.076 122.312L186.348 122.997C187.043 123.735 187.758 124.438 188.494 125.107L189.166 124.366ZM185.146 120.104C184.839 119.727 184.537 119.341 184.239 118.948L183.442 119.552C183.746 119.954 184.056 120.348 184.37 120.735L185.146 120.104ZM184.242 118.953C183.948 118.556 183.661 118.154 183.379 117.746L182.557 118.316C182.844 118.731 183.138 119.142 183.438 119.547L184.242 118.953ZM181.767 115.255C181.258 114.413 180.772 113.552 180.309 112.67L179.424 113.134C179.896 114.034 180.392 114.913 180.911 115.772L181.767 115.255ZM179.005 110.001C178.6 109.107 178.215 108.195 177.852 107.263L176.921 107.626C177.29 108.574 177.681 109.504 178.094 110.414L179.005 110.001ZM176.846 104.466C176.538 103.535 176.249 102.586 175.98 101.619L175.017 101.887C175.29 102.869 175.583 103.833 175.897 104.78L176.846 104.466ZM175.249 98.7358C175.029 97.7802 174.827 96.8085 174.643 95.8206L173.66 96.0036C173.847 97.0049 174.051 97.9904 174.274 98.96L175.249 98.7358ZM174.157 92.8811C174.015 91.9099 173.89 90.9241 173.781 89.9236L172.787 90.0317C172.897 91.0439 173.024 92.0418 173.167 93.0253L174.157 92.8811ZM173.509 86.9535C173.436 85.9742 173.378 84.9817 173.335 83.9758L172.336 84.0189C172.38 85.0349 172.438 86.0379 172.512 87.0279L173.509 86.9535ZM173.25 80.9927C173.244 80.4982 173.24 80.0006 173.24 79.5H172.24C172.24 80.0052 172.244 80.5074 172.251 81.0066L173.25 80.9927ZM173.24 79.5C173.24 79.001 173.244 78.505 173.25 78.0121L172.251 77.9983C172.244 78.4959 172.24 78.9964 172.24 79.5H173.24ZM173.334 75.0386C173.377 74.0359 173.435 73.0466 173.508 72.0706L172.511 71.9964C172.437 72.983 172.379 73.9828 172.335 74.9957L173.334 75.0386ZM173.778 69.1105C173.886 68.113 174.011 67.1304 174.152 66.1626L173.162 66.0184C173.02 66.9986 172.894 67.9933 172.784 69.0025L173.778 69.1105ZM174.637 63.2326C174.82 62.2477 175.021 61.2792 175.241 60.327L174.266 60.1027C174.044 61.0689 173.84 62.0513 173.654 63.0497L174.637 63.2326ZM175.971 57.4532C176.239 56.4899 176.527 55.5444 176.835 54.6169L175.886 54.3018C175.573 55.2451 175.28 56.2061 175.007 57.1848L175.971 57.4532ZM177.841 51.8299C178.204 50.9015 178.588 49.9926 178.993 49.103L178.083 48.6881C177.67 49.5948 177.279 50.5207 176.909 51.4659L177.841 51.8299ZM180.299 46.4463C180.762 45.5682 181.249 44.7108 181.759 43.8739L180.905 43.3539C180.384 44.2083 179.888 45.0834 179.414 45.9792L180.299 46.4463ZM183.375 41.3974C183.658 40.9927 183.946 40.5934 184.241 40.1993L183.44 39.6006C183.139 40.0033 182.844 40.4113 182.555 40.8246L183.375 41.3974ZM184.24 40.2C184.537 39.8043 184.838 39.4165 185.144 39.0368L184.365 38.4099C184.052 38.7986 183.744 39.1953 183.44 39.6L184.24 40.2ZM187.067 36.8136C187.743 36.0883 188.437 35.3978 189.151 34.7421L188.474 34.0058C187.741 34.6794 187.028 35.3881 186.335 36.132L187.067 36.8136ZM191.391 32.8462C192.168 32.2426 192.965 31.6759 193.782 31.1459L193.238 30.3069C192.396 30.8525 191.576 31.4358 190.778 32.0567L191.391 32.8462ZM196.309 29.6583C197.171 29.2005 198.053 28.7796 198.957 28.3956L198.565 27.4753C197.636 27.8705 196.727 28.3038 195.84 28.7753L196.309 29.6583ZM201.703 27.3628C202.625 27.0595 203.566 26.7913 204.528 26.5582L204.292 25.5864C203.305 25.8256 202.338 26.1011 201.39 26.4129L201.703 27.3628ZM207.408 25.9751C208.362 25.8185 209.334 25.6938 210.326 25.6011L210.232 24.6054C209.219 24.7002 208.223 24.8278 207.246 24.9883L207.408 25.9751ZM213.265 25.4217C213.753 25.4072 214.244 25.4 214.74 25.4V24.4C214.235 24.4 213.733 24.4074 213.236 24.4221L213.265 25.4217ZM214.74 25.4C215.237 25.4 215.729 25.4071 216.216 25.4214L216.246 24.4218C215.748 24.4073 215.246 24.4 214.74 24.4V25.4ZM219.158 25.5986C220.151 25.6902 221.124 25.8135 222.079 25.9684L222.239 24.9813C221.261 24.8226 220.265 24.6965 219.25 24.6028L219.158 25.5986ZM224.962 26.5459C225.925 26.7771 226.868 27.0432 227.79 27.3442L228.101 26.3936C227.153 26.0842 226.184 25.8108 225.195 25.5735L224.962 26.5459ZM230.54 28.3712C231.446 28.7537 232.329 29.1732 233.191 29.6295L233.659 28.7457C232.771 28.2757 231.861 27.8438 230.93 27.4501L230.54 28.3712ZM235.722 31.115C236.54 31.6451 237.337 32.2122 238.112 32.8163L238.727 32.0273C237.929 31.4056 237.108 30.8217 236.265 30.2757L235.722 31.115ZM240.351 34.7165C241.063 35.3743 241.756 36.0672 242.428 36.7953L243.163 36.1167C242.473 35.3695 241.761 34.6579 241.029 33.9817L240.351 34.7165ZM244.342 39.0284C244.645 39.41 244.944 39.7997 245.238 40.1974L246.042 39.6026C245.741 39.1956 245.435 38.7967 245.124 38.4059L244.342 39.0284ZM245.24 40.1993C245.534 40.5934 245.823 40.9927 246.106 41.3974L246.925 40.8246C246.637 40.4113 246.342 40.0033 246.041 39.6006L245.24 40.1993ZM247.722 43.8739C248.231 44.7108 248.718 45.5682 249.182 46.4463L250.066 45.9792C249.593 45.0834 249.096 44.2083 248.576 43.3539L247.722 43.8739ZM250.487 49.103C250.893 49.9926 251.277 50.9015 251.64 51.8299L252.571 51.4659C252.202 50.5207 251.81 49.5948 251.397 48.6881L250.487 49.103ZM252.645 54.6169C252.953 55.5444 253.241 56.4899 253.51 57.4532L254.473 57.1848C254.2 56.2061 253.908 55.2451 253.594 54.3018L252.645 54.6169ZM254.24 60.327C254.459 61.2792 254.66 62.2477 254.843 63.2326L255.827 63.0497C255.641 62.0513 255.437 61.0689 255.214 60.1027L254.24 60.327ZM255.328 66.1626C255.469 67.1304 255.594 68.113 255.702 69.1105L256.697 69.0025C256.587 67.9933 256.461 66.9986 256.318 66.0184L255.328 66.1626ZM255.973 72.0706C256.045 73.0466 256.103 74.0359 256.146 75.0386L257.145 74.9957C257.102 73.9828 257.043 72.983 256.97 71.9964L255.973 72.0706ZM256.23 78.0121C256.237 78.505 256.24 79.001 256.24 79.5H257.24C257.24 78.9964 257.237 78.4959 257.23 77.9983L256.23 78.0121ZM256.24 79.5C256.24 80.0006 256.237 80.4982 256.23 80.9927L257.23 81.0066C257.237 80.5074 257.24 80.0052 257.24 79.5H256.24ZM256.146 83.9758C256.102 84.9817 256.044 85.9742 255.971 86.9535L256.968 87.0279C257.042 86.0379 257.101 85.0349 257.145 84.0189L256.146 83.9758ZM255.699 89.9236C255.591 90.9241 255.465 91.9099 255.324 92.8811L256.313 93.0253C256.457 92.0418 256.584 91.0439 256.694 90.0317L255.699 89.9236ZM254.837 95.8206C254.653 96.8085 254.451 97.7802 254.232 98.7358L255.206 98.96C255.429 97.9904 255.634 97.0049 255.82 96.0035L254.837 95.8206ZM253.5 101.619C253.231 102.586 252.943 103.535 252.634 104.466L253.583 104.78C253.897 103.833 254.19 102.869 254.463 101.887L253.5 101.619ZM251.628 107.263C251.265 108.195 250.881 109.107 250.475 110.001L251.386 110.414C251.799 109.504 252.191 108.574 252.56 107.626L251.628 107.263ZM249.172 112.67C248.708 113.552 248.223 114.413 247.714 115.255L248.57 115.772C249.089 114.913 249.585 114.034 250.057 113.134L249.172 112.67ZM246.102 117.746C245.82 118.154 245.532 118.556 245.238 118.953L246.042 119.547C246.342 119.142 246.636 118.731 246.924 118.316L246.102 117.746ZM245.24 118.951C244.944 119.346 244.644 119.733 244.34 120.112L245.119 120.739C245.431 120.35 245.738 119.954 246.041 119.549L245.24 118.951ZM242.419 122.33C241.745 123.052 241.05 123.74 240.335 124.392L241.009 125.131C241.744 124.46 242.458 123.754 243.15 123.012L242.419 122.33ZM238.092 126.275C237.315 126.873 236.516 127.434 235.697 127.959L236.236 128.801C237.08 128.261 237.902 127.683 238.702 127.067L238.092 126.275ZM233.165 129.427C232.303 129.878 231.419 130.292 230.514 130.67L230.899 131.593C231.831 131.204 232.74 130.778 233.628 130.314L233.165 129.427ZM227.766 131.683C226.845 131.98 225.903 132.243 224.941 132.471L225.172 133.444C226.159 133.21 227.126 132.94 228.072 132.635L227.766 131.683ZM222.063 133.04C221.11 133.193 220.139 133.314 219.149 133.404L219.239 134.4C220.252 134.308 221.246 134.184 222.221 134.027L222.063 133.04ZM216.213 133.579C215.726 133.593 215.235 133.6 214.74 133.6V134.6C215.245 134.6 215.745 134.593 216.242 134.578L216.213 133.579ZM199.267 104.89C198.99 104.435 198.723 103.964 198.467 103.476L197.581 103.941C197.847 104.447 198.124 104.937 198.413 105.41L199.267 104.89ZM197.12 100.509C196.737 99.529 196.389 98.4965 196.075 97.4112L195.114 97.6893C195.436 98.8015 195.794 99.8628 196.189 100.873L197.12 100.509ZM195.284 94.2292C195.065 93.1919 194.873 92.1142 194.707 90.9961L193.718 91.1425C193.886 92.2795 194.082 93.3772 194.305 94.4357L195.284 94.2292ZM194.311 87.7313C194.208 86.6679 194.127 85.5726 194.067 84.4453L193.068 84.4984C193.129 85.6392 193.211 86.7489 193.315 87.8273L194.311 87.7313ZM193.954 81.1514C193.945 80.6076 193.94 80.0571 193.94 79.5H192.94C192.94 80.0625 192.945 80.6184 192.954 81.1678L193.954 81.1514ZM193.94 79.5C193.94 78.9429 193.945 78.3924 193.954 77.8486L192.954 77.8322C192.945 78.3816 192.94 78.9375 192.94 79.5H193.94ZM194.067 74.5547C194.127 73.4274 194.208 72.3321 194.311 71.2687L193.315 71.1727C193.211 72.2511 193.129 73.3608 193.068 74.5016L194.067 74.5547ZM194.707 68.0039C194.873 66.8858 195.065 65.8081 195.284 64.7707L194.305 64.5643C194.082 65.6228 193.886 66.7205 193.718 67.8575L194.707 68.0039ZM196.075 61.5888C196.389 60.5035 196.737 59.471 197.12 58.4911L196.189 58.1272C195.794 59.1372 195.436 60.1984 195.114 61.3107L196.075 61.5888ZM198.467 55.5239C198.723 55.0362 198.99 54.5651 199.267 54.1104L198.413 53.5896C198.124 54.0631 197.847 54.5529 197.581 55.059L198.467 55.5239ZM199.267 54.1104C199.543 53.6584 199.829 53.2246 200.124 52.8089L199.309 52.2295C198.999 52.6649 198.701 53.1183 198.413 53.5896L199.267 54.1104ZM202.113 50.4311C202.853 49.6833 203.641 49.0217 204.477 48.4455L203.909 47.6222C203.021 48.235 202.185 48.937 201.403 49.7277L202.113 50.4311ZM207.173 46.9521C208.103 46.5502 209.081 46.2314 210.11 45.996L209.887 45.0212C208.801 45.2696 207.764 45.6072 206.776 46.0342L207.173 46.9521ZM213.181 45.5517C213.691 45.5173 214.21 45.5 214.74 45.5V44.5C214.188 44.5 213.646 44.518 213.114 44.554L213.181 45.5517ZM214.74 45.5C215.27 45.5 215.79 45.5173 216.299 45.5517L216.367 44.554C215.834 44.518 215.292 44.5 214.74 44.5V45.5ZM219.37 45.996C220.399 46.2314 221.378 46.5502 222.307 46.9521L222.704 46.0342C221.717 45.6072 220.679 45.2696 219.593 45.0212L219.37 45.996ZM225.004 48.4455C225.839 49.0217 226.627 49.6833 227.367 50.4311L228.078 49.7277C227.295 48.937 226.46 48.235 225.571 47.6222L225.004 48.4455ZM229.356 52.8089C229.652 53.2246 229.938 53.6584 230.213 54.1104L231.067 53.5896C230.78 53.1183 230.481 52.6649 230.171 52.2295L229.356 52.8089ZM230.217 54.1156C230.5 54.568 230.773 55.0367 231.035 55.5218L231.915 55.0466C231.643 54.543 231.359 54.0556 231.064 53.5844L230.217 54.1156ZM232.416 58.4787C232.809 59.4571 233.168 60.4879 233.491 61.5714L234.449 61.2856C234.118 60.1746 233.749 59.1145 233.344 58.1056L232.416 58.4787ZM234.305 64.7524C234.531 65.7903 234.729 66.8686 234.899 67.9875L235.888 67.8368C235.714 66.6985 235.513 65.5996 235.282 64.5401L234.305 64.7524ZM235.308 71.2561C235.414 72.3209 235.498 73.4178 235.56 74.5469L236.558 74.4921C236.496 73.3492 236.411 72.2375 236.303 71.1573L235.308 71.2561ZM235.676 77.8459C235.686 78.3906 235.69 78.9419 235.69 79.5H236.69C236.69 78.9364 236.686 78.3794 236.676 77.829L235.676 77.8459ZM235.69 79.5C235.69 80.0549 235.686 80.6031 235.676 81.1447L236.676 81.1618C236.686 80.6144 236.69 80.0604 236.69 79.5H235.69ZM235.559 84.425C235.497 85.5474 235.412 86.638 235.306 87.6971L236.301 87.797C236.409 86.7223 236.494 85.6168 236.557 84.4804L235.559 84.425ZM234.895 90.9468C234.724 92.0586 234.525 93.1305 234.299 94.1627L235.276 94.3768C235.507 93.3229 235.71 92.2303 235.884 91.099L234.895 90.9468ZM233.483 97.3241C233.16 98.3999 232.802 99.4242 232.409 100.397L233.336 100.772C233.741 99.7686 234.11 98.7151 234.441 97.6118L233.483 97.3241ZM231.031 103.336C230.771 103.818 230.499 104.284 230.217 104.734L231.064 105.266C231.358 104.797 231.64 104.312 231.911 103.812L231.031 103.336ZM230.213 104.74C229.938 105.192 229.652 105.625 229.356 106.041L230.171 106.62C230.481 106.185 230.78 105.732 231.067 105.26L230.213 104.74ZM227.367 108.419C226.627 109.167 225.839 109.828 225.004 110.405L225.571 111.228C226.46 110.615 227.295 109.913 228.078 109.122L227.367 108.419ZM222.307 111.898C221.378 112.3 220.399 112.619 219.37 112.854L219.593 113.829C220.679 113.58 221.717 113.243 222.704 112.816L222.307 111.898ZM216.299 113.298C215.79 113.333 215.27 113.35 214.74 113.35V114.35C215.292 114.35 215.834 114.332 216.367 114.296L216.299 113.298ZM214.74 113.35C214.212 113.35 213.695 113.333 213.188 113.3L213.122 114.297C213.652 114.333 214.191 114.35 214.74 114.35V113.35ZM210.129 112.867C209.103 112.637 208.126 112.326 207.199 111.934L206.809 112.855C207.794 113.272 208.828 113.601 209.911 113.843L210.129 112.867ZM204.501 110.472C203.663 109.906 202.872 109.256 202.129 108.521L201.426 109.231C202.211 110.009 203.05 110.699 203.942 111.301L204.501 110.472ZM200.128 106.174C199.83 105.763 199.543 105.334 199.265 104.886L198.415 105.414C198.705 105.88 199.006 106.329 199.318 106.76L200.128 106.174ZM183.84 119.25L183.036 119.845L183.043 119.854L183.84 119.25ZM183.84 39.9L183.04 39.3L183.039 39.3013L183.84 39.9ZM245.64 39.9L244.836 40.4948L244.839 40.4987L245.64 39.9ZM245.64 119.25L246.441 119.849L246.444 119.845L245.64 119.25ZM198.84 105.15L197.987 105.671L197.991 105.677L198.84 105.15ZM230.64 105L229.793 104.469L229.787 104.479L230.64 105ZM230.64 53.85L229.787 54.3709L229.793 54.3813L230.64 53.85ZM214.74 133.1C214.25 133.1 213.765 133.093 213.283 133.079L213.225 135.078C213.726 135.093 214.231 135.1 214.74 135.1V133.1ZM210.381 132.904C209.403 132.814 208.444 132.692 207.503 132.54L207.183 134.514C208.17 134.674 209.175 134.801 210.197 134.895L210.381 132.904ZM204.665 131.972C203.717 131.745 202.79 131.484 201.882 131.19L201.264 133.092C202.223 133.403 203.201 133.678 204.199 133.917L204.665 131.972ZM199.177 130.185C198.287 129.811 197.417 129.402 196.568 128.956L195.639 130.727C196.539 131.199 197.46 131.633 198.402 132.029L199.177 130.185ZM194.076 127.507C193.27 126.99 192.483 126.438 191.717 125.849L190.498 127.435C191.309 128.058 192.142 128.643 192.997 129.191L194.076 127.507ZM189.502 123.996C188.796 123.355 188.109 122.679 187.44 121.969L185.984 123.34C186.688 124.087 187.412 124.8 188.158 125.477L189.502 123.996ZM185.534 119.789C185.231 119.416 184.932 119.035 184.637 118.646L183.043 119.854C183.351 120.261 183.664 120.659 183.982 121.05L185.534 119.789ZM184.644 118.655C184.354 118.263 184.069 117.865 183.79 117.462L182.145 118.6C182.436 119.02 182.733 119.435 183.036 119.845L184.644 118.655ZM182.194 114.997C181.691 114.164 181.21 113.31 180.752 112.437L178.981 113.367C179.458 114.275 179.958 115.163 180.483 116.031L182.194 114.997ZM179.46 109.794C179.059 108.909 178.678 108.005 178.318 107.082L176.455 107.807C176.827 108.764 177.222 109.702 177.639 110.621L179.46 109.794ZM177.321 104.309C177.015 103.385 176.729 102.444 176.462 101.485L174.535 102.021C174.811 103.011 175.106 103.983 175.422 104.937L177.321 104.309ZM175.736 98.6237C175.518 97.6751 175.317 96.7103 175.135 95.7292L173.169 96.095C173.356 97.1031 173.562 98.0955 173.787 99.0721L175.736 98.6237ZM174.651 92.809C174.511 91.8439 174.386 90.8641 174.278 89.8695L172.29 90.0857C172.4 91.1039 172.528 92.1078 172.672 93.0975L174.651 92.809ZM174.008 86.9163C173.935 85.9424 173.877 84.955 173.834 83.9543L171.836 84.0404C171.88 85.0615 171.939 86.0698 172.014 87.0651L174.008 86.9163ZM173.75 80.9858C173.744 80.4936 173.74 79.9983 173.74 79.5H171.74C171.74 80.0075 171.744 80.5119 171.751 81.0135L173.75 80.9858ZM173.74 79.5C173.74 79.0032 173.744 78.5096 173.75 78.019L171.751 77.9914C171.744 78.4913 171.74 78.9941 171.74 79.5H173.74ZM173.834 75.0601C173.877 74.0625 173.934 73.0784 174.007 72.1078L172.012 71.9592C171.938 72.9512 171.879 73.9562 171.836 74.9743L173.834 75.0601ZM174.275 69.1645C174.383 68.1729 174.507 67.1963 174.647 66.2346L172.668 65.9464C172.524 66.9327 172.397 67.9334 172.287 68.9486L174.275 69.1645ZM175.129 63.3241C175.311 62.3459 175.51 61.3843 175.728 60.4392L173.779 59.9905C173.555 60.9638 173.349 61.9531 173.162 62.9582L175.129 63.3241ZM176.452 57.5875C176.719 56.6317 177.004 55.694 177.31 54.7744L175.412 54.1443C175.096 55.0955 174.8 56.0643 174.526 57.0506L176.452 57.5875ZM178.306 52.0119C178.666 51.0919 179.047 50.1915 179.448 49.3104L177.629 48.4807C177.211 49.3959 176.816 50.3303 176.444 51.2839L178.306 52.0119ZM180.741 46.6798C181.2 45.8106 181.682 44.962 182.186 44.1339L180.477 43.0939C179.952 43.9571 179.45 44.841 178.972 45.7456L180.741 46.6798ZM183.785 41.6837C184.064 41.2834 184.35 40.8884 184.641 40.4987L183.039 39.3013C182.735 39.7082 182.437 40.1205 182.145 40.5383L183.785 41.6837ZM184.64 40.5C184.934 40.1087 185.231 39.7255 185.533 39.3503L183.975 38.0965C183.659 38.4897 183.347 38.8908 183.04 39.3L184.64 40.5ZM187.433 37.1544C188.1 36.4383 188.785 35.757 189.489 35.1103L188.136 33.6376C187.393 34.3201 186.671 35.0381 185.97 35.7912L187.433 37.1544ZM191.698 33.2409C192.464 32.646 193.249 32.0875 194.054 31.5654L192.966 29.8874C192.112 30.4408 191.281 31.0324 190.471 31.662L191.698 33.2409ZM196.544 30.0999C197.393 29.6488 198.262 29.2341 199.152 28.8557L198.37 27.0152C197.427 27.416 196.506 27.8555 195.606 28.3337L196.544 30.0999ZM201.859 27.8377C202.768 27.5387 203.697 27.2742 204.646 27.0442L204.174 25.1004C203.175 25.3428 202.194 25.6219 201.234 25.938L201.859 27.8377ZM207.489 26.4685C208.431 26.3138 209.392 26.1906 210.372 26.0989L210.186 24.1076C209.161 24.2034 208.154 24.3325 207.165 24.4949L207.489 26.4685ZM213.28 25.9215C213.763 25.9072 214.249 25.9 214.74 25.9V23.9C214.23 23.9 213.723 23.9074 213.221 23.9223L213.28 25.9215ZM214.74 25.9C215.232 25.9 215.719 25.9071 216.202 25.9212L216.26 23.922C215.758 23.9073 215.251 23.9 214.74 23.9V25.9ZM219.112 26.0964C220.094 26.187 221.056 26.3089 221.999 26.4619L222.319 24.4877C221.33 24.3272 220.322 24.1996 219.296 24.1049L219.112 26.0964ZM224.845 27.0321C225.796 27.2603 226.726 27.5228 227.635 27.8196L228.256 25.9183C227.295 25.6046 226.314 25.3277 225.312 25.0873L224.845 27.0321ZM230.346 28.8318C231.238 29.2087 232.108 29.6219 232.957 30.0714L233.893 28.3038C232.992 27.827 232.069 27.3889 231.124 26.9895L230.346 28.8318ZM235.45 31.5347C236.256 32.0568 237.041 32.6155 237.805 33.2108L239.034 31.6328C238.224 31.0023 237.392 30.41 236.537 29.8561L235.45 31.5347ZM240.011 35.0838C240.714 35.7325 241.397 36.416 242.061 37.1346L243.53 35.7774C242.831 35.0207 242.11 34.2997 241.368 33.6143L240.011 35.0838ZM243.95 39.3397C244.25 39.7166 244.545 40.1017 244.836 40.4948L246.444 39.3052C246.14 38.8936 245.83 38.4901 245.516 38.0947L243.95 39.3397ZM244.839 40.4987C245.131 40.8884 245.416 41.2834 245.696 41.6837L247.335 40.5383C247.043 40.1205 246.745 39.7082 246.441 39.3013L244.839 40.4987ZM247.295 44.1339C247.799 44.962 248.281 45.8106 248.74 46.6798L250.508 45.7456C250.03 44.841 249.529 43.9571 249.003 43.0939L247.295 44.1339ZM250.032 49.3104C250.434 50.1915 250.815 51.0919 251.174 52.0119L253.037 51.2839C252.664 50.3303 252.269 49.3959 251.852 48.4807L250.032 49.3104ZM252.171 54.7744C252.476 55.694 252.762 56.6317 253.028 57.5875L254.955 57.0506C254.68 56.0643 254.385 55.0955 254.069 54.1443L252.171 54.7744ZM253.753 60.4392C253.97 61.3843 254.17 62.3459 254.352 63.3241L256.318 62.9582C256.131 61.9531 255.926 60.9638 255.702 59.9905L253.753 60.4392ZM254.834 66.2346C254.974 67.1963 255.098 68.1729 255.205 69.1645L257.194 68.9486C257.083 67.9334 256.956 66.9327 256.813 65.9464L254.834 66.2346ZM255.474 72.1078C255.546 73.0784 255.604 74.0625 255.647 75.0601L257.645 74.9743C257.601 73.9562 257.542 72.9512 257.468 71.9592L255.474 72.1078ZM255.73 78.019C255.737 78.5096 255.74 79.0032 255.74 79.5H257.74C257.74 78.9941 257.737 78.4913 257.73 77.9914L255.73 78.019ZM255.74 79.5C255.74 79.9983 255.737 80.4936 255.73 80.9858L257.73 81.0135C257.737 80.5119 257.74 80.0075 257.74 79.5H255.74ZM255.646 83.9543C255.603 84.955 255.545 85.9424 255.472 86.9163L257.467 87.0651C257.541 86.0698 257.6 85.0615 257.644 84.0404L255.646 83.9543ZM255.202 89.8695C255.094 90.8641 254.97 91.8439 254.829 92.809L256.808 93.0975C256.953 92.1078 257.08 91.1039 257.191 90.0857L255.202 89.8695ZM254.346 95.7291C254.163 96.7103 253.963 97.6751 253.744 98.6237L255.693 99.0721C255.918 98.0955 256.124 97.1031 256.312 96.095L254.346 95.7291ZM253.018 101.485C252.752 102.444 252.465 103.385 252.16 104.309L254.058 104.937C254.374 103.983 254.67 103.011 254.945 102.021L253.018 101.485ZM251.162 107.082C250.802 108.005 250.422 108.909 250.02 109.794L251.841 110.621C252.258 109.702 252.653 108.764 253.026 107.807L251.162 107.082ZM248.729 112.437C248.27 113.31 247.789 114.164 247.286 114.997L248.998 116.031C249.522 115.163 250.023 114.275 250.5 113.367L248.729 112.437ZM245.691 117.462C245.412 117.865 245.127 118.263 244.836 118.655L246.444 119.845C246.747 119.435 247.044 119.02 247.335 118.6L245.691 117.462ZM244.839 118.651C244.547 119.042 244.251 119.425 243.95 119.799L245.509 121.052C245.825 120.659 246.135 120.258 246.441 119.849L244.839 118.651ZM242.054 121.989C241.388 122.701 240.703 123.38 239.998 124.023L241.346 125.5C242.091 124.82 242.814 124.105 243.516 123.354L242.054 121.989ZM237.787 125.879C237.021 126.468 236.235 127.021 235.427 127.538L236.505 129.222C237.362 128.674 238.195 128.088 239.007 127.464L237.787 125.879ZM232.933 128.984C232.084 129.428 231.213 129.836 230.321 130.209L231.092 132.054C232.036 131.66 232.959 131.228 233.86 130.757L232.933 128.984ZM227.612 131.207C226.704 131.5 225.775 131.759 224.826 131.984L225.287 133.93C226.287 133.693 227.267 133.42 228.226 133.111L227.612 131.207ZM221.984 132.546C221.043 132.697 220.083 132.817 219.103 132.906L219.285 134.898C220.308 134.805 221.313 134.679 222.3 134.521L221.984 132.546ZM216.199 133.079C215.717 133.093 215.231 133.1 214.74 133.1V135.1C215.25 135.1 215.755 135.093 216.256 135.078L216.199 133.079ZM199.694 104.629C199.422 104.184 199.161 103.722 198.909 103.244L197.139 104.173C197.409 104.689 197.692 105.188 197.987 105.671L199.694 104.629ZM197.586 100.327C197.209 99.362 196.865 98.3439 196.555 97.2721L194.634 97.8284C194.96 98.9541 195.323 100.03 195.723 101.055L197.586 100.327ZM195.773 94.126C195.556 93.0993 195.366 92.0316 195.202 90.9228L193.223 91.2157C193.393 92.3621 193.59 93.4699 193.816 94.5389L195.773 94.126ZM194.808 87.6833C194.707 86.6274 194.626 85.5392 194.566 84.4187L192.569 84.525C192.63 85.6726 192.713 86.7894 192.818 87.8753L194.808 87.6833ZM194.454 81.1431C194.445 80.6022 194.44 80.0545 194.44 79.5H192.44C192.44 80.0652 192.445 80.6238 192.454 81.176L194.454 81.1431ZM194.44 79.5C194.44 78.9455 194.445 78.3978 194.454 77.8569L192.454 77.824C192.445 78.3761 192.44 78.9348 192.44 79.5H194.44ZM194.566 74.5813C194.626 73.4608 194.707 72.3726 194.808 71.3167L192.818 71.1247C192.713 72.2106 192.63 73.3274 192.569 74.475L194.566 74.5813ZM195.202 68.0772C195.366 66.9684 195.556 65.9007 195.773 64.874L193.816 64.4611C193.59 65.5301 193.393 66.6379 193.223 67.7843L195.202 68.0772ZM196.555 61.7279C196.865 60.6561 197.209 59.638 197.586 58.673L195.723 57.9453C195.323 58.9703 194.96 60.0459 194.634 61.1716L196.555 61.7279ZM198.909 55.7563C199.161 55.2779 199.422 54.8161 199.694 54.3709L197.987 53.3291C197.692 53.8121 197.409 54.3113 197.139 54.8266L198.909 55.7563ZM199.694 54.3709C199.964 53.9285 200.243 53.5044 200.532 53.0986L198.901 51.9398C198.585 52.3851 198.28 52.8482 197.987 53.3291L199.694 54.3709ZM202.469 50.7829C203.188 50.0565 203.952 49.415 204.761 48.8571L203.625 47.2106C202.71 47.8416 201.851 48.5639 201.047 49.3759L202.469 50.7829ZM207.372 47.411C208.272 47.0217 209.221 46.7122 210.222 46.4835L209.776 44.5338C208.661 44.7888 207.595 45.1356 206.578 45.5753L207.372 47.411ZM213.215 46.0506C213.713 46.0169 214.221 46 214.74 46V44C214.178 44 213.624 44.0183 213.08 44.0551L213.215 46.0506ZM214.74 46C215.26 46 215.768 46.0169 216.265 46.0506L216.4 44.0551C215.856 44.0183 215.303 44 214.74 44V46ZM219.259 46.4835C220.259 46.7122 221.209 47.0217 222.109 47.411L222.903 45.5753C221.886 45.1356 220.819 44.7888 219.704 44.5338L219.259 46.4835ZM224.72 48.8571C225.529 49.415 226.293 50.0565 227.012 50.7829L228.433 49.3759C227.63 48.5639 226.77 47.8416 225.855 47.2106L224.72 48.8571ZM228.949 53.0986C229.237 53.5045 229.517 53.9285 229.787 54.3709L231.494 53.3291C231.2 52.8482 230.896 52.3851 230.579 51.9398L228.949 53.0986ZM229.793 54.3813C230.071 54.8242 230.338 55.2835 230.595 55.7593L232.355 54.809C232.078 54.2962 231.789 53.7994 231.487 53.3187L229.793 54.3813ZM231.952 58.6652C232.339 59.6284 232.693 60.6446 233.012 61.7143L234.928 61.1427C234.593 60.0179 234.219 58.9432 233.808 57.9191L231.952 58.6652ZM233.817 64.8586C234.04 65.8856 234.236 66.9537 234.405 68.0629L236.382 67.7614C236.207 66.6135 236.004 65.5042 235.771 64.4339L233.817 64.8586ZM234.811 71.3055C234.916 72.3626 234.999 73.4522 235.06 74.5742L237.057 74.4648C236.994 73.3149 236.909 72.1959 236.801 71.1078L234.811 71.3055ZM235.176 77.8544C235.186 78.3962 235.19 78.9447 235.19 79.5H237.19C237.19 78.9337 237.186 78.3738 237.176 77.8205L235.176 77.8544ZM235.19 79.5C235.19 80.0521 235.186 80.5974 235.176 81.1361L237.176 81.1704C237.186 80.62 237.19 80.0632 237.19 79.5H235.19ZM235.06 84.3973C234.998 85.5127 234.914 86.5959 234.808 87.6471L236.798 87.8469C236.907 86.7645 236.993 85.6515 237.057 84.5081L235.06 84.3973ZM234.401 90.8706C234.231 91.9727 234.035 93.0343 233.811 94.0556L235.764 94.4838C235.998 93.4191 236.202 92.3161 236.378 91.1751L234.401 90.8706ZM233.004 97.1803C232.685 98.2423 232.332 99.2521 231.945 100.21L233.799 100.959C234.211 99.9407 234.584 98.8727 234.92 97.7556L233.004 97.1803ZM230.592 103.098C230.336 103.571 230.07 104.028 229.793 104.469L231.487 105.531C231.787 105.053 232.075 104.559 232.351 104.05L230.592 103.098ZM229.787 104.479C229.517 104.922 229.237 105.346 228.949 105.751L230.579 106.91C230.896 106.465 231.2 106.002 231.494 105.521L229.787 104.479ZM227.012 108.067C226.293 108.794 225.529 109.435 224.72 109.993L225.855 111.639C226.77 111.008 227.63 110.286 228.433 109.474L227.012 108.067ZM222.109 111.439C221.209 111.828 220.259 112.138 219.259 112.367L219.704 114.316C220.819 114.061 221.886 113.714 222.903 113.275L222.109 111.439ZM216.265 112.799C215.768 112.833 215.26 112.85 214.74 112.85V114.85C215.303 114.85 215.856 114.832 216.4 114.795L216.265 112.799ZM214.74 112.85C214.223 112.85 213.717 112.834 213.221 112.801L213.089 114.796C213.63 114.832 214.181 114.85 214.74 114.85V112.85ZM210.238 112.379C209.24 112.156 208.292 111.853 207.394 111.474L206.615 113.316C207.628 113.744 208.691 114.082 209.802 114.331L210.238 112.379ZM204.781 110.058C203.969 109.51 203.202 108.879 202.481 108.165L201.074 109.587C201.881 110.386 202.744 111.096 203.662 111.716L204.781 110.058ZM200.533 105.881C200.243 105.48 199.962 105.06 199.69 104.623L197.991 105.677C198.286 106.154 198.594 106.613 198.913 107.054L200.533 105.881ZM278.323 119.25L277.921 119.547L277.924 119.552L278.323 119.25ZM278.323 39.9L277.923 39.6L277.922 39.6006L278.323 39.9ZM340.123 39.9L339.721 40.1974L339.722 40.1993L340.123 39.9ZM340.123 119.25L340.523 119.549L340.525 119.547L340.123 119.25ZM293.323 105.15L292.896 105.41L292.898 105.414L293.323 105.15ZM325.123 105L324.699 104.734L324.696 104.74L325.123 105ZM325.123 53.85L324.696 54.1104L324.699 54.1156L325.123 53.85ZM309.223 133.6C308.728 133.6 308.237 133.593 307.751 133.579L307.722 134.578C308.218 134.593 308.718 134.6 309.223 134.6V133.6ZM304.818 133.402C303.829 133.31 302.858 133.188 301.906 133.033L301.746 134.02C302.721 134.178 303.715 134.304 304.726 134.398L304.818 133.402ZM299.031 132.458C298.071 132.229 297.13 131.964 296.21 131.665L295.901 132.616C296.847 132.923 297.813 133.195 298.798 133.431L299.031 132.458ZM293.465 130.646C292.562 130.267 291.68 129.851 290.818 129.399L290.354 130.284C291.241 130.75 292.149 131.178 293.078 131.568L293.465 130.646ZM288.289 127.928C287.47 127.404 286.672 126.843 285.895 126.245L285.285 127.038C286.085 127.653 286.907 128.23 287.749 128.77L288.289 127.928ZM283.649 124.366C282.933 123.716 282.236 123.031 281.559 122.312L280.83 122.997C281.526 123.735 282.241 124.438 282.976 125.107L283.649 124.366ZM279.628 120.104C279.321 119.727 279.019 119.341 278.721 118.948L277.924 119.552C278.229 119.954 278.538 120.348 278.852 120.735L279.628 120.104ZM278.725 118.953C278.431 118.556 278.143 118.154 277.861 117.746L277.039 118.316C277.327 118.731 277.621 119.142 277.921 119.547L278.725 118.953ZM276.249 115.255C275.74 114.413 275.255 113.552 274.791 112.67L273.906 113.134C274.378 114.034 274.874 114.913 275.393 115.772L276.249 115.255ZM273.487 110.001C273.082 109.107 272.698 108.195 272.335 107.263L271.403 107.626C271.772 108.574 272.164 109.504 272.577 110.414L273.487 110.001ZM271.329 104.466C271.02 103.535 270.732 102.586 270.463 101.619L269.499 101.887C269.773 102.869 270.066 103.833 270.379 104.78L271.329 104.466ZM269.731 98.7358C269.511 97.7802 269.31 96.8085 269.126 95.8206L268.143 96.0036C268.329 97.0049 268.534 97.9904 268.757 98.96L269.731 98.7358ZM268.639 92.8811C268.497 91.9099 268.372 90.9241 268.263 89.9236L267.269 90.0317C267.379 91.0439 267.506 92.0418 267.649 93.0253L268.639 92.8811ZM267.992 86.9535C267.919 85.9742 267.861 84.9817 267.817 83.9758L266.818 84.0189C266.862 85.0349 266.921 86.0379 266.995 87.0279L267.992 86.9535ZM267.733 80.9927C267.726 80.4982 267.723 80.0006 267.723 79.5H266.723C266.723 80.0052 266.726 80.5074 266.733 81.0066L267.733 80.9927ZM267.723 79.5C267.723 79.001 267.726 78.505 267.733 78.0121L266.733 77.9983C266.726 78.4959 266.723 78.9964 266.723 79.5H267.723ZM267.817 75.0386C267.86 74.0359 267.918 73.0466 267.99 72.0706L266.993 71.9964C266.92 72.983 266.861 73.9828 266.818 74.9957L267.817 75.0386ZM268.261 69.1105C268.369 68.113 268.493 67.1304 268.634 66.1626L267.645 66.0184C267.502 66.9986 267.376 67.9933 267.266 69.0025L268.261 69.1105ZM269.119 63.2326C269.303 62.2477 269.504 61.2792 269.723 60.327L268.749 60.1027C268.526 61.0689 268.322 62.0513 268.136 63.0497L269.119 63.2326ZM270.453 57.4532C270.721 56.4899 271.01 55.5444 271.318 54.6169L270.368 54.3018C270.055 55.2451 269.762 56.2061 269.49 57.1848L270.453 57.4532ZM272.323 51.8299C272.686 50.9015 273.07 49.9926 273.476 49.103L272.566 48.6881C272.153 49.5948 271.761 50.5207 271.392 51.4659L272.323 51.8299ZM274.781 46.4463C275.245 45.5682 275.732 44.7108 276.241 43.8739L275.387 43.3539C274.867 44.2083 274.37 45.0834 273.897 45.9792L274.781 46.4463ZM277.857 41.3974C278.14 40.9927 278.429 40.5934 278.723 40.1993L277.922 39.6006C277.621 40.0033 277.326 40.4113 277.038 40.8246L277.857 41.3974ZM278.723 40.2C279.019 39.8043 279.321 39.4165 279.626 39.0368L278.847 38.4099C278.534 38.7986 278.226 39.1953 277.923 39.6L278.723 40.2ZM281.55 36.8136C282.225 36.0883 282.92 35.3978 283.633 34.7421L282.957 34.0058C282.224 34.6794 281.511 35.3881 280.818 36.132L281.55 36.8136ZM285.874 32.8462C286.65 32.2426 287.447 31.6759 288.264 31.1459L287.72 30.3069C286.879 30.8525 286.059 31.4358 285.26 32.0567L285.874 32.8462ZM290.792 29.6583C291.654 29.2005 292.536 28.7796 293.439 28.3956L293.048 27.4753C292.118 27.8705 291.21 28.3038 290.323 28.7753L290.792 29.6583ZM296.186 27.3628C297.107 27.0595 298.049 26.7913 299.01 26.5582L298.775 25.5864C297.788 25.8256 296.82 26.1011 295.873 26.4129L296.186 27.3628ZM301.89 25.9751C302.844 25.8185 303.817 25.6938 304.808 25.6011L304.715 24.6054C303.701 24.7002 302.706 24.8278 301.728 24.9883L301.89 25.9751ZM307.748 25.4217C308.235 25.4072 308.727 25.4 309.223 25.4V24.4C308.717 24.4 308.216 24.4074 307.718 24.4221L307.748 25.4217ZM309.223 25.4C309.719 25.4 310.211 25.4071 310.699 25.4214L310.728 24.4218C310.23 24.4073 309.729 24.4 309.223 24.4V25.4ZM313.641 25.5986C314.633 25.6902 315.607 25.8135 316.561 25.9684L316.721 24.9813C315.744 24.8226 314.747 24.6965 313.733 24.6028L313.641 25.5986ZM319.444 26.5459C320.408 26.7771 321.351 27.0432 322.273 27.3442L322.583 26.3936C321.635 26.0842 320.667 25.8108 319.678 25.5735L319.444 26.5459ZM325.023 28.3712C325.928 28.7537 326.812 29.1732 327.674 29.6295L328.142 28.7457C327.254 28.2757 326.344 27.8438 325.412 27.4501L325.023 28.3712ZM330.204 31.115C331.022 31.6451 331.819 32.2122 332.595 32.8163L333.209 32.0273C332.411 31.4056 331.59 30.8217 330.748 30.2757L330.204 31.115ZM334.833 34.7165C335.546 35.3743 336.238 36.0672 336.911 36.7953L337.645 36.1167C336.955 35.3695 336.244 34.6579 335.511 33.9817L334.833 34.7165ZM338.824 39.0284C339.127 39.41 339.426 39.7997 339.721 40.1974L340.525 39.6026C340.223 39.1956 339.917 38.7967 339.607 38.4059L338.824 39.0284ZM339.722 40.1993C340.017 40.5934 340.305 40.9927 340.588 41.3974L341.408 40.8246C341.119 40.4113 340.824 40.0033 340.523 39.6006L339.722 40.1993ZM342.204 43.8739C342.714 44.7108 343.2 45.5682 343.664 46.4463L344.548 45.9792C344.075 45.0834 343.579 44.2083 343.058 43.3539L342.204 43.8739ZM344.97 49.103C345.375 49.9926 345.759 50.9015 346.122 51.8299L347.054 51.4659C346.684 50.5207 346.293 49.5948 345.879 48.6881L344.97 49.103ZM347.128 54.6169C347.436 55.5444 347.724 56.4899 347.992 57.4532L348.956 57.1848C348.683 56.2061 348.39 55.2451 348.077 54.3018L347.128 54.6169ZM348.722 60.327C348.941 61.2792 349.143 62.2477 349.326 63.2326L350.309 63.0497C350.123 62.0513 349.919 61.0689 349.697 60.1027L348.722 60.327ZM349.811 66.1626C349.952 67.1304 350.077 68.113 350.185 69.1105L351.179 69.0025C351.069 67.9933 350.943 66.9986 350.8 66.0184L349.811 66.1626ZM350.455 72.0706C350.528 73.0466 350.586 74.0359 350.629 75.0386L351.628 74.9957C351.584 73.9828 351.526 72.983 351.452 71.9964L350.455 72.0706ZM350.712 78.0121C350.719 78.505 350.723 79.001 350.723 79.5H351.723C351.723 78.9964 351.719 78.4959 351.712 77.9983L350.712 78.0121ZM350.723 79.5C350.723 80.0006 350.719 80.4982 350.712 80.9927L351.712 81.0066C351.719 80.5074 351.723 80.0052 351.723 79.5H350.723ZM350.628 83.9758C350.585 84.9817 350.527 85.9742 350.453 86.9535L351.451 87.0279C351.525 86.0379 351.583 85.0349 351.627 84.0189L350.628 83.9758ZM350.182 89.9236C350.073 90.9241 349.948 91.9099 349.806 92.8811L350.796 93.0253C350.939 92.0418 351.066 91.0439 351.176 90.0317L350.182 89.9236ZM349.32 95.8206C349.136 96.8085 348.934 97.7802 348.714 98.7358L349.689 98.96C349.912 97.9904 350.116 97.0049 350.303 96.0035L349.32 95.8206ZM347.982 101.619C347.714 102.586 347.425 103.535 347.117 104.466L348.066 104.78C348.379 103.833 348.673 102.869 348.946 101.887L347.982 101.619ZM346.11 107.263C345.748 108.195 345.363 109.107 344.958 110.001L345.869 110.414C346.282 109.504 346.673 108.574 347.042 107.626L346.11 107.263ZM343.654 112.67C343.191 113.552 342.705 114.413 342.196 115.255L343.052 115.772C343.571 114.913 344.067 114.034 344.539 113.134L343.654 112.67ZM340.584 117.746C340.302 118.154 340.014 118.556 339.721 118.953L340.525 119.547C340.825 119.142 341.118 118.731 341.406 118.316L340.584 117.746ZM339.722 118.951C339.427 119.346 339.127 119.733 338.822 120.112L339.601 120.739C339.914 120.35 340.221 119.954 340.523 119.549L339.722 118.951ZM336.902 122.33C336.227 123.052 335.532 123.74 334.818 124.392L335.492 125.131C336.227 124.46 336.94 123.754 337.633 123.012L336.902 122.33ZM332.574 126.275C331.797 126.873 330.999 127.434 330.179 127.959L330.718 128.801C331.562 128.261 332.384 127.683 333.184 127.067L332.574 126.275ZM327.647 129.427C326.785 129.878 325.901 130.292 324.996 130.67L325.381 131.593C326.313 131.204 327.223 130.778 328.11 130.314L327.647 129.427ZM322.248 131.683C321.327 131.98 320.386 132.243 319.424 132.471L319.654 133.444C320.641 133.21 321.608 132.94 322.555 132.635L322.248 131.683ZM316.545 133.04C315.593 133.193 314.621 133.314 313.631 133.404L313.722 134.4C314.734 134.308 315.728 134.184 316.704 134.027L316.545 133.04ZM310.695 133.579C310.209 133.593 309.718 133.6 309.223 133.6V134.6C309.727 134.6 310.228 134.593 310.724 134.578L310.695 133.579ZM293.749 104.89C293.472 104.435 293.205 103.964 292.949 103.476L292.064 103.941C292.33 104.447 292.607 104.937 292.896 105.41L293.749 104.89ZM291.603 100.509C291.22 99.529 290.871 98.4965 290.557 97.4112L289.597 97.6893C289.919 98.8015 290.277 99.8628 290.671 100.873L291.603 100.509ZM289.766 94.2292C289.547 93.1919 289.355 92.1142 289.189 90.9961L288.2 91.1425C288.369 92.2795 288.564 93.3772 288.788 94.4357L289.766 94.2292ZM288.793 87.7313C288.691 86.6679 288.609 85.5726 288.549 84.4453L287.551 84.4984C287.611 85.6392 287.694 86.7489 287.798 87.8273L288.793 87.7313ZM288.436 81.1514C288.427 80.6076 288.423 80.0571 288.423 79.5H287.423C287.423 80.0625 287.427 80.6184 287.436 81.1678L288.436 81.1514ZM288.423 79.5C288.423 78.9429 288.427 78.3924 288.436 77.8486L287.436 77.8322C287.427 78.3816 287.423 78.9375 287.423 79.5H288.423ZM288.549 74.5547C288.609 73.4274 288.691 72.3321 288.793 71.2687L287.798 71.1727C287.694 72.2511 287.611 73.3608 287.551 74.5016L288.549 74.5547ZM289.189 68.0039C289.355 66.8858 289.547 65.8081 289.766 64.7707L288.788 64.5643C288.564 65.6228 288.369 66.7205 288.2 67.8575L289.189 68.0039ZM290.557 61.5888C290.871 60.5035 291.22 59.471 291.603 58.4911L290.671 58.1272C290.277 59.1372 289.919 60.1984 289.597 61.3107L290.557 61.5888ZM292.949 55.5239C293.205 55.0362 293.472 54.5651 293.749 54.1104L292.896 53.5896C292.607 54.0631 292.33 54.5529 292.064 55.059L292.949 55.5239ZM293.749 54.1104C294.025 53.6584 294.311 53.2246 294.606 52.8089L293.791 52.2295C293.482 52.6649 293.183 53.1183 292.896 53.5896L293.749 54.1104ZM296.596 50.4311C297.336 49.6833 298.124 49.0217 298.959 48.4455L298.392 47.6222C297.503 48.235 296.668 48.937 295.885 49.7277L296.596 50.4311ZM301.656 46.9521C302.585 46.5502 303.564 46.2314 304.593 45.996L304.37 45.0212C303.284 45.2696 302.246 45.6072 301.259 46.0342L301.656 46.9521ZM307.664 45.5517C308.173 45.5173 308.693 45.5 309.223 45.5V44.5C308.671 44.5 308.129 44.518 307.596 44.554L307.664 45.5517ZM309.223 45.5C309.753 45.5 310.272 45.5173 310.781 45.5517L310.849 44.554C310.317 44.518 309.775 44.5 309.223 44.5V45.5ZM313.852 45.996C314.882 46.2314 315.86 46.5502 316.79 46.9521L317.186 46.0342C316.199 45.6072 315.162 45.2696 314.075 45.0212L313.852 45.996ZM319.486 48.4455C320.322 49.0217 321.109 49.6833 321.85 50.4311L322.56 49.7277C321.778 48.937 320.942 48.235 320.054 47.6222L319.486 48.4455ZM323.839 52.8089C324.134 53.2246 324.42 53.6584 324.696 54.1104L325.549 53.5896C325.262 53.1183 324.963 52.6649 324.654 52.2295L323.839 52.8089ZM324.699 54.1156C324.983 54.568 325.256 55.0367 325.518 55.5218L326.397 55.0466C326.126 54.543 325.842 54.0556 325.546 53.5844L324.699 54.1156ZM326.898 58.4787C327.292 59.4571 327.65 60.4879 327.973 61.5714L328.932 61.2856C328.6 60.1746 328.232 59.1145 327.826 58.1056L326.898 58.4787ZM328.788 64.7524C329.013 65.7903 329.211 66.8686 329.382 67.9875L330.37 67.8368C330.197 66.6985 329.995 65.5996 329.765 64.5401L328.788 64.7524ZM329.791 71.2561C329.896 72.3209 329.98 73.4178 330.042 74.5469L331.041 74.4921C330.978 73.3492 330.893 72.2375 330.786 71.1573L329.791 71.2561ZM330.159 77.8459C330.168 78.3906 330.173 78.9419 330.173 79.5H331.173C331.173 78.9364 331.168 78.3794 331.159 77.829L330.159 77.8459ZM330.173 79.5C330.173 80.0549 330.168 80.6031 330.159 81.1447L331.159 81.1618C331.168 80.6144 331.173 80.0604 331.173 79.5H330.173ZM330.041 84.425C329.979 85.5474 329.895 86.638 329.788 87.6971L330.783 87.797C330.891 86.7223 330.977 85.6168 331.04 84.4804L330.041 84.425ZM329.378 90.9468C329.207 92.0586 329.008 93.1305 328.782 94.1627L329.758 94.3768C329.989 93.3229 330.192 92.2303 330.366 91.099L329.378 90.9468ZM327.966 97.3241C327.643 98.3999 327.284 99.4242 326.891 100.397L327.818 100.772C328.224 99.7686 328.592 98.7151 328.923 97.6118L327.966 97.3241ZM325.514 103.336C325.253 103.818 324.981 104.284 324.699 104.734L325.546 105.266C325.84 104.797 326.123 104.312 326.393 103.812L325.514 103.336ZM324.696 104.74C324.42 105.192 324.134 105.625 323.839 106.041L324.654 106.62C324.963 106.185 325.262 105.732 325.549 105.26L324.696 104.74ZM321.85 108.419C321.109 109.167 320.322 109.828 319.486 110.405L320.054 111.228C320.942 110.615 321.778 109.913 322.56 109.122L321.85 108.419ZM316.79 111.898C315.86 112.3 314.882 112.619 313.852 112.854L314.075 113.829C315.162 113.58 316.199 113.243 317.186 112.816L316.79 111.898ZM310.781 113.298C310.272 113.333 309.753 113.35 309.223 113.35V114.35C309.775 114.35 310.317 114.332 310.849 114.296L310.781 113.298ZM309.223 113.35C308.695 113.35 308.178 113.333 307.671 113.3L307.605 114.297C308.134 114.333 308.674 114.35 309.223 114.35V113.35ZM304.612 112.867C303.585 112.637 302.609 112.326 301.681 111.934L301.292 112.855C302.277 113.272 303.311 113.601 304.393 113.843L304.612 112.867ZM298.984 110.472C298.145 109.906 297.354 109.256 296.612 108.521L295.908 109.231C296.694 110.009 297.532 110.699 298.424 111.301L298.984 110.472ZM294.61 106.174C294.313 105.763 294.025 105.334 293.747 104.886L292.898 105.414C293.188 105.88 293.488 106.329 293.8 106.76L294.61 106.174ZM278.323 119.25L277.519 119.845L277.526 119.854L278.323 119.25ZM278.323 39.9L277.523 39.3L277.522 39.3013L278.323 39.9ZM340.123 39.9L339.319 40.4948L339.322 40.4987L340.123 39.9ZM340.123 119.25L340.924 119.849L340.927 119.845L340.123 119.25ZM293.323 105.15L292.469 105.671L292.473 105.677L293.323 105.15ZM325.123 105L324.275 104.469L324.269 104.479L325.123 105ZM325.123 53.85L324.269 54.3709L324.275 54.3813L325.123 53.85ZM309.223 133.1C308.733 133.1 308.247 133.093 307.766 133.079L307.707 135.078C308.208 135.093 308.714 135.1 309.223 135.1V133.1ZM304.864 132.904C303.886 132.814 302.926 132.692 301.986 132.54L301.666 134.514C302.653 134.674 303.658 134.801 304.68 134.895L304.864 132.904ZM299.147 131.972C298.2 131.745 297.272 131.484 296.364 131.19L295.746 133.092C296.705 133.403 297.684 133.678 298.682 133.917L299.147 131.972ZM293.659 130.185C292.769 129.811 291.9 129.402 291.051 128.956L290.121 130.727C291.021 131.199 291.942 131.633 292.885 132.029L293.659 130.185ZM288.558 127.507C287.752 126.99 286.966 126.438 286.199 125.849L284.981 127.435C285.792 128.058 286.625 128.643 287.479 129.191L288.558 127.507ZM283.985 123.996C283.279 123.355 282.591 122.679 281.923 121.969L280.466 123.34C281.17 124.087 281.895 124.8 282.64 125.477L283.985 123.996ZM280.016 119.789C279.713 119.416 279.414 119.035 279.12 118.646L277.526 119.854C277.834 120.261 278.147 120.659 278.464 121.05L280.016 119.789ZM279.126 118.655C278.836 118.263 278.551 117.865 278.272 117.462L276.628 118.6C276.919 119.02 277.216 119.435 277.519 119.845L279.126 118.655ZM276.677 114.997C276.174 114.164 275.693 113.31 275.234 112.437L273.463 113.367C273.94 114.275 274.441 115.163 274.965 116.031L276.677 114.997ZM273.943 109.794C273.541 108.909 273.16 108.005 272.801 107.082L270.937 107.807C271.31 108.764 271.704 109.702 272.121 110.621L273.943 109.794ZM271.803 104.309C271.498 103.385 271.211 102.444 270.945 101.485L269.018 102.021C269.293 103.011 269.589 103.983 269.905 104.937L271.803 104.309ZM270.219 98.6237C270 97.6751 269.8 96.7103 269.617 95.7292L267.651 96.095C267.839 97.1031 268.045 98.0955 268.269 99.0721L270.219 98.6237ZM269.134 92.809C268.993 91.8439 268.869 90.8641 268.76 89.8695L266.772 90.0857C266.883 91.1039 267.01 92.1078 267.155 93.0975L269.134 92.809ZM268.49 86.9163C268.418 85.9424 268.36 84.955 268.317 83.9543L266.319 84.0404C266.363 85.0615 266.422 86.0698 266.496 87.0651L268.49 86.9163ZM268.233 80.9858C268.226 80.4936 268.223 79.9983 268.223 79.5H266.223C266.223 80.0075 266.226 80.5119 266.233 81.0135L268.233 80.9858ZM268.223 79.5C268.223 79.0032 268.226 78.5096 268.233 78.019L266.233 77.9914C266.226 78.4913 266.223 78.9941 266.223 79.5H268.223ZM268.316 75.0601C268.359 74.0625 268.417 73.0784 268.489 72.1078L266.494 71.9592C266.421 72.9512 266.362 73.9562 266.318 74.9743L268.316 75.0601ZM268.758 69.1645C268.865 68.1729 268.989 67.1963 269.129 66.2346L267.15 65.9464C267.006 66.9327 266.879 67.9334 266.769 68.9486L268.758 69.1645ZM269.611 63.3241C269.793 62.3459 269.993 61.3843 270.21 60.4392L268.261 59.9905C268.037 60.9638 267.832 61.9531 267.645 62.9582L269.611 63.3241ZM270.935 57.5875C271.201 56.6317 271.487 55.694 271.792 54.7744L269.894 54.1443C269.578 55.0955 269.283 56.0643 269.008 57.0506L270.935 57.5875ZM272.789 52.0119C273.148 51.0919 273.529 50.1915 273.931 49.3104L272.111 48.4807C271.694 49.3959 271.299 50.3303 270.926 51.2839L272.789 52.0119ZM275.223 46.6798C275.682 45.8106 276.164 44.962 276.668 44.1339L274.96 43.0939C274.434 43.9571 273.933 44.841 273.455 45.7456L275.223 46.6798ZM278.267 41.6837C278.547 41.2834 278.832 40.8884 279.124 40.4987L277.522 39.3013C277.218 39.7082 276.92 40.1205 276.628 40.5383L278.267 41.6837ZM279.123 40.5C279.416 40.1087 279.714 39.7255 280.016 39.3503L278.457 38.0965C278.141 38.4897 277.83 38.8908 277.523 39.3L279.123 40.5ZM281.916 37.1544C282.582 36.4383 283.268 35.757 283.972 35.1103L282.619 33.6376C281.876 34.3201 281.154 35.0381 280.452 35.7912L281.916 37.1544ZM286.181 33.2409C286.946 32.646 287.731 32.0875 288.536 31.5654L287.448 29.8874C286.595 30.4408 285.763 31.0324 284.953 31.662L286.181 33.2409ZM291.027 30.0999C291.875 29.6488 292.745 29.2341 293.635 28.8557L292.852 27.0152C291.909 27.416 290.988 27.8555 290.088 28.3337L291.027 30.0999ZM296.342 27.8377C297.25 27.5387 298.179 27.2742 299.128 27.0442L298.657 25.1004C297.657 25.3428 296.677 25.6219 295.717 25.938L296.342 27.8377ZM301.971 26.4685C302.914 26.3138 303.875 26.1906 304.855 26.0989L304.668 24.1076C303.644 24.2034 302.637 24.3325 301.647 24.4949L301.971 26.4685ZM307.763 25.9215C308.245 25.9072 308.732 25.9 309.223 25.9V23.9C308.712 23.9 308.206 23.9074 307.703 23.9223L307.763 25.9215ZM309.223 25.9C309.714 25.9 310.201 25.9071 310.684 25.9212L310.743 23.922C310.24 23.9073 309.733 23.9 309.223 23.9V25.9ZM313.595 26.0964C314.576 26.187 315.538 26.3089 316.481 26.4619L316.802 24.4877C315.812 24.3272 314.804 24.1996 313.779 24.1049L313.595 26.0964ZM319.328 27.0321C320.278 27.2603 321.208 27.5228 322.117 27.8196L322.738 25.9183C321.777 25.6046 320.796 25.3277 319.794 25.0873L319.328 27.0321ZM324.828 28.8318C325.72 29.2087 326.591 29.6219 327.44 30.0714L328.376 28.3038C327.475 27.827 326.552 27.3889 325.607 26.9895L324.828 28.8318ZM329.932 31.5347C330.738 32.0568 331.523 32.6155 332.288 33.2108L333.517 31.6328C332.707 31.0023 331.875 30.41 331.02 29.8561L329.932 31.5347ZM334.494 35.0838C335.196 35.7325 335.88 36.416 336.544 37.1346L338.013 35.7774C337.313 35.0207 336.593 34.2997 335.851 33.6143L334.494 35.0838ZM338.433 39.3397C338.732 39.7166 339.028 40.1017 339.319 40.4948L340.927 39.3052C340.622 38.8936 340.312 38.4901 339.998 38.0947L338.433 39.3397ZM339.322 40.4987C339.613 40.8884 339.898 41.2834 340.178 41.6837L341.818 40.5383C341.526 40.1205 341.228 39.7082 340.924 39.3013L339.322 40.4987ZM341.777 44.1339C342.281 44.962 342.763 45.8106 343.222 46.6798L344.991 45.7456C344.513 44.841 344.011 43.9571 343.485 43.0939L341.777 44.1339ZM344.515 49.3104C344.916 50.1915 345.297 51.0919 345.657 52.0119L347.519 51.2839C347.147 50.3303 346.752 49.3959 346.334 48.4807L344.515 49.3104ZM346.653 54.7744C346.959 55.694 347.244 56.6317 347.511 57.5875L349.437 57.0506C349.162 56.0643 348.867 55.0955 348.551 54.1443L346.653 54.7744ZM348.235 60.4392C348.453 61.3843 348.652 62.3459 348.834 63.3241L350.801 62.9582C350.614 61.9531 350.408 60.9638 350.184 59.9905L348.235 60.4392ZM349.316 66.2346C349.456 67.1963 349.58 68.1729 349.688 69.1645L351.676 68.9486C351.566 67.9334 351.439 66.9327 351.295 65.9464L349.316 66.2346ZM349.956 72.1078C350.029 73.0784 350.086 74.0625 350.129 75.0601L352.127 74.9743C352.084 73.9562 352.025 72.9512 351.951 71.9592L349.956 72.1078ZM350.213 78.019C350.219 78.5096 350.223 79.0032 350.223 79.5H352.223C352.223 78.9941 352.219 78.4913 352.212 77.9914L350.213 78.019ZM350.223 79.5C350.223 79.9983 350.219 80.4936 350.212 80.9858L352.212 81.0135C352.219 80.5119 352.223 80.0075 352.223 79.5H350.223ZM350.129 83.9543C350.085 84.955 350.028 85.9424 349.955 86.9163L351.949 87.0651C352.024 86.0698 352.083 85.0615 352.127 84.0404L350.129 83.9543ZM349.685 89.8695C349.577 90.8641 349.452 91.8439 349.312 92.809L351.291 93.0975C351.435 92.1078 351.562 91.1039 351.673 90.0857L349.685 89.8695ZM348.828 95.7291C348.645 96.7103 348.445 97.6751 348.227 98.6237L350.176 99.0721C350.401 98.0955 350.607 97.1031 350.794 96.095L348.828 95.7291ZM347.501 101.485C347.234 102.444 346.948 103.385 346.642 104.309L348.541 104.937C348.857 103.983 349.152 103.011 349.428 102.021L347.501 101.485ZM345.644 107.082C345.285 108.005 344.904 108.909 344.503 109.794L346.324 110.621C346.741 109.702 347.136 108.764 347.508 107.807L345.644 107.082ZM343.211 112.437C342.753 113.31 342.272 114.164 341.768 114.997L343.48 116.031C344.004 115.163 344.505 114.275 344.982 113.367L343.211 112.437ZM340.173 117.462C339.894 117.865 339.609 118.263 339.319 118.655L340.927 119.845C341.23 119.435 341.527 119.02 341.817 118.6L340.173 117.462ZM339.322 118.651C339.03 119.042 338.733 119.425 338.432 119.799L339.991 121.052C340.307 120.659 340.618 120.258 340.924 119.849L339.322 118.651ZM336.536 121.989C335.871 122.701 335.185 123.38 334.481 124.023L335.829 125.5C336.574 124.82 337.297 124.105 337.998 123.354L336.536 121.989ZM332.269 125.879C331.504 126.468 330.717 127.021 329.91 127.538L330.988 129.222C331.844 128.674 332.678 128.088 333.489 127.464L332.269 125.879ZM327.415 128.984C326.566 129.428 325.696 129.836 324.804 130.209L325.574 132.054C326.519 131.66 327.441 131.228 328.342 130.757L327.415 128.984ZM322.095 131.207C321.187 131.5 320.258 131.759 319.308 131.984L319.769 133.93C320.769 133.693 321.749 133.42 322.708 133.111L322.095 131.207ZM316.466 132.546C315.525 132.697 314.565 132.817 313.586 132.906L313.767 134.898C314.79 134.805 315.796 134.679 316.783 134.521L316.466 132.546ZM310.681 133.079C310.199 133.093 309.713 133.1 309.223 133.1V135.1C309.732 135.1 310.237 135.093 310.739 135.078L310.681 133.079ZM294.176 104.629C293.905 104.184 293.643 103.722 293.392 103.244L291.621 104.173C291.892 104.689 292.174 105.188 292.469 105.671L294.176 104.629ZM292.068 100.327C291.692 99.362 291.348 98.3439 291.037 97.2721L289.116 97.8284C289.442 98.9541 289.805 100.03 290.205 101.055L292.068 100.327ZM290.255 94.126C290.039 93.0993 289.848 92.0316 289.684 90.9228L287.706 91.2157C287.875 92.3621 288.073 93.4699 288.298 94.5389L290.255 94.126ZM289.291 87.6833C289.189 86.6274 289.108 85.5392 289.049 84.4187L287.051 84.525C287.112 85.6726 287.195 86.7894 287.3 87.8753L289.291 87.6833ZM288.936 81.1431C288.927 80.6022 288.923 80.0545 288.923 79.5H286.923C286.923 80.0652 286.927 80.6238 286.936 81.176L288.936 81.1431ZM288.923 79.5C288.923 78.9455 288.927 78.3978 288.936 77.8569L286.936 77.824C286.927 78.3761 286.923 78.9348 286.923 79.5H288.923ZM289.049 74.5813C289.108 73.4608 289.189 72.3726 289.291 71.3167L287.3 71.1247C287.195 72.2106 287.112 73.3274 287.051 74.475L289.049 74.5813ZM289.684 68.0772C289.848 66.9684 290.039 65.9007 290.255 64.874L288.298 64.4611C288.073 65.5301 287.875 66.6379 287.706 67.7843L289.684 68.0772ZM291.037 61.7279C291.348 60.6561 291.692 59.638 292.068 58.673L290.205 57.9453C289.805 58.9703 289.442 60.0459 289.116 61.1716L291.037 61.7279ZM293.392 55.7563C293.643 55.2779 293.905 54.8161 294.176 54.3709L292.469 53.3291C292.174 53.8121 291.892 54.3113 291.621 54.8266L293.392 55.7563ZM294.176 54.3709C294.446 53.9285 294.725 53.5044 295.014 53.0986L293.384 51.9398C293.067 52.3851 292.762 52.8482 292.469 53.3291L294.176 54.3709ZM296.951 50.7829C297.67 50.0565 298.434 49.415 299.243 48.8571L298.108 47.2106C297.193 47.8416 296.333 48.5639 295.53 49.3759L296.951 50.7829ZM301.854 47.411C302.754 47.0217 303.704 46.7122 304.704 46.4835L304.258 44.5338C303.143 44.7888 302.077 45.1356 301.06 45.5753L301.854 47.411ZM307.698 46.0506C308.195 46.0169 308.703 46 309.223 46V44C308.66 44 308.107 44.0183 307.563 44.0551L307.698 46.0506ZM309.223 46C309.742 46 310.25 46.0169 310.748 46.0506L310.883 44.0551C310.339 44.0183 309.785 44 309.223 44V46ZM313.741 46.4835C314.741 46.7122 315.691 47.0217 316.591 47.411L317.385 45.5753C316.368 45.1356 315.302 44.7888 314.187 44.5338L313.741 46.4835ZM319.202 48.8571C320.011 49.415 320.775 50.0565 321.494 50.7829L322.916 49.3759C322.112 48.5639 321.253 47.8416 320.338 47.2106L319.202 48.8571ZM323.431 53.0986C323.72 53.5045 323.999 53.9285 324.269 54.3709L325.976 53.3291C325.683 52.8482 325.378 52.3851 325.061 51.9398L323.431 53.0986ZM324.275 54.3813C324.553 54.8242 324.821 55.2835 325.078 55.7593L326.837 54.809C326.56 54.2962 326.271 53.7994 325.97 53.3187L324.275 54.3813ZM326.434 58.6652C326.822 59.6284 327.175 60.6446 327.494 61.7143L329.411 61.1427C329.075 60.0179 328.702 58.9432 328.29 57.9191L326.434 58.6652ZM328.299 64.8586C328.522 65.8856 328.718 66.9537 328.888 68.0629L330.865 67.7614C330.69 66.6135 330.486 65.5042 330.253 64.4339L328.299 64.8586ZM329.293 71.3055C329.398 72.3626 329.481 73.4522 329.543 74.5742L331.54 74.4648C331.477 73.3149 331.391 72.1959 331.283 71.1078L329.293 71.3055ZM329.659 77.8544C329.668 78.3962 329.673 78.9447 329.673 79.5H331.673C331.673 78.9337 331.668 78.3738 331.659 77.8205L329.659 77.8544ZM329.673 79.5C329.673 80.0521 329.668 80.5974 329.659 81.1361L331.659 81.1704C331.668 80.62 331.673 80.0632 331.673 79.5H329.673ZM329.542 84.3973C329.48 85.5127 329.396 86.5959 329.291 87.6471L331.281 87.8469C331.39 86.7645 331.476 85.6515 331.539 84.5081L329.542 84.3973ZM328.884 90.8706C328.714 91.9727 328.517 93.0343 328.293 94.0556L330.247 94.4838C330.48 93.4191 330.685 92.3161 330.86 91.1751L328.884 90.8706ZM327.487 97.1803C327.168 98.2423 326.815 99.2521 326.427 100.21L328.282 100.959C328.693 99.9407 329.067 98.8727 329.402 97.7556L327.487 97.1803ZM325.074 103.098C324.818 103.571 324.552 104.028 324.275 104.469L325.97 105.531C326.27 105.053 326.557 104.559 326.833 104.05L325.074 103.098ZM324.269 104.479C323.999 104.922 323.72 105.346 323.431 105.751L325.061 106.91C325.378 106.465 325.683 106.002 325.976 105.521L324.269 104.479ZM321.494 108.067C320.775 108.794 320.011 109.435 319.202 109.993L320.337 111.639C321.253 111.008 322.112 110.286 322.916 109.474L321.494 108.067ZM316.591 111.439C315.691 111.828 314.741 112.138 313.741 112.367L314.187 114.316C315.302 114.061 316.368 113.714 317.385 113.275L316.591 111.439ZM310.748 112.799C310.25 112.833 309.742 112.85 309.223 112.85V114.85C309.785 114.85 310.339 114.832 310.883 114.795L310.748 112.799ZM309.223 112.85C308.706 112.85 308.199 112.834 307.704 112.801L307.572 114.796C308.113 114.832 308.663 114.85 309.223 114.85V112.85ZM304.721 112.379C303.722 112.156 302.774 111.853 301.876 111.474L301.097 113.316C302.111 113.744 303.173 114.082 304.284 114.331L304.721 112.379ZM299.263 110.058C298.451 109.51 297.685 108.879 296.963 108.165L295.556 109.587C296.363 110.386 297.226 111.096 298.145 111.716L299.263 110.058ZM295.015 105.881C294.725 105.48 294.444 105.06 294.172 104.623L292.473 105.677C292.769 106.154 293.076 106.613 293.395 107.054L295.015 105.881ZM431.905 70.35H432.405V69.85H431.905V70.35ZM431.905 88.5V89H432.405V88.5H431.905ZM407.155 88.5V88H406.655V88.5H407.155ZM407.155 113.25V113.75H407.655V113.25H407.155ZM389.005 113.25H388.505V113.75H389.005V113.25ZM389.005 88.5H389.505V88H389.005V88.5ZM364.405 88.5H363.905V89H364.405V88.5ZM364.405 70.35V69.85H363.905V70.35H364.405ZM389.005 70.35V70.85H389.505V70.35H389.005ZM389.005 45.75V45.25H388.505V45.75H389.005ZM407.155 45.75H407.655V45.25H407.155V45.75ZM407.155 70.35H406.655V70.85H407.155V70.35ZM431.905 69.85H430.358V70.85H431.905V69.85ZM427.264 69.85H424.171V70.85H427.264V69.85ZM421.077 69.85H417.983V70.85H421.077V69.85ZM414.889 69.85H411.796V70.85H414.889V69.85ZM408.702 69.85H407.155V70.85H408.702V69.85ZM407.655 70.35V68.8125H406.655V70.35H407.655ZM407.655 65.7375V62.6625H406.655V65.7375H407.655ZM407.655 59.5875V56.5125H406.655V59.5875H407.655ZM407.655 53.4375V50.3625H406.655V53.4375H407.655ZM407.655 47.2875V45.75H406.655V47.2875H407.655ZM407.155 45.25H405.643V46.25H407.155V45.25ZM402.618 45.25H399.593V46.25H402.618V45.25ZM396.568 45.25H393.543V46.25H396.568V45.25ZM390.518 45.25H389.005V46.25H390.518V45.25ZM388.505 45.75V47.2875H389.505V45.75H388.505ZM388.505 50.3625V53.4375H389.505V50.3625H388.505ZM388.505 56.5125V59.5875H389.505V56.5125H388.505ZM388.505 62.6625V65.7375H389.505V62.6625H388.505ZM388.505 68.8125V70.35H389.505V68.8125H388.505ZM389.005 69.85H387.468V70.85H389.005V69.85ZM384.393 69.85H381.318V70.85H384.393V69.85ZM378.243 69.85H375.168V70.85H378.243V69.85ZM372.093 69.85H369.018V70.85H372.093V69.85ZM365.943 69.85H364.405V70.85H365.943V69.85ZM363.905 70.35V71.8625H364.905V70.35H363.905ZM363.905 74.8875V77.9125H364.905V74.8875H363.905ZM363.905 80.9375V83.9625H364.905V80.9375H363.905ZM363.905 86.9875V88.5H364.905V86.9875H363.905ZM364.405 89H365.943V88H364.405V89ZM369.018 89H372.093V88H369.018V89ZM375.168 89H378.243V88H375.168V89ZM381.318 89H384.393V88H381.318V89ZM387.468 89H389.005V88H387.468V89ZM388.505 88.5V90.0469H389.505V88.5H388.505ZM388.505 93.1406V96.2344H389.505V93.1406H388.505ZM388.505 99.3281V102.422H389.505V99.3281H388.505ZM388.505 105.516V108.609H389.505V105.516H388.505ZM388.505 111.703V113.25H389.505V111.703H388.505ZM389.005 113.75H390.518V112.75H389.005V113.75ZM393.543 113.75H396.568V112.75H393.543V113.75ZM399.593 113.75H402.618V112.75H399.593V113.75ZM405.643 113.75H407.155V112.75H405.643V113.75ZM407.655 113.25V111.703H406.655V113.25H407.655ZM407.655 108.609V105.516H406.655V108.609H407.655ZM407.655 102.422V99.3281H406.655V102.422H407.655ZM407.655 96.2344V93.1406H406.655V96.2344H407.655ZM407.655 90.0469V88.5H406.655V90.0469H407.655ZM407.155 89H408.702V88H407.155V89ZM411.796 89H414.889V88H411.796V89ZM417.983 89H421.077V88H417.983V89ZM424.171 89H427.264V88H424.171V89ZM430.358 89H431.905V88H430.358V89ZM432.405 88.5V86.9875H431.405V88.5H432.405ZM432.405 83.9625V80.9375H431.405V83.9625H432.405ZM432.405 77.9125V74.8875H431.405V77.9125H432.405ZM432.405 71.8625V70.35H431.405V71.8625H432.405ZM431.905 70.35H432.905V69.35H431.905V70.35ZM431.905 88.5V89.5H432.905V88.5H431.905ZM407.155 88.5V87.5H406.155V88.5H407.155ZM407.155 113.25V114.25H408.155V113.25H407.155ZM389.005 113.25H388.005V114.25H389.005V113.25ZM389.005 88.5H390.005V87.5H389.005V88.5ZM364.405 88.5H363.405V89.5H364.405V88.5ZM364.405 70.35V69.35H363.405V70.35H364.405ZM389.005 70.35V71.35H390.005V70.35H389.005ZM389.005 45.75V44.75H388.005V45.75H389.005ZM407.155 45.75H408.155V44.75H407.155V45.75ZM407.155 70.35H406.155V71.35H407.155V70.35ZM431.905 69.35H430.358V71.35H431.905V69.35ZM427.264 69.35H424.171V71.35H427.264V69.35ZM421.077 69.35H417.983V71.35H421.077V69.35ZM414.889 69.35H411.796V71.35H414.889V69.35ZM408.702 69.35H407.155V71.35H408.702V69.35ZM408.155 70.35V68.8125H406.155V70.35H408.155ZM408.155 65.7375V62.6625H406.155V65.7375H408.155ZM408.155 59.5875V56.5125H406.155V59.5875H408.155ZM408.155 53.4375V50.3625H406.155V53.4375H408.155ZM408.155 47.2875V45.75H406.155V47.2875H408.155ZM407.155 44.75H405.643V46.75H407.155V44.75ZM402.618 44.75H399.593V46.75H402.618V44.75ZM396.568 44.75H393.543V46.75H396.568V44.75ZM390.518 44.75H389.005V46.75H390.518V44.75ZM388.005 45.75V47.2875H390.005V45.75H388.005ZM388.005 50.3625V53.4375H390.005V50.3625H388.005ZM388.005 56.5125V59.5875H390.005V56.5125H388.005ZM388.005 62.6625V65.7375H390.005V62.6625H388.005ZM388.005 68.8125V70.35H390.005V68.8125H388.005ZM389.005 69.35H387.468V71.35H389.005V69.35ZM384.393 69.35H381.318V71.35H384.393V69.35ZM378.243 69.35H375.168V71.35H378.243V69.35ZM372.093 69.35H369.018V71.35H372.093V69.35ZM365.943 69.35H364.405V71.35H365.943V69.35ZM363.405 70.35V71.8625H365.405V70.35H363.405ZM363.405 74.8875V77.9125H365.405V74.8875H363.405ZM363.405 80.9375V83.9625H365.405V80.9375H363.405ZM363.405 86.9875V88.5H365.405V86.9875H363.405ZM364.405 89.5H365.943V87.5H364.405V89.5ZM369.018 89.5H372.093V87.5H369.018V89.5ZM375.168 89.5H378.243V87.5H375.168V89.5ZM381.318 89.5H384.393V87.5H381.318V89.5ZM387.468 89.5H389.005V87.5H387.468V89.5ZM388.005 88.5V90.0469H390.005V88.5H388.005ZM388.005 93.1406V96.2344H390.005V93.1406H388.005ZM388.005 99.3281V102.422H390.005V99.3281H388.005ZM388.005 105.516V108.609H390.005V105.516H388.005ZM388.005 111.703V113.25H390.005V111.703H388.005ZM389.005 114.25H390.518V112.25H389.005V114.25ZM393.543 114.25H396.568V112.25H393.543V114.25ZM399.593 114.25H402.618V112.25H399.593V114.25ZM405.643 114.25H407.155V112.25H405.643V114.25ZM408.155 113.25V111.703H406.155V113.25H408.155ZM408.155 108.609V105.516H406.155V108.609H408.155ZM408.155 102.422V99.3281H406.155V102.422H408.155ZM408.155 96.2344V93.1406H406.155V96.2344H408.155ZM408.155 90.0469V88.5H406.155V90.0469H408.155ZM407.155 89.5H408.702V87.5H407.155V89.5ZM411.796 89.5H414.889V87.5H411.796V89.5ZM417.983 89.5H421.077V87.5H417.983V89.5ZM424.171 89.5H427.264V87.5H424.171V89.5ZM430.358 89.5H431.905V87.5H430.358V89.5ZM432.905 88.5V86.9875H430.905V88.5H432.905ZM432.905 83.9625V80.9375H430.905V83.9625H432.905ZM432.905 77.9125V74.8875H430.905V77.9125H432.905ZM432.905 71.8625V70.35H430.905V71.8625H432.905Z" fill="white"/>
<g filter="url(#filter0_d)">
<path d="M38.25 21H56.25V126H35.55V42.9L15.75 48.45L10.65 30.75L38.25 21ZM114.258 128.1C101.158 128.1 90.8578 123.15 83.3578 113.25C75.9578 103.25 72.2578 90 72.2578 73.5C72.2578 57 75.9578 43.8 83.3578 33.9C90.8578 23.9 101.158 18.9 114.258 18.9C127.458 18.9 137.758 23.9 145.158 33.9C152.558 43.8 156.258 57 156.258 73.5C156.258 90 152.558 103.25 145.158 113.25C137.758 123.15 127.458 128.1 114.258 128.1ZM98.3578 99.15C101.958 104.95 107.258 107.85 114.258 107.85C121.258 107.85 126.558 104.9 130.158 99C133.858 93.1 135.708 84.6 135.708 73.5C135.708 62.3 133.858 53.75 130.158 47.85C126.558 41.95 121.258 39 114.258 39C107.258 39 101.958 41.95 98.3578 47.85C94.7578 53.75 92.9578 62.3 92.9578 73.5C92.9578 84.7 94.7578 93.25 98.3578 99.15ZM208.74 128.1C195.64 128.1 185.34 123.15 177.84 113.25C170.44 103.25 166.74 90 166.74 73.5C166.74 57 170.44 43.8 177.84 33.9C185.34 23.9 195.64 18.9 208.74 18.9C221.94 18.9 232.24 23.9 239.64 33.9C247.04 43.8 250.74 57 250.74 73.5C250.74 90 247.04 103.25 239.64 113.25C232.24 123.15 221.94 128.1 208.74 128.1ZM192.84 99.15C196.44 104.95 201.74 107.85 208.74 107.85C215.74 107.85 221.04 104.9 224.64 99C228.34 93.1 230.19 84.6 230.19 73.5C230.19 62.3 228.34 53.75 224.64 47.85C221.04 41.95 215.74 39 208.74 39C201.74 39 196.44 41.95 192.84 47.85C189.24 53.75 187.44 62.3 187.44 73.5C187.44 84.7 189.24 93.25 192.84 99.15ZM303.223 128.1C290.123 128.1 279.823 123.15 272.323 113.25C264.923 103.25 261.223 90 261.223 73.5C261.223 57 264.923 43.8 272.323 33.9C279.823 23.9 290.123 18.9 303.223 18.9C316.423 18.9 326.723 23.9 334.123 33.9C341.523 43.8 345.223 57 345.223 73.5C345.223 90 341.523 103.25 334.123 113.25C326.723 123.15 316.423 128.1 303.223 128.1ZM287.323 99.15C290.923 104.95 296.223 107.85 303.223 107.85C310.223 107.85 315.523 104.9 319.123 99C322.823 93.1 324.673 84.6 324.673 73.5C324.673 62.3 322.823 53.75 319.123 47.85C315.523 41.95 310.223 39 303.223 39C296.223 39 290.923 41.95 287.323 47.85C283.723 53.75 281.923 62.3 281.923 73.5C281.923 84.7 283.723 93.25 287.323 99.15ZM425.905 64.35V82.5H401.155V107.25H383.005V82.5H358.405V64.35H383.005V39.75H401.155V64.35H425.905Z" fill="white"/>
</g>
<defs>
<filter id="filter0_d" x="0.649994" y="12.9" width="435.255" height="129.2" filterUnits="userSpaceOnUse" color-interpolation-filters="sRGB">
<feFlood flood-opacity="0" result="BackgroundImageFix"/>
<feColorMatrix in="SourceAlpha" type="matrix" values="0 0 0 0 0 0 0 0 0 0 0 0 0 0 0 0 0 0 127 0"/>
<feOffset dy="4"/>
<feGaussianBlur stdDeviation="5"/>
<feColorMatrix type="matrix" values="0 0 0 0 0 0 0 0 0 0 0 0 0 0 0 0 0 0 0.2 0"/>
<feBlend mode="normal" in2="BackgroundImageFix" result="effect1_dropShadow"/>
<feBlend mode="normal" in="SourceGraphic" in2="effect1_dropShadow" result="shape"/>
</filter>
</defs>
</svg>
